STARTFONT 2.1
FONT -Misc-Fixed-Medium-R-Medium--8-8-75-75-c-80-iso10646-1
SIZE 8 75 75
FONTBOUNDINGBOX 5 8 0 -1
STARTPROPERTIES 10
FAMILY_NAME "Fixed"
WEIGHT_NAME "Medium"
FONT_VERSION "Version 1.0"
COPYRIGHT "Public domain font.  Share and enjoy."
FOUNDRY "Misc"
FONT_ASCENT 7
FONT_DESCENT 1
POINT_SIZE 8
X_HEIGHT 4
CAP_HEIGHT 6
ENDPROPERTIES
CHARS 1426
STARTCHAR U+0000
ENCODING 0
SWIDTH 1000 0
DWIDTH 5 0
BBX 4 6 0 0
BITMAP
A0
10
80
10
80
50
ENDCHAR
STARTCHAR U+0020
ENCODING 32
SWIDTH 600 0
DWIDTH 3 0
BBX 0 0 0 0
BITMAP
ENDCHAR
STARTCHAR U+0021
ENCODING 33
SWIDTH 400 0
DWIDTH 2 0
BBX 1 6 0 0
BITMAP
80
80
80
80
00
80
ENDCHAR
STARTCHAR U+0022
ENCODING 34
SWIDTH 800 0
DWIDTH 4 0
BBX 3 3 0 3
BITMAP
A0
A0
A0
ENDCHAR
STARTCHAR U+0023
ENCODING 35
SWIDTH 1000 0
DWIDTH 5 0
BBX 5 7 0 0
BITMAP
50
50
F8
50
F8
50
50
ENDCHAR
STARTCHAR U+0024
ENCODING 36
SWIDTH 1000 0
DWIDTH 5 0
BBX 5 7 0 0
BITMAP
20
70
A0
70
28
70
20
ENDCHAR
STARTCHAR U+0025
ENCODING 37
SWIDTH 1000 0
DWIDTH 5 0
BBX 4 4 0 1
BITMAP
90
20
40
90
ENDCHAR
STARTCHAR U+0026
ENCODING 38
SWIDTH 1000 0
DWIDTH 5 0
BBX 4 7 0 0
BITMAP
40
A0
A0
40
A0
A0
50
ENDCHAR
STARTCHAR U+0027
ENCODING 39
SWIDTH 400 0
DWIDTH 2 0
BBX 1 3 0 3
BITMAP
80
80
80
ENDCHAR
STARTCHAR U+0028
ENCODING 40
SWIDTH 600 0
DWIDTH 3 0
BBX 2 6 0 0
BITMAP
40
80
80
80
80
40
ENDCHAR
STARTCHAR U+0029
ENCODING 41
SWIDTH 600 0
DWIDTH 3 0
BBX 2 6 0 0
BITMAP
80
40
40
40
40
80
ENDCHAR
STARTCHAR U+002A
ENCODING 42
SWIDTH 1000 0
DWIDTH 5 0
BBX 4 5 0 0
BITMAP
90
60
F0
60
90
ENDCHAR
STARTCHAR U+002B
ENCODING 43
SWIDTH 800 0
DWIDTH 4 0
BBX 3 3 0 1
BITMAP
40
E0
40
ENDCHAR
STARTCHAR U+002C
ENCODING 44
SWIDTH 600 0
DWIDTH 3 0
BBX 2 2 0 -1
BITMAP
40
80
ENDCHAR
STARTCHAR U+002D
ENCODING 45
SWIDTH 800 0
DWIDTH 4 0
BBX 3 1 0 2
BITMAP
E0
ENDCHAR
STARTCHAR U+002E
ENCODING 46
SWIDTH 400 0
DWIDTH 2 0
BBX 1 1 0 0
BITMAP
80
ENDCHAR
STARTCHAR U+002F
ENCODING 47
SWIDTH 1000 0
DWIDTH 5 0
BBX 4 6 0 0
BITMAP
10
10
20
40
80
80
ENDCHAR
STARTCHAR U+0030
ENCODING 48
SWIDTH 1200 0
DWIDTH 6 0
BBX 5 6 0 0
BITMAP
70
D8
D8
D8
D8
70
ENDCHAR
STARTCHAR U+0031
ENCODING 49
SWIDTH 1200 0
DWIDTH 6 0
BBX 4 6 1 0
BITMAP
60
E0
60
60
60
F0
ENDCHAR
STARTCHAR U+0032
ENCODING 50
SWIDTH 1200 0
DWIDTH 6 0
BBX 5 6 0 0
BITMAP
70
D8
18
70
C0
F8
ENDCHAR
STARTCHAR U+0033
ENCODING 51
SWIDTH 1200 0
DWIDTH 6 0
BBX 5 6 0 0
BITMAP
F8
30
70
18
D8
70
ENDCHAR
STARTCHAR U+0034
ENCODING 52
SWIDTH 1200 0
DWIDTH 6 0
BBX 5 6 0 0
BITMAP
30
70
B0
F8
30
30
ENDCHAR
STARTCHAR U+0035
ENCODING 53
SWIDTH 1200 0
DWIDTH 6 0
BBX 5 6 0 0
BITMAP
F8
C0
F0
18
D8
70
ENDCHAR
STARTCHAR U+0036
ENCODING 54
SWIDTH 1200 0
DWIDTH 6 0
BBX 5 6 0 0
BITMAP
70
C0
F0
D8
D8
70
ENDCHAR
STARTCHAR U+0037
ENCODING 55
SWIDTH 1200 0
DWIDTH 6 0
BBX 5 6 0 0
BITMAP
F8
18
30
30
60
60
ENDCHAR
STARTCHAR U+0038
ENCODING 56
SWIDTH 1200 0
DWIDTH 6 0
BBX 5 6 0 0
BITMAP
70
D8
70
D8
D8
70
ENDCHAR
STARTCHAR U+0039
ENCODING 57
SWIDTH 1200 0
DWIDTH 6 0
BBX 5 6 0 0
BITMAP
70
D8
D8
78
18
70
ENDCHAR
STARTCHAR U+003A
ENCODING 58
SWIDTH 400 0
DWIDTH 2 0
BBX 1 4 0 1
BITMAP
80
00
00
80
ENDCHAR
STARTCHAR U+003B
ENCODING 59
SWIDTH 600 0
DWIDTH 3 0
BBX 2 5 0 0
BITMAP
40
00
00
40
80
ENDCHAR
STARTCHAR U+003C
ENCODING 60
SWIDTH 800 0
DWIDTH 4 0
BBX 3 6 0 0
BITMAP
20
40
80
80
40
20
ENDCHAR
STARTCHAR U+003D
ENCODING 61
SWIDTH 800 0
DWIDTH 4 0
BBX 3 3 0 1
BITMAP
E0
00
E0
ENDCHAR
STARTCHAR U+003E
ENCODING 62
SWIDTH 800 0
DWIDTH 4 0
BBX 3 6 0 0
BITMAP
80
40
20
20
40
80
ENDCHAR
STARTCHAR U+003F
ENCODING 63
SWIDTH 800 0
DWIDTH 4 0
BBX 3 6 0 0
BITMAP
40
A0
20
40
00
40
ENDCHAR
STARTCHAR U+0040
ENCODING 64
SWIDTH 1200 0
DWIDTH 6 0
BBX 5 8 0 -1
BITMAP
30
48
98
A8
A8
90
40
30
ENDCHAR
STARTCHAR U+0041
ENCODING 65
SWIDTH 1000 0
DWIDTH 5 0
BBX 4 6 0 0
BITMAP
60
90
90
F0
90
90
ENDCHAR
STARTCHAR U+0042
ENCODING 66
SWIDTH 1000 0
DWIDTH 5 0
BBX 4 6 0 0
BITMAP
E0
90
E0
90
90
E0
ENDCHAR
STARTCHAR U+0043
ENCODING 67
SWIDTH 1000 0
DWIDTH 5 0
BBX 4 6 0 0
BITMAP
60
90
80
80
90
60
ENDCHAR
STARTCHAR U+0044
ENCODING 68
SWIDTH 1000 0
DWIDTH 5 0
BBX 4 6 0 0
BITMAP
E0
90
90
90
90
E0
ENDCHAR
STARTCHAR U+0045
ENCODING 69
SWIDTH 1000 0
DWIDTH 5 0
BBX 4 6 0 0
BITMAP
F0
80
E0
80
80
F0
ENDCHAR
STARTCHAR U+0046
ENCODING 70
SWIDTH 1000 0
DWIDTH 5 0
BBX 4 6 0 0
BITMAP
F0
80
E0
80
80
80
ENDCHAR
STARTCHAR U+0047
ENCODING 71
SWIDTH 1000 0
DWIDTH 5 0
BBX 4 6 0 0
BITMAP
60
90
80
B0
90
60
ENDCHAR
STARTCHAR U+0048
ENCODING 72
SWIDTH 1000 0
DWIDTH 5 0
BBX 4 6 0 0
BITMAP
90
90
F0
90
90
90
ENDCHAR
STARTCHAR U+0049
ENCODING 73
SWIDTH 800 0
DWIDTH 4 0
BBX 3 6 0 0
BITMAP
E0
40
40
40
40
E0
ENDCHAR
STARTCHAR U+004A
ENCODING 74
SWIDTH 800 0
DWIDTH 4 0
BBX 3 6 0 0
BITMAP
20
20
20
20
A0
40
ENDCHAR
STARTCHAR U+004B
ENCODING 75
SWIDTH 1000 0
DWIDTH 5 0
BBX 4 6 0 0
BITMAP
90
A0
C0
A0
A0
90
ENDCHAR
STARTCHAR U+004C
ENCODING 76
SWIDTH 1000 0
DWIDTH 5 0
BBX 4 6 0 0
BITMAP
80
80
80
80
80
F0
ENDCHAR
STARTCHAR U+004D
ENCODING 77
SWIDTH 1200 0
DWIDTH 6 0
BBX 5 6 0 0
BITMAP
D8
F8
D8
D8
D8
D8
ENDCHAR
STARTCHAR U+004E
ENCODING 78
SWIDTH 1200 0
DWIDTH 6 0
BBX 5 6 0 0
BITMAP
98
D8
F8
F8
D8
C8
ENDCHAR
STARTCHAR U+004F
ENCODING 79
SWIDTH 1000 0
DWIDTH 5 0
BBX 4 6 0 0
BITMAP
60
90
90
90
90
60
ENDCHAR
STARTCHAR U+0050
ENCODING 80
SWIDTH 1000 0
DWIDTH 5 0
BBX 4 6 0 0
BITMAP
E0
90
90
E0
80
80
ENDCHAR
STARTCHAR U+0051
ENCODING 81
SWIDTH 1000 0
DWIDTH 5 0
BBX 4 7 0 -1
BITMAP
60
90
90
D0
B0
60
10
ENDCHAR
STARTCHAR U+0052
ENCODING 82
SWIDTH 1000 0
DWIDTH 5 0
BBX 4 6 0 0
BITMAP
E0
90
90
E0
90
90
ENDCHAR
STARTCHAR U+0053
ENCODING 83
SWIDTH 1200 0
DWIDTH 6 0
BBX 5 6 0 0
BITMAP
70
C8
60
30
98
70
ENDCHAR
STARTCHAR U+0054
ENCODING 84
SWIDTH 800 0
DWIDTH 4 0
BBX 3 6 0 0
BITMAP
E0
40
40
40
40
40
ENDCHAR
STARTCHAR U+0055
ENCODING 85
SWIDTH 1200 0
DWIDTH 6 0
BBX 5 6 0 0
BITMAP
D8
D8
D8
D8
D8
70
ENDCHAR
STARTCHAR U+0056
ENCODING 86
SWIDTH 1200 0
DWIDTH 6 0
BBX 5 6 0 0
BITMAP
88
88
88
88
50
20
ENDCHAR
STARTCHAR U+0057
ENCODING 87
SWIDTH 1200 0
DWIDTH 6 0
BBX 5 6 0 0
BITMAP
88
88
88
A8
A8
50
ENDCHAR
STARTCHAR U+0058
ENCODING 88
SWIDTH 1200 0
DWIDTH 6 0
BBX 5 6 0 0
BITMAP
D8
D8
70
70
D8
D8
ENDCHAR
STARTCHAR U+0059
ENCODING 89
SWIDTH 1200 0
DWIDTH 6 0
BBX 5 6 0 0
BITMAP
88
88
50
20
20
20
ENDCHAR
STARTCHAR U+005A
ENCODING 90
SWIDTH 1000 0
DWIDTH 5 0
BBX 4 6 0 0
BITMAP
F0
10
20
40
80
F0
ENDCHAR
STARTCHAR U+005B
ENCODING 91
SWIDTH 1000 0
DWIDTH 5 0
BBX 3 6 1 0
BITMAP
E0
80
80
80
80
E0
ENDCHAR
STARTCHAR U+005C
ENCODING 92
SWIDTH 1000 0
DWIDTH 5 0
BBX 4 6 0 0
BITMAP
80
80
40
20
10
10
ENDCHAR
STARTCHAR U+005D
ENCODING 93
SWIDTH 1000 0
DWIDTH 5 0
BBX 3 6 1 0
BITMAP
E0
20
20
20
20
E0
ENDCHAR
STARTCHAR U+005E
ENCODING 94
SWIDTH 800 0
DWIDTH 4 0
BBX 3 2 0 4
BITMAP
40
A0
ENDCHAR
STARTCHAR U+005F
ENCODING 95
SWIDTH 1000 0
DWIDTH 5 0
BBX 4 1 0 -1
BITMAP
F0
ENDCHAR
STARTCHAR U+0060
ENCODING 96
SWIDTH 600 0
DWIDTH 3 0
BBX 2 2 0 4
BITMAP
80
40
ENDCHAR
STARTCHAR U+0061
ENCODING 97
SWIDTH 1000 0
DWIDTH 5 0
BBX 4 4 0 0
BITMAP
70
90
90
70
ENDCHAR
STARTCHAR U+0062
ENCODING 98
SWIDTH 1000 0
DWIDTH 5 0
BBX 4 6 0 0
BITMAP
80
80
E0
90
90
E0
ENDCHAR
STARTCHAR U+0063
ENCODING 99
SWIDTH 800 0
DWIDTH 4 0
BBX 3 4 0 0
BITMAP
60
80
80
60
ENDCHAR
STARTCHAR U+0064
ENCODING 100
SWIDTH 1000 0
DWIDTH 5 0
BBX 4 6 0 0
BITMAP
10
10
70
90
90
70
ENDCHAR
STARTCHAR U+0065
ENCODING 101
SWIDTH 1000 0
DWIDTH 5 0
BBX 4 4 0 0
BITMAP
60
B0
C0
60
ENDCHAR
STARTCHAR U+0066
ENCODING 102
SWIDTH 1000 0
DWIDTH 5 0
BBX 4 6 0 0
BITMAP
20
50
40
E0
40
40
ENDCHAR
STARTCHAR U+0067
ENCODING 103
SWIDTH 1000 0
DWIDTH 5 0
BBX 4 5 0 -1
BITMAP
60
90
70
10
60
ENDCHAR
STARTCHAR U+0068
ENCODING 104
SWIDTH 1000 0
DWIDTH 5 0
BBX 4 6 0 0
BITMAP
80
80
E0
90
90
90
ENDCHAR
STARTCHAR U+0069
ENCODING 105
SWIDTH 800 0
DWIDTH 4 0
BBX 3 6 0 0
BITMAP
40
00
C0
40
40
E0
ENDCHAR
STARTCHAR U+006A
ENCODING 106
SWIDTH 800 0
DWIDTH 4 0
BBX 3 7 0 -1
BITMAP
20
00
20
20
20
A0
40
ENDCHAR
STARTCHAR U+006B
ENCODING 107
SWIDTH 1000 0
DWIDTH 5 0
BBX 4 6 0 0
BITMAP
80
80
90
E0
90
90
ENDCHAR
STARTCHAR U+006C
ENCODING 108
SWIDTH 800 0
DWIDTH 4 0
BBX 3 6 0 0
BITMAP
C0
40
40
40
40
E0
ENDCHAR
STARTCHAR U+006D
ENCODING 109
SWIDTH 1200 0
DWIDTH 6 0
BBX 5 4 0 0
BITMAP
D0
A8
A8
A8
ENDCHAR
STARTCHAR U+006E
ENCODING 110
SWIDTH 1000 0
DWIDTH 5 0
BBX 4 4 0 0
BITMAP
E0
90
90
90
ENDCHAR
STARTCHAR U+006F
ENCODING 111
SWIDTH 1000 0
DWIDTH 5 0
BBX 4 4 0 0
BITMAP
60
90
90
60
ENDCHAR
STARTCHAR U+0070
ENCODING 112
SWIDTH 1000 0
DWIDTH 5 0
BBX 4 5 0 -1
BITMAP
E0
90
E0
80
80
ENDCHAR
STARTCHAR U+0071
ENCODING 113
SWIDTH 1000 0
DWIDTH 5 0
BBX 4 5 0 -1
BITMAP
70
90
70
10
10
ENDCHAR
STARTCHAR U+0072
ENCODING 114
SWIDTH 1000 0
DWIDTH 5 0
BBX 4 4 0 0
BITMAP
A0
D0
80
80
ENDCHAR
STARTCHAR U+0073
ENCODING 115
SWIDTH 800 0
DWIDTH 4 0
BBX 3 4 0 0
BITMAP
60
C0
20
C0
ENDCHAR
STARTCHAR U+0074
ENCODING 116
SWIDTH 1000 0
DWIDTH 5 0
BBX 4 6 0 0
BITMAP
40
40
E0
40
50
20
ENDCHAR
STARTCHAR U+0075
ENCODING 117
SWIDTH 1000 0
DWIDTH 5 0
BBX 4 4 0 0
BITMAP
90
90
90
70
ENDCHAR
STARTCHAR U+0076
ENCODING 118
SWIDTH 800 0
DWIDTH 4 0
BBX 3 4 0 0
BITMAP
A0
A0
A0
40
ENDCHAR
STARTCHAR U+0077
ENCODING 119
SWIDTH 1200 0
DWIDTH 6 0
BBX 5 4 0 0
BITMAP
88
A8
A8
50
ENDCHAR
STARTCHAR U+0078
ENCODING 120
SWIDTH 1000 0
DWIDTH 5 0
BBX 4 4 0 0
BITMAP
90
60
60
90
ENDCHAR
STARTCHAR U+0079
ENCODING 121
SWIDTH 1000 0
DWIDTH 5 0
BBX 4 5 0 -1
BITMAP
90
90
70
90
60
ENDCHAR
STARTCHAR U+007A
ENCODING 122
SWIDTH 1000 0
DWIDTH 5 0
BBX 4 4 0 0
BITMAP
F0
20
40
F0
ENDCHAR
STARTCHAR U+007B
ENCODING 123
SWIDTH 1000 0
DWIDTH 5 0
BBX 4 7 0 0
BITMAP
30
40
20
C0
20
40
30
ENDCHAR
STARTCHAR U+007C
ENCODING 124
SWIDTH 400 0
DWIDTH 2 0
BBX 1 6 0 0
BITMAP
80
80
80
80
80
80
ENDCHAR
STARTCHAR U+007D
ENCODING 125
SWIDTH 1000 0
DWIDTH 5 0
BBX 4 7 0 0
BITMAP
C0
20
40
30
40
20
C0
ENDCHAR
STARTCHAR U+007E
ENCODING 126
SWIDTH 1000 0
DWIDTH 5 0
BBX 4 2 0 4
BITMAP
50
A0
ENDCHAR
STARTCHAR U+00A0
ENCODING 160
SWIDTH 1000 0
DWIDTH 5 0
BBX 0 0 0 0
BITMAP
ENDCHAR
STARTCHAR U+00A1
ENCODING 161
SWIDTH 400 0
DWIDTH 2 0
BBX 1 6 0 0
BITMAP
80
00
80
80
80
80
ENDCHAR
STARTCHAR U+00A2
ENCODING 162
SWIDTH 1000 0
DWIDTH 5 0
BBX 4 6 0 -1
BITMAP
20
70
A0
A0
70
20
ENDCHAR
STARTCHAR U+00A3
ENCODING 163
SWIDTH 1000 0
DWIDTH 5 0
BBX 4 7 0 0
BITMAP
20
50
40
E0
40
50
A0
ENDCHAR
STARTCHAR U+00A4
ENCODING 164
SWIDTH 1000 0
DWIDTH 5 0
BBX 5 5 0 0
BITMAP
88
70
50
70
88
ENDCHAR
STARTCHAR U+00A5
ENCODING 165
SWIDTH 1000 0
DWIDTH 5 0
BBX 5 6 0 0
BITMAP
88
50
F8
20
F8
20
ENDCHAR
STARTCHAR U+00A6
ENCODING 166
SWIDTH 400 0
DWIDTH 2 0
BBX 1 7 0 0
BITMAP
80
80
80
00
80
80
80
ENDCHAR
STARTCHAR U+00A7
ENCODING 167
SWIDTH 1000 0
DWIDTH 5 0
BBX 4 7 0 0
BITMAP
70
80
E0
90
70
10
E0
ENDCHAR
STARTCHAR U+00A8
ENCODING 168
SWIDTH 1000 0
DWIDTH 5 0
BBX 3 1 1 5
BITMAP
A0
ENDCHAR
STARTCHAR U+00A9
ENCODING 169
SWIDTH 1000 0
DWIDTH 5 0
BBX 5 6 0 0
BITMAP
70
A8
C8
C8
A8
70
ENDCHAR
STARTCHAR U+00AA
ENCODING 170
SWIDTH 1000 0
DWIDTH 5 0
BBX 3 5 1 2
BITMAP
60
A0
60
00
E0
ENDCHAR
STARTCHAR U+00AB
ENCODING 171
SWIDTH 1000 0
DWIDTH 5 0
BBX 4 3 0 1
BITMAP
50
A0
50
ENDCHAR
STARTCHAR U+00AC
ENCODING 172
SWIDTH 1000 0
DWIDTH 5 0
BBX 3 3 1 0
BITMAP
E0
20
20
ENDCHAR
STARTCHAR U+00AD
ENCODING 173
SWIDTH 1000 0
DWIDTH 5 0
BBX 3 1 1 2
BITMAP
E0
ENDCHAR
STARTCHAR U+00AE
ENCODING 174
SWIDTH 1000 0
DWIDTH 5 0
BBX 5 6 0 0
BITMAP
70
E8
D8
E8
D8
70
ENDCHAR
STARTCHAR U+00AF
ENCODING 175
SWIDTH 1000 0
DWIDTH 5 0
BBX 3 1 1 5
BITMAP
E0
ENDCHAR
STARTCHAR U+00B0
ENCODING 176
SWIDTH 800 0
DWIDTH 4 0
BBX 3 3 0 4
BITMAP
40
A0
40
ENDCHAR
STARTCHAR U+00B1
ENCODING 177
SWIDTH 1000 0
DWIDTH 5 0
BBX 3 5 1 0
BITMAP
40
E0
40
00
E0
ENDCHAR
STARTCHAR U+00B2
ENCODING 178
SWIDTH 1000 0
DWIDTH 5 0
BBX 3 5 1 2
BITMAP
40
A0
20
40
E0
ENDCHAR
STARTCHAR U+00B3
ENCODING 179
SWIDTH 1000 0
DWIDTH 5 0
BBX 3 5 1 2
BITMAP
C0
20
C0
20
C0
ENDCHAR
STARTCHAR U+00B4
ENCODING 180
SWIDTH 1000 0
DWIDTH 5 0
BBX 2 2 1 4
BITMAP
40
80
ENDCHAR
STARTCHAR U+00B5
ENCODING 181
SWIDTH 1000 0
DWIDTH 5 0
BBX 4 5 0 -1
BITMAP
90
90
90
E0
80
ENDCHAR
STARTCHAR U+00B6
ENCODING 182
SWIDTH 1000 0
DWIDTH 5 0
BBX 5 6 0 0
BITMAP
78
E8
E8
68
28
28
ENDCHAR
STARTCHAR U+00B7
ENCODING 183
SWIDTH 1000 0
DWIDTH 5 0
BBX 1 1 2 2
BITMAP
80
ENDCHAR
STARTCHAR U+00B8
ENCODING 184
SWIDTH 1000 0
DWIDTH 5 0
BBX 2 2 1 -1
BITMAP
40
80
ENDCHAR
STARTCHAR U+00B9
ENCODING 185
SWIDTH 1000 0
DWIDTH 5 0
BBX 3 5 1 2
BITMAP
40
C0
40
40
E0
ENDCHAR
STARTCHAR U+00BA
ENCODING 186
SWIDTH 1000 0
DWIDTH 5 0
BBX 3 5 1 2
BITMAP
40
A0
40
00
E0
ENDCHAR
STARTCHAR U+00BB
ENCODING 187
SWIDTH 1000 0
DWIDTH 5 0
BBX 4 3 0 1
BITMAP
A0
50
A0
ENDCHAR
STARTCHAR U+00BC
ENCODING 188
SWIDTH 1000 0
DWIDTH 5 0
BBX 4 7 0 0
BITMAP
80
80
80
A0
60
F0
20
ENDCHAR
STARTCHAR U+00BD
ENCODING 189
SWIDTH 1000 0
DWIDTH 5 0
BBX 4 7 0 0
BITMAP
80
80
A0
D0
10
20
70
ENDCHAR
STARTCHAR U+00BE
ENCODING 190
SWIDTH 1000 0
DWIDTH 5 0
BBX 4 7 0 0
BITMAP
80
40
80
60
A0
F0
20
ENDCHAR
STARTCHAR U+00BF
ENCODING 191
SWIDTH 1000 0
DWIDTH 5 0
BBX 3 6 1 0
BITMAP
40
00
40
80
A0
40
ENDCHAR
STARTCHAR U+00C0
ENCODING 192
SWIDTH 1000 0
DWIDTH 5 0
BBX 4 7 0 0
BITMAP
40
20
60
90
F0
90
90
ENDCHAR
STARTCHAR U+00C1
ENCODING 193
SWIDTH 1000 0
DWIDTH 5 0
BBX 4 7 0 0
BITMAP
20
40
60
90
F0
90
90
ENDCHAR
STARTCHAR U+00C2
ENCODING 194
SWIDTH 1000 0
DWIDTH 5 0
BBX 4 7 0 0
BITMAP
60
90
60
90
F0
90
90
ENDCHAR
STARTCHAR U+00C3
ENCODING 195
SWIDTH 1000 0
DWIDTH 5 0
BBX 4 7 0 0
BITMAP
50
A0
60
90
F0
90
90
ENDCHAR
STARTCHAR U+00C4
ENCODING 196
SWIDTH 1000 0
DWIDTH 5 0
BBX 4 7 0 0
BITMAP
90
00
60
90
F0
90
90
ENDCHAR
STARTCHAR U+00C5
ENCODING 197
SWIDTH 1000 0
DWIDTH 5 0
BBX 4 7 0 0
BITMAP
60
90
60
90
F0
90
90
ENDCHAR
STARTCHAR U+00C6
ENCODING 198
SWIDTH 1000 0
DWIDTH 5 0
BBX 4 6 0 0
BITMAP
70
A0
A0
F0
A0
B0
ENDCHAR
STARTCHAR U+00C7
ENCODING 199
SWIDTH 1000 0
DWIDTH 5 0
BBX 4 7 0 -1
BITMAP
60
90
80
80
90
60
40
ENDCHAR
STARTCHAR U+00C8
ENCODING 200
SWIDTH 1000 0
DWIDTH 5 0
BBX 4 7 0 0
BITMAP
40
20
F0
80
E0
80
F0
ENDCHAR
STARTCHAR U+00C9
ENCODING 201
SWIDTH 1000 0
DWIDTH 5 0
BBX 4 7 0 0
BITMAP
20
40
F0
80
E0
80
F0
ENDCHAR
STARTCHAR U+00CA
ENCODING 202
SWIDTH 1000 0
DWIDTH 5 0
BBX 4 7 0 0
BITMAP
60
90
F0
80
E0
80
F0
ENDCHAR
STARTCHAR U+00CB
ENCODING 203
SWIDTH 1000 0
DWIDTH 5 0
BBX 4 7 0 0
BITMAP
90
00
F0
80
E0
80
F0
ENDCHAR
STARTCHAR U+00CC
ENCODING 204
SWIDTH 1000 0
DWIDTH 5 0
BBX 3 7 1 0
BITMAP
80
40
E0
40
40
40
E0
ENDCHAR
STARTCHAR U+00CD
ENCODING 205
SWIDTH 1000 0
DWIDTH 5 0
BBX 3 7 1 0
BITMAP
20
40
E0
40
40
40
E0
ENDCHAR
STARTCHAR U+00CE
ENCODING 206
SWIDTH 1000 0
DWIDTH 5 0
BBX 3 7 1 0
BITMAP
40
A0
E0
40
40
40
E0
ENDCHAR
STARTCHAR U+00CF
ENCODING 207
SWIDTH 1000 0
DWIDTH 5 0
BBX 3 7 1 0
BITMAP
A0
00
E0
40
40
40
E0
ENDCHAR
STARTCHAR U+00D0
ENCODING 208
SWIDTH 1000 0
DWIDTH 5 0
BBX 5 6 0 0
BITMAP
70
48
E8
48
48
70
ENDCHAR
STARTCHAR U+00D1
ENCODING 209
SWIDTH 1000 0
DWIDTH 5 0
BBX 4 7 0 0
BITMAP
50
A0
90
D0
B0
90
90
ENDCHAR
STARTCHAR U+00D2
ENCODING 210
SWIDTH 1000 0
DWIDTH 5 0
BBX 4 7 0 0
BITMAP
40
20
60
90
90
90
60
ENDCHAR
STARTCHAR U+00D3
ENCODING 211
SWIDTH 1000 0
DWIDTH 5 0
BBX 4 7 0 0
BITMAP
20
40
60
90
90
90
60
ENDCHAR
STARTCHAR U+00D4
ENCODING 212
SWIDTH 1000 0
DWIDTH 5 0
BBX 4 7 0 0
BITMAP
60
90
60
90
90
90
60
ENDCHAR
STARTCHAR U+00D5
ENCODING 213
SWIDTH 1000 0
DWIDTH 5 0
BBX 4 7 0 0
BITMAP
50
A0
60
90
90
90
60
ENDCHAR
STARTCHAR U+00D6
ENCODING 214
SWIDTH 1000 0
DWIDTH 5 0
BBX 4 7 0 0
BITMAP
90
00
60
90
90
90
60
ENDCHAR
STARTCHAR U+00D7
ENCODING 215
SWIDTH 1000 0
DWIDTH 5 0
BBX 3 3 1 0
BITMAP
A0
40
A0
ENDCHAR
STARTCHAR U+00D8
ENCODING 216
SWIDTH 1000 0
DWIDTH 5 0
BBX 4 6 0 0
BITMAP
70
B0
B0
D0
D0
E0
ENDCHAR
STARTCHAR U+00D9
ENCODING 217
SWIDTH 1000 0
DWIDTH 5 0
BBX 4 7 0 0
BITMAP
40
20
90
90
90
90
60
ENDCHAR
STARTCHAR U+00DA
ENCODING 218
SWIDTH 1000 0
DWIDTH 5 0
BBX 4 7 0 0
BITMAP
20
40
90
90
90
90
60
ENDCHAR
STARTCHAR U+00DB
ENCODING 219
SWIDTH 1000 0
DWIDTH 5 0
BBX 4 7 0 0
BITMAP
60
90
90
90
90
90
60
ENDCHAR
STARTCHAR U+00DC
ENCODING 220
SWIDTH 1000 0
DWIDTH 5 0
BBX 4 7 0 0
BITMAP
90
00
90
90
90
90
60
ENDCHAR
STARTCHAR U+00DD
ENCODING 221
SWIDTH 1000 0
DWIDTH 5 0
BBX 5 7 0 0
BITMAP
10
20
88
50
20
20
20
ENDCHAR
STARTCHAR U+00DE
ENCODING 222
SWIDTH 1000 0
DWIDTH 5 0
BBX 4 6 0 0
BITMAP
80
E0
90
90
E0
80
ENDCHAR
STARTCHAR U+00DF
ENCODING 223
SWIDTH 1000 0
DWIDTH 5 0
BBX 4 6 0 0
BITMAP
60
90
A0
A0
90
A0
ENDCHAR
STARTCHAR U+00E0
ENCODING 224
SWIDTH 1000 0
DWIDTH 5 0
BBX 4 7 0 0
BITMAP
40
20
00
70
90
90
70
ENDCHAR
STARTCHAR U+00E1
ENCODING 225
SWIDTH 1000 0
DWIDTH 5 0
BBX 4 7 0 0
BITMAP
20
40
00
70
90
90
70
ENDCHAR
STARTCHAR U+00E2
ENCODING 226
SWIDTH 1000 0
DWIDTH 5 0
BBX 4 7 0 0
BITMAP
20
50
00
70
90
90
70
ENDCHAR
STARTCHAR U+00E3
ENCODING 227
SWIDTH 1000 0
DWIDTH 5 0
BBX 4 7 0 0
BITMAP
50
A0
00
70
90
90
70
ENDCHAR
STARTCHAR U+00E4
ENCODING 228
SWIDTH 1000 0
DWIDTH 5 0
BBX 4 6 0 0
BITMAP
50
00
70
90
90
70
ENDCHAR
STARTCHAR U+00E5
ENCODING 229
SWIDTH 1000 0
DWIDTH 5 0
BBX 4 7 0 0
BITMAP
60
90
60
70
90
90
70
ENDCHAR
STARTCHAR U+00E6
ENCODING 230
SWIDTH 1000 0
DWIDTH 5 0
BBX 5 4 0 0
BITMAP
F0
68
B0
78
ENDCHAR
STARTCHAR U+00E7
ENCODING 231
SWIDTH 1000 0
DWIDTH 5 0
BBX 3 5 1 -1
BITMAP
60
80
80
60
40
ENDCHAR
STARTCHAR U+00E8
ENCODING 232
SWIDTH 1000 0
DWIDTH 5 0
BBX 4 7 0 0
BITMAP
40
20
00
60
B0
C0
60
ENDCHAR
STARTCHAR U+00E9
ENCODING 233
SWIDTH 1000 0
DWIDTH 5 0
BBX 4 7 0 0
BITMAP
20
40
00
60
B0
C0
60
ENDCHAR
STARTCHAR U+00EA
ENCODING 234
SWIDTH 1000 0
DWIDTH 5 0
BBX 4 7 0 0
BITMAP
60
90
00
60
B0
C0
60
ENDCHAR
STARTCHAR U+00EB
ENCODING 235
SWIDTH 1000 0
DWIDTH 5 0
BBX 4 6 0 0
BITMAP
50
00
60
B0
C0
60
ENDCHAR
STARTCHAR U+00EC
ENCODING 236
SWIDTH 1000 0
DWIDTH 5 0
BBX 3 7 1 0
BITMAP
80
40
00
C0
40
40
E0
ENDCHAR
STARTCHAR U+00ED
ENCODING 237
SWIDTH 1000 0
DWIDTH 5 0
BBX 3 7 1 0
BITMAP
20
40
00
C0
40
40
E0
ENDCHAR
STARTCHAR U+00EE
ENCODING 238
SWIDTH 1000 0
DWIDTH 5 0
BBX 3 7 1 0
BITMAP
40
A0
00
C0
40
40
E0
ENDCHAR
STARTCHAR U+00EF
ENCODING 239
SWIDTH 1000 0
DWIDTH 5 0
BBX 3 6 1 0
BITMAP
A0
00
C0
40
40
E0
ENDCHAR
STARTCHAR U+00F0
ENCODING 240
SWIDTH 1000 0
DWIDTH 5 0
BBX 4 7 0 0
BITMAP
A0
40
A0
10
70
90
60
ENDCHAR
STARTCHAR U+00F1
ENCODING 241
SWIDTH 1000 0
DWIDTH 5 0
BBX 4 7 0 0
BITMAP
50
A0
00
E0
90
90
90
ENDCHAR
STARTCHAR U+00F2
ENCODING 242
SWIDTH 1000 0
DWIDTH 5 0
BBX 4 7 0 0
BITMAP
40
20
00
60
90
90
60
ENDCHAR
STARTCHAR U+00F3
ENCODING 243
SWIDTH 1000 0
DWIDTH 5 0
BBX 4 7 0 0
BITMAP
20
40
00
60
90
90
60
ENDCHAR
STARTCHAR U+00F4
ENCODING 244
SWIDTH 1000 0
DWIDTH 5 0
BBX 4 7 0 0
BITMAP
60
90
00
60
90
90
60
ENDCHAR
STARTCHAR U+00F5
ENCODING 245
SWIDTH 1000 0
DWIDTH 5 0
BBX 4 7 0 0
BITMAP
50
A0
00
60
90
90
60
ENDCHAR
STARTCHAR U+00F6
ENCODING 246
SWIDTH 1000 0
DWIDTH 5 0
BBX 4 6 0 0
BITMAP
90
00
60
90
90
60
ENDCHAR
STARTCHAR U+00F7
ENCODING 247
SWIDTH 1000 0
DWIDTH 5 0
BBX 3 5 1 0
BITMAP
40
00
E0
00
40
ENDCHAR
STARTCHAR U+00F8
ENCODING 248
SWIDTH 1000 0
DWIDTH 5 0
BBX 4 4 0 0
BITMAP
70
B0
D0
E0
ENDCHAR
STARTCHAR U+00F9
ENCODING 249
SWIDTH 1000 0
DWIDTH 5 0
BBX 4 7 0 0
BITMAP
40
20
00
90
90
90
70
ENDCHAR
STARTCHAR U+00FA
ENCODING 250
SWIDTH 1000 0
DWIDTH 5 0
BBX 4 7 0 0
BITMAP
20
40
00
90
90
90
70
ENDCHAR
STARTCHAR U+00FB
ENCODING 251
SWIDTH 1000 0
DWIDTH 5 0
BBX 4 7 0 0
BITMAP
60
90
00
90
90
90
70
ENDCHAR
STARTCHAR U+00FC
ENCODING 252
SWIDTH 1000 0
DWIDTH 5 0
BBX 4 6 0 0
BITMAP
90
00
90
90
90
70
ENDCHAR
STARTCHAR U+00FD
ENCODING 253
SWIDTH 1000 0
DWIDTH 5 0
BBX 4 8 0 -1
BITMAP
20
40
00
90
90
70
90
60
ENDCHAR
STARTCHAR U+00FE
ENCODING 254
SWIDTH 1000 0
DWIDTH 5 0
BBX 4 7 0 -1
BITMAP
80
80
E0
90
E0
80
80
ENDCHAR
STARTCHAR U+00FF
ENCODING 255
SWIDTH 1000 0
DWIDTH 5 0
BBX 4 7 0 -1
BITMAP
90
00
90
90
70
90
60
ENDCHAR
STARTCHAR U+0100
ENCODING 256
SWIDTH 1000 0
DWIDTH 5 0
BBX 4 7 0 0
BITMAP
F0
00
60
90
F0
90
90
ENDCHAR
STARTCHAR U+0101
ENCODING 257
SWIDTH 1000 0
DWIDTH 5 0
BBX 4 6 0 0
BITMAP
F0
00
70
90
90
70
ENDCHAR
STARTCHAR U+0102
ENCODING 258
SWIDTH 1000 0
DWIDTH 5 0
BBX 4 7 0 0
BITMAP
90
60
60
90
F0
90
90
ENDCHAR
STARTCHAR U+0103
ENCODING 259
SWIDTH 1000 0
DWIDTH 5 0
BBX 4 7 0 0
BITMAP
90
60
00
70
90
90
70
ENDCHAR
STARTCHAR U+0104
ENCODING 260
SWIDTH 1000 0
DWIDTH 5 0
BBX 4 7 0 -1
BITMAP
60
90
90
F0
90
90
30
ENDCHAR
STARTCHAR U+0105
ENCODING 261
SWIDTH 1000 0
DWIDTH 5 0
BBX 4 5 0 -1
BITMAP
70
90
90
70
20
ENDCHAR
STARTCHAR U+0106
ENCODING 262
SWIDTH 1000 0
DWIDTH 5 0
BBX 4 7 0 0
BITMAP
20
40
60
90
80
90
60
ENDCHAR
STARTCHAR U+0107
ENCODING 263
SWIDTH 1000 0
DWIDTH 5 0
BBX 3 7 1 0
BITMAP
20
40
00
60
80
80
60
ENDCHAR
STARTCHAR U+0108
ENCODING 264
SWIDTH 1000 0
DWIDTH 5 0
BBX 4 7 0 0
BITMAP
60
90
60
90
80
90
60
ENDCHAR
STARTCHAR U+0109
ENCODING 265
SWIDTH 1000 0
DWIDTH 5 0
BBX 4 7 0 0
BITMAP
60
90
00
60
80
80
60
ENDCHAR
STARTCHAR U+010A
ENCODING 266
SWIDTH 1000 0
DWIDTH 5 0
BBX 4 7 0 0
BITMAP
40
00
60
90
80
90
60
ENDCHAR
STARTCHAR U+010B
ENCODING 267
SWIDTH 1000 0
DWIDTH 5 0
BBX 3 6 1 0
BITMAP
40
00
60
80
80
60
ENDCHAR
STARTCHAR U+010C
ENCODING 268
SWIDTH 1000 0
DWIDTH 5 0
BBX 4 7 0 0
BITMAP
90
60
60
90
80
90
60
ENDCHAR
STARTCHAR U+010D
ENCODING 269
SWIDTH 1000 0
DWIDTH 5 0
BBX 4 7 0 0
BITMAP
90
60
00
60
80
80
60
ENDCHAR
STARTCHAR U+010E
ENCODING 270
SWIDTH 1000 0
DWIDTH 5 0
BBX 4 7 0 0
BITMAP
90
60
E0
90
90
90
E0
ENDCHAR
STARTCHAR U+010F
ENCODING 271
SWIDTH 1000 0
DWIDTH 5 0
BBX 4 7 0 0
BITMAP
A0
50
10
70
90
90
70
ENDCHAR
STARTCHAR U+0110
ENCODING 272
SWIDTH 1000 0
DWIDTH 5 0
BBX 5 6 0 0
BITMAP
70
48
E8
48
48
70
ENDCHAR
STARTCHAR U+0111
ENCODING 273
SWIDTH 1000 0
DWIDTH 5 0
BBX 4 6 0 0
BITMAP
20
70
20
60
A0
60
ENDCHAR
STARTCHAR U+0112
ENCODING 274
SWIDTH 1000 0
DWIDTH 5 0
BBX 4 7 0 0
BITMAP
F0
00
F0
80
E0
80
F0
ENDCHAR
STARTCHAR U+0113
ENCODING 275
SWIDTH 1000 0
DWIDTH 5 0
BBX 4 6 0 0
BITMAP
F0
00
60
B0
C0
60
ENDCHAR
STARTCHAR U+0114
ENCODING 276
SWIDTH 1000 0
DWIDTH 5 0
BBX 4 7 0 0
BITMAP
90
60
F0
80
E0
80
F0
ENDCHAR
STARTCHAR U+0115
ENCODING 277
SWIDTH 1000 0
DWIDTH 5 0
BBX 4 7 0 0
BITMAP
90
60
00
60
B0
C0
60
ENDCHAR
STARTCHAR U+0116
ENCODING 278
SWIDTH 1000 0
DWIDTH 5 0
BBX 4 7 0 0
BITMAP
60
00
F0
80
E0
80
F0
ENDCHAR
STARTCHAR U+0117
ENCODING 279
SWIDTH 1000 0
DWIDTH 5 0
BBX 4 6 0 0
BITMAP
60
00
60
B0
C0
60
ENDCHAR
STARTCHAR U+0118
ENCODING 280
SWIDTH 1000 0
DWIDTH 5 0
BBX 4 7 0 -1
BITMAP
F0
80
E0
80
80
F0
20
ENDCHAR
STARTCHAR U+0119
ENCODING 281
SWIDTH 1000 0
DWIDTH 5 0
BBX 4 5 0 -1
BITMAP
60
B0
C0
60
20
ENDCHAR
STARTCHAR U+011A
ENCODING 282
SWIDTH 1000 0
DWIDTH 5 0
BBX 4 7 0 0
BITMAP
90
60
F0
80
E0
80
F0
ENDCHAR
STARTCHAR U+011B
ENCODING 283
SWIDTH 1000 0
DWIDTH 5 0
BBX 4 7 0 0
BITMAP
90
60
00
60
B0
C0
60
ENDCHAR
STARTCHAR U+011C
ENCODING 284
SWIDTH 1000 0
DWIDTH 5 0
BBX 4 7 0 0
BITMAP
60
90
70
80
B0
90
60
ENDCHAR
STARTCHAR U+011D
ENCODING 285
SWIDTH 1000 0
DWIDTH 5 0
BBX 4 8 0 -1
BITMAP
60
90
00
60
90
70
10
60
ENDCHAR
STARTCHAR U+011E
ENCODING 286
SWIDTH 1000 0
DWIDTH 5 0
BBX 4 7 0 0
BITMAP
90
60
70
80
B0
90
60
ENDCHAR
STARTCHAR U+011F
ENCODING 287
SWIDTH 1000 0
DWIDTH 5 0
BBX 4 8 0 -1
BITMAP
90
60
00
60
90
70
10
60
ENDCHAR
STARTCHAR U+0120
ENCODING 288
SWIDTH 1000 0
DWIDTH 5 0
BBX 4 7 0 0
BITMAP
60
00
70
80
B0
90
60
ENDCHAR
STARTCHAR U+0121
ENCODING 289
SWIDTH 1000 0
DWIDTH 5 0
BBX 4 7 0 -1
BITMAP
60
00
60
90
70
10
60
ENDCHAR
STARTCHAR U+0122
ENCODING 290
SWIDTH 1000 0
DWIDTH 5 0
BBX 4 7 0 -1
BITMAP
60
90
80
B0
90
60
20
ENDCHAR
STARTCHAR U+0123
ENCODING 291
SWIDTH 1000 0
DWIDTH 5 0
BBX 4 8 0 -1
BITMAP
60
40
00
60
90
70
10
60
ENDCHAR
STARTCHAR U+0124
ENCODING 292
SWIDTH 1000 0
DWIDTH 5 0
BBX 4 7 0 0
BITMAP
60
90
00
90
F0
90
90
ENDCHAR
STARTCHAR U+0125
ENCODING 293
SWIDTH 1000 0
DWIDTH 5 0
BBX 4 7 0 0
BITMAP
60
90
80
E0
90
90
90
ENDCHAR
STARTCHAR U+0126
ENCODING 294
SWIDTH 1000 0
DWIDTH 5 0
BBX 5 6 0 0
BITMAP
50
F8
50
70
50
50
ENDCHAR
STARTCHAR U+0127
ENCODING 295
SWIDTH 1000 0
DWIDTH 5 0
BBX 5 6 0 0
BITMAP
40
F0
40
70
48
48
ENDCHAR
STARTCHAR U+0128
ENCODING 296
SWIDTH 1000 0
DWIDTH 5 0
BBX 4 7 0 0
BITMAP
50
A0
E0
40
40
40
E0
ENDCHAR
STARTCHAR U+0129
ENCODING 297
SWIDTH 1000 0
DWIDTH 5 0
BBX 4 7 0 0
BITMAP
50
A0
00
C0
40
40
E0
ENDCHAR
STARTCHAR U+012A
ENCODING 298
SWIDTH 1000 0
DWIDTH 5 0
BBX 3 7 1 0
BITMAP
E0
00
E0
40
40
40
E0
ENDCHAR
STARTCHAR U+012B
ENCODING 299
SWIDTH 1000 0
DWIDTH 5 0
BBX 3 6 1 0
BITMAP
E0
00
C0
40
40
E0
ENDCHAR
STARTCHAR U+012C
ENCODING 300
SWIDTH 1000 0
DWIDTH 5 0
BBX 4 7 0 0
BITMAP
90
60
70
20
20
20
70
ENDCHAR
STARTCHAR U+012D
ENCODING 301
SWIDTH 1000 0
DWIDTH 5 0
BBX 4 7 0 0
BITMAP
90
60
00
60
20
20
70
ENDCHAR
STARTCHAR U+012E
ENCODING 302
SWIDTH 1000 0
DWIDTH 5 0
BBX 3 7 1 -1
BITMAP
E0
40
40
40
40
E0
20
ENDCHAR
STARTCHAR U+012F
ENCODING 303
SWIDTH 1000 0
DWIDTH 5 0
BBX 3 7 1 -1
BITMAP
40
00
C0
40
40
E0
20
ENDCHAR
STARTCHAR U+0130
ENCODING 304
SWIDTH 1000 0
DWIDTH 5 0
BBX 3 7 1 0
BITMAP
40
00
E0
40
40
40
E0
ENDCHAR
STARTCHAR U+0131
ENCODING 305
SWIDTH 1000 0
DWIDTH 5 0
BBX 3 4 1 0
BITMAP
C0
40
40
E0
ENDCHAR
STARTCHAR U+0132
ENCODING 306
SWIDTH 1000 0
DWIDTH 5 0
BBX 4 6 0 0
BITMAP
B0
90
90
90
D0
A0
ENDCHAR
STARTCHAR U+0133
ENCODING 307
SWIDTH 1000 0
DWIDTH 5 0
BBX 3 7 1 -1
BITMAP
A0
00
A0
A0
A0
A0
40
ENDCHAR
STARTCHAR U+0134
ENCODING 308
SWIDTH 1000 0
DWIDTH 5 0
BBX 4 7 0 0
BITMAP
20
50
70
20
20
A0
40
ENDCHAR
STARTCHAR U+0135
ENCODING 309
SWIDTH 1000 0
DWIDTH 5 0
BBX 4 8 0 -1
BITMAP
20
50
00
20
20
20
A0
40
ENDCHAR
STARTCHAR U+0136
ENCODING 310
SWIDTH 1000 0
DWIDTH 5 0
BBX 5 7 0 -1
BITMAP
48
50
60
50
50
48
80
ENDCHAR
STARTCHAR U+0137
ENCODING 311
SWIDTH 1000 0
DWIDTH 5 0
BBX 5 7 0 -1
BITMAP
40
40
48
70
48
48
80
ENDCHAR
STARTCHAR U+0138
ENCODING 312
SWIDTH 1000 0
DWIDTH 5 0
BBX 3 4 1 0
BITMAP
A0
C0
A0
A0
ENDCHAR
STARTCHAR U+0139
ENCODING 313
SWIDTH 1000 0
DWIDTH 5 0
BBX 4 7 0 0
BITMAP
10
20
80
80
80
80
F0
ENDCHAR
STARTCHAR U+013A
ENCODING 314
SWIDTH 1000 0
DWIDTH 5 0
BBX 3 7 1 0
BITMAP
20
40
C0
40
40
40
E0
ENDCHAR
STARTCHAR U+013B
ENCODING 315
SWIDTH 1000 0
DWIDTH 5 0
BBX 4 7 0 -1
BITMAP
80
80
80
80
80
F0
20
ENDCHAR
STARTCHAR U+013C
ENCODING 316
SWIDTH 1000 0
DWIDTH 5 0
BBX 3 7 1 -1
BITMAP
C0
40
40
40
40
E0
40
ENDCHAR
STARTCHAR U+013D
ENCODING 317
SWIDTH 1000 0
DWIDTH 5 0
BBX 4 7 0 0
BITMAP
50
20
80
80
80
80
F0
ENDCHAR
STARTCHAR U+013E
ENCODING 318
SWIDTH 1000 0
DWIDTH 5 0
BBX 3 7 1 0
BITMAP
A0
40
C0
40
40
40
E0
ENDCHAR
STARTCHAR U+013F
ENCODING 319
SWIDTH 1000 0
DWIDTH 5 0
BBX 4 6 0 0
BITMAP
80
80
A0
80
80
F0
ENDCHAR
STARTCHAR U+0140
ENCODING 320
SWIDTH 1000 0
DWIDTH 5 0
BBX 4 6 0 0
BITMAP
C0
40
50
40
40
E0
ENDCHAR
STARTCHAR U+0141
ENCODING 321
SWIDTH 1000 0
DWIDTH 5 0
BBX 5 6 0 0
BITMAP
40
60
C0
40
40
78
ENDCHAR
STARTCHAR U+0142
ENCODING 322
SWIDTH 1000 0
DWIDTH 5 0
BBX 3 6 1 0
BITMAP
C0
40
60
C0
40
E0
ENDCHAR
STARTCHAR U+0143
ENCODING 323
SWIDTH 1000 0
DWIDTH 5 0
BBX 4 7 0 0
BITMAP
20
40
90
D0
B0
90
90
ENDCHAR
STARTCHAR U+0144
ENCODING 324
SWIDTH 1000 0
DWIDTH 5 0
BBX 4 7 0 0
BITMAP
20
40
00
E0
90
90
90
ENDCHAR
STARTCHAR U+0145
ENCODING 325
SWIDTH 1000 0
DWIDTH 5 0
BBX 4 7 0 -1
BITMAP
90
D0
F0
B0
B0
90
40
ENDCHAR
STARTCHAR U+0146
ENCODING 326
SWIDTH 1000 0
DWIDTH 5 0
BBX 4 5 0 -1
BITMAP
E0
90
90
90
40
ENDCHAR
STARTCHAR U+0147
ENCODING 327
SWIDTH 1000 0
DWIDTH 5 0
BBX 4 7 0 0
BITMAP
90
60
90
D0
B0
90
90
ENDCHAR
STARTCHAR U+0148
ENCODING 328
SWIDTH 1000 0
DWIDTH 5 0
BBX 4 7 0 0
BITMAP
90
60
00
E0
90
90
90
ENDCHAR
STARTCHAR U+0149
ENCODING 329
SWIDTH 1000 0
DWIDTH 5 0
BBX 5 7 0 0
BITMAP
C0
40
80
30
28
28
28
ENDCHAR
STARTCHAR U+014A
ENCODING 330
SWIDTH 1000 0
DWIDTH 5 0
BBX 4 7 0 -1
BITMAP
90
D0
F0
B0
B0
90
20
ENDCHAR
STARTCHAR U+014B
ENCODING 331
SWIDTH 1000 0
DWIDTH 5 0
BBX 4 5 0 -1
BITMAP
E0
90
90
90
20
ENDCHAR
STARTCHAR U+014C
ENCODING 332
SWIDTH 1000 0
DWIDTH 5 0
BBX 4 7 0 0
BITMAP
F0
00
60
90
90
90
60
ENDCHAR
STARTCHAR U+014D
ENCODING 333
SWIDTH 1000 0
DWIDTH 5 0
BBX 4 6 0 0
BITMAP
F0
00
60
90
90
60
ENDCHAR
STARTCHAR U+014E
ENCODING 334
SWIDTH 1000 0
DWIDTH 5 0
BBX 4 7 0 0
BITMAP
90
60
60
90
90
90
60
ENDCHAR
STARTCHAR U+014F
ENCODING 335
SWIDTH 1000 0
DWIDTH 5 0
BBX 4 7 0 0
BITMAP
90
60
00
60
90
90
60
ENDCHAR
STARTCHAR U+0150
ENCODING 336
SWIDTH 1000 0
DWIDTH 5 0
BBX 5 7 0 0
BITMAP
48
90
30
48
48
48
30
ENDCHAR
STARTCHAR U+0151
ENCODING 337
SWIDTH 1000 0
DWIDTH 5 0
BBX 5 7 0 0
BITMAP
48
90
00
30
48
48
30
ENDCHAR
STARTCHAR U+0152
ENCODING 338
SWIDTH 1000 0
DWIDTH 5 0
BBX 4 6 0 0
BITMAP
70
A0
B0
A0
A0
70
ENDCHAR
STARTCHAR U+0153
ENCODING 339
SWIDTH 1000 0
DWIDTH 5 0
BBX 5 4 0 0
BITMAP
70
A8
B0
78
ENDCHAR
STARTCHAR U+0154
ENCODING 340
SWIDTH 1000 0
DWIDTH 5 0
BBX 4 7 0 0
BITMAP
20
40
E0
90
E0
90
90
ENDCHAR
STARTCHAR U+0155
ENCODING 341
SWIDTH 1000 0
DWIDTH 5 0
BBX 4 7 0 0
BITMAP
20
40
00
A0
D0
80
80
ENDCHAR
STARTCHAR U+0156
ENCODING 342
SWIDTH 1000 0
DWIDTH 5 0
BBX 4 7 0 -1
BITMAP
E0
90
90
E0
90
90
20
ENDCHAR
STARTCHAR U+0157
ENCODING 343
SWIDTH 1000 0
DWIDTH 5 0
BBX 5 5 0 -1
BITMAP
50
68
40
40
80
ENDCHAR
STARTCHAR U+0158
ENCODING 344
SWIDTH 1000 0
DWIDTH 5 0
BBX 4 7 0 0
BITMAP
90
60
E0
90
E0
90
90
ENDCHAR
STARTCHAR U+0159
ENCODING 345
SWIDTH 1000 0
DWIDTH 5 0
BBX 4 7 0 0
BITMAP
90
60
00
A0
D0
80
80
ENDCHAR
STARTCHAR U+015A
ENCODING 346
SWIDTH 1000 0
DWIDTH 5 0
BBX 4 7 0 0
BITMAP
20
40
70
80
60
10
E0
ENDCHAR
STARTCHAR U+015B
ENCODING 347
SWIDTH 1000 0
DWIDTH 5 0
BBX 3 7 1 0
BITMAP
20
40
00
60
C0
20
C0
ENDCHAR
STARTCHAR U+015C
ENCODING 348
SWIDTH 1000 0
DWIDTH 5 0
BBX 4 7 0 0
BITMAP
60
90
70
80
60
10
E0
ENDCHAR
STARTCHAR U+015D
ENCODING 349
SWIDTH 1000 0
DWIDTH 5 0
BBX 3 7 1 0
BITMAP
40
A0
00
60
C0
20
C0
ENDCHAR
STARTCHAR U+015E
ENCODING 350
SWIDTH 1000 0
DWIDTH 5 0
BBX 4 7 0 -1
BITMAP
60
90
40
20
90
60
20
ENDCHAR
STARTCHAR U+015F
ENCODING 351
SWIDTH 1000 0
DWIDTH 5 0
BBX 3 5 1 -1
BITMAP
60
C0
20
C0
40
ENDCHAR
STARTCHAR U+0160
ENCODING 352
SWIDTH 1000 0
DWIDTH 5 0
BBX 4 7 0 0
BITMAP
90
60
70
80
60
10
E0
ENDCHAR
STARTCHAR U+0161
ENCODING 353
SWIDTH 1000 0
DWIDTH 5 0
BBX 3 7 1 0
BITMAP
A0
40
00
60
C0
20
C0
ENDCHAR
STARTCHAR U+0162
ENCODING 354
SWIDTH 1000 0
DWIDTH 5 0
BBX 3 7 1 -1
BITMAP
E0
40
40
40
40
40
80
ENDCHAR
STARTCHAR U+0163
ENCODING 355
SWIDTH 1000 0
DWIDTH 5 0
BBX 4 7 0 -1
BITMAP
40
40
E0
40
50
20
40
ENDCHAR
STARTCHAR U+0164
ENCODING 356
SWIDTH 1000 0
DWIDTH 5 0
BBX 3 7 1 0
BITMAP
A0
40
E0
40
40
40
40
ENDCHAR
STARTCHAR U+0165
ENCODING 357
SWIDTH 1000 0
DWIDTH 5 0
BBX 4 7 0 0
BITMAP
A0
40
40
E0
40
50
20
ENDCHAR
STARTCHAR U+0166
ENCODING 358
SWIDTH 1000 0
DWIDTH 5 0
BBX 3 6 1 0
BITMAP
E0
40
E0
40
40
40
ENDCHAR
STARTCHAR U+0167
ENCODING 359
SWIDTH 1000 0
DWIDTH 5 0
BBX 4 7 0 0
BITMAP
40
E0
40
E0
40
50
20
ENDCHAR
STARTCHAR U+0168
ENCODING 360
SWIDTH 1000 0
DWIDTH 5 0
BBX 4 7 0 0
BITMAP
50
A0
00
90
90
90
60
ENDCHAR
STARTCHAR U+0169
ENCODING 361
SWIDTH 1000 0
DWIDTH 5 0
BBX 4 7 0 0
BITMAP
50
A0
00
90
90
90
70
ENDCHAR
STARTCHAR U+016A
ENCODING 362
SWIDTH 1000 0
DWIDTH 5 0
BBX 4 7 0 0
BITMAP
F0
00
90
90
90
90
60
ENDCHAR
STARTCHAR U+016B
ENCODING 363
SWIDTH 1000 0
DWIDTH 5 0
BBX 4 6 0 0
BITMAP
F0
00
90
90
90
70
ENDCHAR
STARTCHAR U+016C
ENCODING 364
SWIDTH 1000 0
DWIDTH 5 0
BBX 4 7 0 0
BITMAP
90
60
00
90
90
90
60
ENDCHAR
STARTCHAR U+016D
ENCODING 365
SWIDTH 1000 0
DWIDTH 5 0
BBX 4 7 0 0
BITMAP
90
60
00
90
90
90
70
ENDCHAR
STARTCHAR U+016E
ENCODING 366
SWIDTH 1000 0
DWIDTH 5 0
BBX 4 7 0 0
BITMAP
20
50
20
90
90
90
60
ENDCHAR
STARTCHAR U+016F
ENCODING 367
SWIDTH 1000 0
DWIDTH 5 0
BBX 4 7 0 0
BITMAP
20
50
20
90
90
90
70
ENDCHAR
STARTCHAR U+0170
ENCODING 368
SWIDTH 1000 0
DWIDTH 5 0
BBX 5 7 0 0
BITMAP
48
90
00
48
48
48
30
ENDCHAR
STARTCHAR U+0171
ENCODING 369
SWIDTH 1000 0
DWIDTH 5 0
BBX 5 7 0 0
BITMAP
48
90
00
48
48
48
38
ENDCHAR
STARTCHAR U+0172
ENCODING 370
SWIDTH 1000 0
DWIDTH 5 0
BBX 4 7 0 -1
BITMAP
90
90
90
90
90
60
20
ENDCHAR
STARTCHAR U+0173
ENCODING 371
SWIDTH 1000 0
DWIDTH 5 0
BBX 4 5 0 -1
BITMAP
90
90
90
70
20
ENDCHAR
STARTCHAR U+0174
ENCODING 372
SWIDTH 1000 0
DWIDTH 5 0
BBX 4 7 0 0
BITMAP
60
00
90
90
F0
F0
90
ENDCHAR
STARTCHAR U+0175
ENCODING 373
SWIDTH 1000 0
DWIDTH 5 0
BBX 5 7 0 0
BITMAP
20
50
00
88
A8
A8
50
ENDCHAR
STARTCHAR U+0176
ENCODING 374
SWIDTH 1000 0
DWIDTH 5 0
BBX 3 7 1 0
BITMAP
40
A0
00
A0
A0
40
40
ENDCHAR
STARTCHAR U+0177
ENCODING 375
SWIDTH 1000 0
DWIDTH 5 0
BBX 4 8 0 -1
BITMAP
60
90
00
90
90
70
90
60
ENDCHAR
STARTCHAR U+0178
ENCODING 376
SWIDTH 1000 0
DWIDTH 5 0
BBX 5 7 0 0
BITMAP
50
00
88
50
20
20
20
ENDCHAR
STARTCHAR U+0179
ENCODING 377
SWIDTH 1000 0
DWIDTH 5 0
BBX 4 7 0 0
BITMAP
20
40
F0
20
40
80
F0
ENDCHAR
STARTCHAR U+017A
ENCODING 378
SWIDTH 1000 0
DWIDTH 5 0
BBX 4 7 0 0
BITMAP
20
40
00
F0
20
40
F0
ENDCHAR
STARTCHAR U+017B
ENCODING 379
SWIDTH 1000 0
DWIDTH 5 0
BBX 4 7 0 0
BITMAP
60
00
F0
20
40
80
F0
ENDCHAR
STARTCHAR U+017C
ENCODING 380
SWIDTH 1000 0
DWIDTH 5 0
BBX 4 6 0 0
BITMAP
60
00
F0
20
40
F0
ENDCHAR
STARTCHAR U+017D
ENCODING 381
SWIDTH 1000 0
DWIDTH 5 0
BBX 4 7 0 0
BITMAP
90
60
F0
20
40
80
F0
ENDCHAR
STARTCHAR U+017E
ENCODING 382
SWIDTH 1000 0
DWIDTH 5 0
BBX 4 7 0 0
BITMAP
90
60
00
F0
20
40
F0
ENDCHAR
STARTCHAR U+017F
ENCODING 383
SWIDTH 1000 0
DWIDTH 5 0
BBX 4 6 0 0
BITMAP
20
50
40
C0
40
40
ENDCHAR
STARTCHAR U+018F
ENCODING 399
SWIDTH 1000 0
DWIDTH 5 0
BBX 4 6 0 0
BITMAP
60
90
10
F0
90
60
ENDCHAR
STARTCHAR U+0192
ENCODING 402
SWIDTH 1000 0
DWIDTH 5 0
BBX 5 7 0 -1
BITMAP
10
28
20
70
20
A0
40
ENDCHAR
STARTCHAR U+01A0
ENCODING 416
SWIDTH 1000 0
DWIDTH 5 0
BBX 5 6 0 0
BITMAP
68
90
90
90
90
60
ENDCHAR
STARTCHAR U+01A1
ENCODING 417
SWIDTH 1000 0
DWIDTH 5 0
BBX 5 4 0 0
BITMAP
68
90
90
60
ENDCHAR
STARTCHAR U+01AF
ENCODING 431
SWIDTH 1000 0
DWIDTH 5 0
BBX 5 6 0 0
BITMAP
A8
B0
A0
A0
A0
40
ENDCHAR
STARTCHAR U+01B0
ENCODING 432
SWIDTH 1000 0
DWIDTH 5 0
BBX 5 4 0 0
BITMAP
A8
B0
A0
60
ENDCHAR
STARTCHAR U+01B5
ENCODING 437
SWIDTH 1000 0
DWIDTH 5 0
BBX 4 6 0 0
BITMAP
F0
10
F0
40
80
F0
ENDCHAR
STARTCHAR U+01B6
ENCODING 438
SWIDTH 1000 0
DWIDTH 5 0
BBX 4 4 0 0
BITMAP
F0
F0
40
F0
ENDCHAR
STARTCHAR U+01D1
ENCODING 465
SWIDTH 1000 0
DWIDTH 5 0
BBX 4 7 0 0
BITMAP
90
60
60
90
90
90
60
ENDCHAR
STARTCHAR U+01D2
ENCODING 466
SWIDTH 1000 0
DWIDTH 5 0
BBX 4 7 0 0
BITMAP
90
60
00
60
90
90
60
ENDCHAR
STARTCHAR U+01E6
ENCODING 486
SWIDTH 1000 0
DWIDTH 5 0
BBX 4 7 0 0
BITMAP
90
60
70
80
B0
90
70
ENDCHAR
STARTCHAR U+01E7
ENCODING 487
SWIDTH 1000 0
DWIDTH 5 0
BBX 4 8 0 -1
BITMAP
90
60
00
60
90
70
10
60
ENDCHAR
STARTCHAR U+01FA
ENCODING 506
SWIDTH 1000 0
DWIDTH 5 0
BBX 4 7 0 0
BITMAP
10
60
90
60
90
F0
90
ENDCHAR
STARTCHAR U+01FB
ENCODING 507
SWIDTH 1000 0
DWIDTH 5 0
BBX 4 7 0 0
BITMAP
10
60
90
60
70
90
70
ENDCHAR
STARTCHAR U+01FC
ENCODING 508
SWIDTH 1000 0
DWIDTH 5 0
BBX 4 7 0 0
BITMAP
10
20
70
A0
F0
A0
B0
ENDCHAR
STARTCHAR U+01FD
ENCODING 509
SWIDTH 1000 0
DWIDTH 5 0
BBX 5 7 0 0
BITMAP
10
20
00
F0
68
B0
78
ENDCHAR
STARTCHAR U+01FE
ENCODING 510
SWIDTH 1000 0
DWIDTH 5 0
BBX 4 7 0 0
BITMAP
10
20
70
B0
D0
D0
E0
ENDCHAR
STARTCHAR U+01FF
ENCODING 511
SWIDTH 1000 0
DWIDTH 5 0
BBX 4 7 0 0
BITMAP
10
20
00
70
B0
D0
E0
ENDCHAR
STARTCHAR U+0218
ENCODING 536
SWIDTH 1000 0
DWIDTH 5 0
BBX 4 7 0 -1
BITMAP
60
90
40
20
90
60
20
ENDCHAR
STARTCHAR U+0219
ENCODING 537
SWIDTH 1000 0
DWIDTH 5 0
BBX 3 5 1 -1
BITMAP
60
C0
20
C0
40
ENDCHAR
STARTCHAR U+021A
ENCODING 538
SWIDTH 1000 0
DWIDTH 5 0
BBX 3 7 1 -1
BITMAP
E0
40
40
40
40
40
80
ENDCHAR
STARTCHAR U+021B
ENCODING 539
SWIDTH 1000 0
DWIDTH 5 0
BBX 4 7 0 -1
BITMAP
40
40
E0
40
50
20
40
ENDCHAR
STARTCHAR U+0259
ENCODING 601
SWIDTH 1000 0
DWIDTH 5 0
BBX 4 4 0 0
BITMAP
60
30
D0
60
ENDCHAR
STARTCHAR U+02BB
ENCODING 699
SWIDTH 1000 0
DWIDTH 5 0
BBX 2 3 1 3
BITMAP
40
80
C0
ENDCHAR
STARTCHAR U+02BC
ENCODING 700
SWIDTH 1000 0
DWIDTH 5 0
BBX 2 3 1 3
BITMAP
C0
40
80
ENDCHAR
STARTCHAR U+02BD
ENCODING 701
SWIDTH 1000 0
DWIDTH 5 0
BBX 2 3 1 3
BITMAP
C0
80
40
ENDCHAR
STARTCHAR U+02BE
ENCODING 702
SWIDTH 1000 0
DWIDTH 5 0
BBX 2 3 1 3
BITMAP
80
40
80
ENDCHAR
STARTCHAR U+02BF
ENCODING 703
SWIDTH 1000 0
DWIDTH 5 0
BBX 2 3 1 3
BITMAP
40
80
40
ENDCHAR
STARTCHAR U+02C6
ENCODING 710
SWIDTH 1000 0
DWIDTH 5 0
BBX 3 2 1 5
BITMAP
40
A0
ENDCHAR
STARTCHAR U+02C7
ENCODING 711
SWIDTH 1000 0
DWIDTH 5 0
BBX 3 2 1 5
BITMAP
A0
40
ENDCHAR
STARTCHAR U+02C9
ENCODING 713
SWIDTH 1000 0
DWIDTH 5 0
BBX 3 1 1 5
BITMAP
E0
ENDCHAR
STARTCHAR U+02D8
ENCODING 728
SWIDTH 1000 0
DWIDTH 5 0
BBX 5 2 0 5
BITMAP
88
70
ENDCHAR
STARTCHAR U+02D9
ENCODING 729
SWIDTH 1000 0
DWIDTH 5 0
BBX 1 1 2 6
BITMAP
80
ENDCHAR
STARTCHAR U+02DA
ENCODING 730
SWIDTH 1000 0
DWIDTH 5 0
BBX 3 3 1 4
BITMAP
40
A0
40
ENDCHAR
STARTCHAR U+02DB
ENCODING 731
SWIDTH 1000 0
DWIDTH 5 0
BBX 2 2 1 -1
BITMAP
80
C0
ENDCHAR
STARTCHAR U+02DC
ENCODING 732
SWIDTH 1000 0
DWIDTH 5 0
BBX 4 2 0 4
BITMAP
50
A0
ENDCHAR
STARTCHAR U+02DD
ENCODING 733
SWIDTH 1000 0
DWIDTH 5 0
BBX 5 2 0 5
BITMAP
48
90
ENDCHAR
STARTCHAR U+0300
ENCODING 768
SWIDTH 1000 0
DWIDTH 5 0
BBX 2 2 1 5
BITMAP
80
40
ENDCHAR
STARTCHAR U+0301
ENCODING 769
SWIDTH 1000 0
DWIDTH 5 0
BBX 2 2 1 5
BITMAP
40
80
ENDCHAR
STARTCHAR U+0302
ENCODING 770
SWIDTH 1000 0
DWIDTH 5 0
BBX 3 2 1 5
BITMAP
40
A0
ENDCHAR
STARTCHAR U+0303
ENCODING 771
SWIDTH 1000 0
DWIDTH 5 0
BBX 4 2 0 5
BITMAP
50
A0
ENDCHAR
STARTCHAR U+0304
ENCODING 772
SWIDTH 1000 0
DWIDTH 5 0
BBX 4 1 0 6
BITMAP
F0
ENDCHAR
STARTCHAR U+0305
ENCODING 773
SWIDTH 1000 0
DWIDTH 5 0
BBX 5 1 0 6
BITMAP
F8
ENDCHAR
STARTCHAR U+0306
ENCODING 774
SWIDTH 1000 0
DWIDTH 5 0
BBX 4 2 0 5
BITMAP
90
60
ENDCHAR
STARTCHAR U+0307
ENCODING 775
SWIDTH 1000 0
DWIDTH 5 0
BBX 1 1 2 6
BITMAP
80
ENDCHAR
STARTCHAR U+0308
ENCODING 776
SWIDTH 1000 0
DWIDTH 5 0
BBX 3 1 1 6
BITMAP
A0
ENDCHAR
STARTCHAR U+0309
ENCODING 777
SWIDTH 1000 0
DWIDTH 5 0
BBX 2 2 1 5
BITMAP
C0
40
ENDCHAR
STARTCHAR U+030A
ENCODING 778
SWIDTH 1000 0
DWIDTH 5 0
BBX 4 3 0 4
BITMAP
60
90
60
ENDCHAR
STARTCHAR U+030B
ENCODING 779
SWIDTH 1000 0
DWIDTH 5 0
BBX 5 2 0 5
BITMAP
48
90
ENDCHAR
STARTCHAR U+030C
ENCODING 780
SWIDTH 1000 0
DWIDTH 5 0
BBX 3 2 1 5
BITMAP
A0
40
ENDCHAR
STARTCHAR U+030D
ENCODING 781
SWIDTH 1000 0
DWIDTH 5 0
BBX 1 2 2 5
BITMAP
80
80
ENDCHAR
STARTCHAR U+030E
ENCODING 782
SWIDTH 1000 0
DWIDTH 5 0
BBX 3 2 1 5
BITMAP
A0
A0
ENDCHAR
STARTCHAR U+030F
ENCODING 783
SWIDTH 1000 0
DWIDTH 5 0
BBX 5 2 0 5
BITMAP
90
48
ENDCHAR
STARTCHAR U+0310
ENCODING 784
SWIDTH 1000 0
DWIDTH 5 0
BBX 5 2 0 5
BITMAP
A8
70
ENDCHAR
STARTCHAR U+0311
ENCODING 785
SWIDTH 1000 0
DWIDTH 5 0
BBX 4 2 0 5
BITMAP
60
90
ENDCHAR
STARTCHAR U+0312
ENCODING 786
SWIDTH 1000 0
DWIDTH 5 0
BBX 2 3 1 4
BITMAP
40
80
C0
ENDCHAR
STARTCHAR U+0313
ENCODING 787
SWIDTH 1000 0
DWIDTH 5 0
BBX 2 3 1 4
BITMAP
C0
40
80
ENDCHAR
STARTCHAR U+0314
ENCODING 788
SWIDTH 1000 0
DWIDTH 5 0
BBX 2 3 1 4
BITMAP
C0
80
40
ENDCHAR
STARTCHAR U+0315
ENCODING 789
SWIDTH 1000 0
DWIDTH 5 0
BBX 2 3 3 4
BITMAP
C0
40
80
ENDCHAR
STARTCHAR U+0323
ENCODING 803
SWIDTH 1000 0
DWIDTH 5 0
BBX 1 1 2 -1
BITMAP
80
ENDCHAR
STARTCHAR U+0324
ENCODING 804
SWIDTH 1000 0
DWIDTH 5 0
BBX 3 1 1 -1
BITMAP
A0
ENDCHAR
STARTCHAR U+0331
ENCODING 817
SWIDTH 1000 0
DWIDTH 5 0
BBX 4 1 0 -1
BITMAP
F0
ENDCHAR
STARTCHAR U+0332
ENCODING 818
SWIDTH 1000 0
DWIDTH 5 0
BBX 5 1 0 -1
BITMAP
F8
ENDCHAR
STARTCHAR U+0338
ENCODING 824
SWIDTH 1000 0
DWIDTH 5 0
BBX 4 6 0 0
BITMAP
10
20
20
40
40
80
ENDCHAR
STARTCHAR U+0340
ENCODING 832
SWIDTH 1000 0
DWIDTH 5 0
BBX 2 2 1 5
BITMAP
80
40
ENDCHAR
STARTCHAR U+0341
ENCODING 833
SWIDTH 1000 0
DWIDTH 5 0
BBX 2 2 1 5
BITMAP
40
80
ENDCHAR
STARTCHAR U+0374
ENCODING 884
SWIDTH 1000 0
DWIDTH 5 0
BBX 2 2 1 5
BITMAP
40
80
ENDCHAR
STARTCHAR U+0375
ENCODING 885
SWIDTH 1000 0
DWIDTH 5 0
BBX 2 2 1 -1
BITMAP
40
80
ENDCHAR
STARTCHAR U+037A
ENCODING 890
SWIDTH 1000 0
DWIDTH 5 0
BBX 2 2 1 -1
BITMAP
80
C0
ENDCHAR
STARTCHAR U+037E
ENCODING 894
SWIDTH 1000 0
DWIDTH 5 0
BBX 3 6 1 -1
BITMAP
60
60
00
60
40
80
ENDCHAR
STARTCHAR U+0384
ENCODING 900
SWIDTH 1000 0
DWIDTH 5 0
BBX 2 2 1 5
BITMAP
40
80
ENDCHAR
STARTCHAR U+0385
ENCODING 901
SWIDTH 1000 0
DWIDTH 5 0
BBX 3 3 1 4
BITMAP
20
40
A0
ENDCHAR
STARTCHAR U+0386
ENCODING 902
SWIDTH 1000 0
DWIDTH 5 0
BBX 4 7 0 0
BITMAP
20
40
60
90
F0
90
90
ENDCHAR
STARTCHAR U+0387
ENCODING 903
SWIDTH 1000 0
DWIDTH 5 0
BBX 1 1 2 3
BITMAP
80
ENDCHAR
STARTCHAR U+0388
ENCODING 904
SWIDTH 1000 0
DWIDTH 5 0
BBX 4 7 0 0
BITMAP
20
40
F0
80
E0
80
F0
ENDCHAR
STARTCHAR U+0389
ENCODING 905
SWIDTH 1000 0
DWIDTH 5 0
BBX 4 7 0 0
BITMAP
20
40
90
90
F0
90
90
ENDCHAR
STARTCHAR U+038A
ENCODING 906
SWIDTH 1000 0
DWIDTH 5 0
BBX 3 7 1 0
BITMAP
20
40
E0
40
40
40
E0
ENDCHAR
STARTCHAR U+038C
ENCODING 908
SWIDTH 1000 0
DWIDTH 5 0
BBX 4 7 0 0
BITMAP
20
40
60
90
90
90
60
ENDCHAR
STARTCHAR U+038E
ENCODING 910
SWIDTH 1000 0
DWIDTH 5 0
BBX 5 7 0 0
BITMAP
10
20
88
50
20
20
20
ENDCHAR
STARTCHAR U+038F
ENCODING 911
SWIDTH 1000 0
DWIDTH 5 0
BBX 5 7 0 0
BITMAP
10
20
70
88
88
50
D8
ENDCHAR
STARTCHAR U+0390
ENCODING 912
SWIDTH 1000 0
DWIDTH 5 0
BBX 4 7 0 0
BITMAP
20
40
A0
40
40
50
20
ENDCHAR
STARTCHAR U+0391
ENCODING 913
SWIDTH 1000 0
DWIDTH 5 0
BBX 4 6 0 0
BITMAP
60
90
90
F0
90
90
ENDCHAR
STARTCHAR U+0392
ENCODING 914
SWIDTH 1000 0
DWIDTH 5 0
BBX 4 6 0 0
BITMAP
E0
90
E0
90
90
E0
ENDCHAR
STARTCHAR U+0393
ENCODING 915
SWIDTH 1000 0
DWIDTH 5 0
BBX 4 6 0 0
BITMAP
F0
80
80
80
80
80
ENDCHAR
STARTCHAR U+0394
ENCODING 916
SWIDTH 1000 0
DWIDTH 5 0
BBX 5 6 0 0
BITMAP
20
20
50
50
88
F8
ENDCHAR
STARTCHAR U+0395
ENCODING 917
SWIDTH 1000 0
DWIDTH 5 0
BBX 4 6 0 0
BITMAP
F0
80
E0
80
80
F0
ENDCHAR
STARTCHAR U+0396
ENCODING 918
SWIDTH 1000 0
DWIDTH 5 0
BBX 4 6 0 0
BITMAP
F0
10
20
40
80
F0
ENDCHAR
STARTCHAR U+0397
ENCODING 919
SWIDTH 1000 0
DWIDTH 5 0
BBX 4 6 0 0
BITMAP
90
90
F0
90
90
90
ENDCHAR
STARTCHAR U+0398
ENCODING 920
SWIDTH 1000 0
DWIDTH 5 0
BBX 4 6 0 0
BITMAP
60
90
F0
90
90
60
ENDCHAR
STARTCHAR U+0399
ENCODING 921
SWIDTH 1000 0
DWIDTH 5 0
BBX 3 6 1 0
BITMAP
E0
40
40
40
40
E0
ENDCHAR
STARTCHAR U+039A
ENCODING 922
SWIDTH 1000 0
DWIDTH 5 0
BBX 4 6 0 0
BITMAP
90
A0
C0
A0
A0
90
ENDCHAR
STARTCHAR U+039B
ENCODING 923
SWIDTH 1000 0
DWIDTH 5 0
BBX 4 6 0 0
BITMAP
60
60
90
90
90
90
ENDCHAR
STARTCHAR U+039C
ENCODING 924
SWIDTH 1000 0
DWIDTH 5 0
BBX 4 6 0 0
BITMAP
90
F0
F0
90
90
90
ENDCHAR
STARTCHAR U+039D
ENCODING 925
SWIDTH 1000 0
DWIDTH 5 0
BBX 4 6 0 0
BITMAP
90
D0
F0
B0
B0
90
ENDCHAR
STARTCHAR U+039E
ENCODING 926
SWIDTH 1000 0
DWIDTH 5 0
BBX 4 6 0 0
BITMAP
F0
00
60
00
00
F0
ENDCHAR
STARTCHAR U+039F
ENCODING 927
SWIDTH 1000 0
DWIDTH 5 0
BBX 4 6 0 0
BITMAP
60
90
90
90
90
60
ENDCHAR
STARTCHAR U+03A0
ENCODING 928
SWIDTH 1000 0
DWIDTH 5 0
BBX 4 6 0 0
BITMAP
F0
90
90
90
90
90
ENDCHAR
STARTCHAR U+03A1
ENCODING 929
SWIDTH 1000 0
DWIDTH 5 0
BBX 4 6 0 0
BITMAP
E0
90
90
E0
80
80
ENDCHAR
STARTCHAR U+03A3
ENCODING 931
SWIDTH 1000 0
DWIDTH 5 0
BBX 4 6 0 0
BITMAP
F0
80
40
40
80
F0
ENDCHAR
STARTCHAR U+03A4
ENCODING 932
SWIDTH 1000 0
DWIDTH 5 0
BBX 3 6 1 0
BITMAP
E0
40
40
40
40
40
ENDCHAR
STARTCHAR U+03A5
ENCODING 933
SWIDTH 1000 0
DWIDTH 5 0
BBX 5 6 0 0
BITMAP
88
88
50
20
20
20
ENDCHAR
STARTCHAR U+03A6
ENCODING 934
SWIDTH 1000 0
DWIDTH 5 0
BBX 5 6 0 0
BITMAP
20
70
A8
A8
70
20
ENDCHAR
STARTCHAR U+03A7
ENCODING 935
SWIDTH 1000 0
DWIDTH 5 0
BBX 4 6 0 0
BITMAP
90
90
60
60
90
90
ENDCHAR
STARTCHAR U+03A8
ENCODING 936
SWIDTH 1000 0
DWIDTH 5 0
BBX 5 6 0 0
BITMAP
A8
A8
70
20
20
20
ENDCHAR
STARTCHAR U+03A9
ENCODING 937
SWIDTH 1000 0
DWIDTH 5 0
BBX 5 6 0 0
BITMAP
70
88
88
88
50
D8
ENDCHAR
STARTCHAR U+03AA
ENCODING 938
SWIDTH 1000 0
DWIDTH 5 0
BBX 3 7 1 0
BITMAP
A0
00
E0
40
40
40
E0
ENDCHAR
STARTCHAR U+03AB
ENCODING 939
SWIDTH 1000 0
DWIDTH 5 0
BBX 3 7 1 0
BITMAP
A0
00
A0
A0
40
40
40
ENDCHAR
STARTCHAR U+03AC
ENCODING 940
SWIDTH 1000 0
DWIDTH 5 0
BBX 4 7 0 0
BITMAP
20
40
00
70
90
90
70
ENDCHAR
STARTCHAR U+03AD
ENCODING 941
SWIDTH 1000 0
DWIDTH 5 0
BBX 4 7 0 0
BITMAP
20
40
00
70
E0
80
70
ENDCHAR
STARTCHAR U+03AE
ENCODING 942
SWIDTH 1000 0
DWIDTH 5 0
BBX 4 8 0 -1
BITMAP
20
40
00
A0
D0
90
90
10
ENDCHAR
STARTCHAR U+03AF
ENCODING 943
SWIDTH 1000 0
DWIDTH 5 0
BBX 3 7 1 0
BITMAP
40
80
00
80
80
A0
40
ENDCHAR
STARTCHAR U+03B0
ENCODING 944
SWIDTH 1000 0
DWIDTH 5 0
BBX 4 7 0 0
BITMAP
20
D0
00
90
90
90
60
ENDCHAR
STARTCHAR U+03B1
ENCODING 945
SWIDTH 1000 0
DWIDTH 5 0
BBX 4 4 0 0
BITMAP
70
90
90
70
ENDCHAR
STARTCHAR U+03B2
ENCODING 946
SWIDTH 1000 0
DWIDTH 5 0
BBX 4 7 0 -1
BITMAP
60
90
E0
90
90
E0
80
ENDCHAR
STARTCHAR U+03B3
ENCODING 947
SWIDTH 1000 0
DWIDTH 5 0
BBX 3 5 1 -1
BITMAP
A0
A0
A0
40
40
ENDCHAR
STARTCHAR U+03B4
ENCODING 948
SWIDTH 1000 0
DWIDTH 5 0
BBX 4 6 0 0
BITMAP
60
80
60
90
90
60
ENDCHAR
STARTCHAR U+03B5
ENCODING 949
SWIDTH 1000 0
DWIDTH 5 0
BBX 4 4 0 0
BITMAP
70
E0
80
70
ENDCHAR
STARTCHAR U+03B6
ENCODING 950
SWIDTH 1000 0
DWIDTH 5 0
BBX 4 6 0 -1
BITMAP
F0
40
80
60
10
20
ENDCHAR
STARTCHAR U+03B7
ENCODING 951
SWIDTH 1000 0
DWIDTH 5 0
BBX 4 5 0 -1
BITMAP
A0
D0
90
90
10
ENDCHAR
STARTCHAR U+03B8
ENCODING 952
SWIDTH 1000 0
DWIDTH 5 0
BBX 4 6 0 0
BITMAP
60
90
F0
90
90
60
ENDCHAR
STARTCHAR U+03B9
ENCODING 953
SWIDTH 1000 0
DWIDTH 5 0
BBX 3 4 1 0
BITMAP
80
80
A0
40
ENDCHAR
STARTCHAR U+03BA
ENCODING 954
SWIDTH 1000 0
DWIDTH 5 0
BBX 4 4 0 0
BITMAP
90
E0
A0
90
ENDCHAR
STARTCHAR U+03BB
ENCODING 955
SWIDTH 1000 0
DWIDTH 5 0
BBX 4 6 0 0
BITMAP
E0
10
70
90
90
90
ENDCHAR
STARTCHAR U+03BC
ENCODING 956
SWIDTH 1000 0
DWIDTH 5 0
BBX 4 5 0 -1
BITMAP
90
90
90
E0
80
ENDCHAR
STARTCHAR U+03BD
ENCODING 957
SWIDTH 1000 0
DWIDTH 5 0
BBX 3 4 1 0
BITMAP
A0
A0
40
40
ENDCHAR
STARTCHAR U+03BE
ENCODING 958
SWIDTH 1000 0
DWIDTH 5 0
BBX 4 7 0 -1
BITMAP
F0
40
60
80
60
10
60
ENDCHAR
STARTCHAR U+03BF
ENCODING 959
SWIDTH 1000 0
DWIDTH 5 0
BBX 4 4 0 0
BITMAP
60
90
90
60
ENDCHAR
STARTCHAR U+03C0
ENCODING 960
SWIDTH 1000 0
DWIDTH 5 0
BBX 5 4 0 0
BITMAP
F8
50
50
50
ENDCHAR
STARTCHAR U+03C1
ENCODING 961
SWIDTH 1000 0
DWIDTH 5 0
BBX 4 5 0 -1
BITMAP
60
90
90
E0
80
ENDCHAR
STARTCHAR U+03C2
ENCODING 962
SWIDTH 1000 0
DWIDTH 5 0
BBX 4 5 0 -1
BITMAP
60
80
60
10
60
ENDCHAR
STARTCHAR U+03C3
ENCODING 963
SWIDTH 1000 0
DWIDTH 5 0
BBX 4 4 0 0
BITMAP
70
90
90
60
ENDCHAR
STARTCHAR U+03C4
ENCODING 964
SWIDTH 1000 0
DWIDTH 5 0
BBX 4 4 0 0
BITMAP
F0
40
50
20
ENDCHAR
STARTCHAR U+03C5
ENCODING 965
SWIDTH 1000 0
DWIDTH 5 0
BBX 4 4 0 0
BITMAP
90
90
90
60
ENDCHAR
STARTCHAR U+03C6
ENCODING 966
SWIDTH 1000 0
DWIDTH 5 0
BBX 5 5 0 -1
BITMAP
B0
A8
A8
70
20
ENDCHAR
STARTCHAR U+03C7
ENCODING 967
SWIDTH 1000 0
DWIDTH 5 0
BBX 3 5 1 -1
BITMAP
A0
A0
40
A0
A0
ENDCHAR
STARTCHAR U+03C8
ENCODING 968
SWIDTH 1000 0
DWIDTH 5 0
BBX 5 5 0 -1
BITMAP
A8
A8
70
20
20
ENDCHAR
STARTCHAR U+03C9
ENCODING 969
SWIDTH 1000 0
DWIDTH 5 0
BBX 5 4 0 0
BITMAP
88
A8
A8
50
ENDCHAR
STARTCHAR U+03CA
ENCODING 970
SWIDTH 1000 0
DWIDTH 5 0
BBX 4 6 0 0
BITMAP
A0
00
40
40
50
20
ENDCHAR
STARTCHAR U+03CB
ENCODING 971
SWIDTH 1000 0
DWIDTH 5 0
BBX 4 6 0 0
BITMAP
90
00
90
90
90
60
ENDCHAR
STARTCHAR U+03CC
ENCODING 972
SWIDTH 1000 0
DWIDTH 5 0
BBX 4 7 0 0
BITMAP
20
40
00
60
90
90
60
ENDCHAR
STARTCHAR U+03CD
ENCODING 973
SWIDTH 1000 0
DWIDTH 5 0
BBX 4 7 0 0
BITMAP
20
40
00
90
90
90
60
ENDCHAR
STARTCHAR U+03CE
ENCODING 974
SWIDTH 1000 0
DWIDTH 5 0
BBX 5 7 0 0
BITMAP
10
20
00
88
A8
A8
50
ENDCHAR
STARTCHAR U+03D1
ENCODING 977
SWIDTH 1000 0
DWIDTH 5 0
BBX 5 6 0 0
BITMAP
60
90
78
10
90
60
ENDCHAR
STARTCHAR U+03D2
ENCODING 978
SWIDTH 1000 0
DWIDTH 5 0
BBX 5 6 0 0
BITMAP
90
68
20
20
20
20
ENDCHAR
STARTCHAR U+03D3
ENCODING 979
SWIDTH 1000 0
DWIDTH 5 0
BBX 5 6 0 0
BITMAP
D0
28
A0
A0
20
20
ENDCHAR
STARTCHAR U+03D4
ENCODING 980
SWIDTH 1000 0
DWIDTH 5 0
BBX 5 7 0 0
BITMAP
90
00
90
68
20
20
20
ENDCHAR
STARTCHAR U+03D5
ENCODING 981
SWIDTH 1000 0
DWIDTH 5 0
BBX 5 7 0 -1
BITMAP
20
70
A8
A8
A8
70
20
ENDCHAR
STARTCHAR U+03D6
ENCODING 982
SWIDTH 1000 0
DWIDTH 5 0
BBX 5 4 0 0
BITMAP
F8
88
A8
50
ENDCHAR
STARTCHAR U+03DE
ENCODING 990
SWIDTH 1000 0
DWIDTH 5 0
BBX 4 6 0 0
BITMAP
80
90
B0
D0
90
10
ENDCHAR
STARTCHAR U+03DF
ENCODING 991
SWIDTH 1000 0
DWIDTH 5 0
BBX 4 6 0 0
BITMAP
20
40
F0
10
20
40
ENDCHAR
STARTCHAR U+03E9
ENCODING 1001
SWIDTH 1000 0
DWIDTH 5 0
BBX 4 5 0 -1
BITMAP
60
90
60
80
70
ENDCHAR
STARTCHAR U+03F0
ENCODING 1008
SWIDTH 1000 0
DWIDTH 5 0
BBX 4 4 0 0
BITMAP
90
50
60
90
ENDCHAR
STARTCHAR U+03F1
ENCODING 1009
SWIDTH 1000 0
DWIDTH 5 0
BBX 4 5 0 -1
BITMAP
60
90
E0
80
70
ENDCHAR
STARTCHAR U+03F2
ENCODING 1010
SWIDTH 1000 0
DWIDTH 5 0
BBX 4 4 0 0
BITMAP
70
80
80
70
ENDCHAR
STARTCHAR U+03F3
ENCODING 1011
SWIDTH 1000 0
DWIDTH 5 0
BBX 4 7 0 -1
BITMAP
10
00
30
10
10
90
60
ENDCHAR
STARTCHAR U+03F4
ENCODING 1012
SWIDTH 1000 0
DWIDTH 5 0
BBX 4 6 0 0
BITMAP
60
90
F0
90
90
60
ENDCHAR
STARTCHAR U+03F5
ENCODING 1013
SWIDTH 1000 0
DWIDTH 5 0
BBX 4 4 0 0
BITMAP
70
E0
80
70
ENDCHAR
STARTCHAR U+0401
ENCODING 1025
SWIDTH 1000 0
DWIDTH 5 0
BBX 4 6 0 0
BITMAP
F0
80
E0
80
80
F0
ENDCHAR
STARTCHAR U+0402
ENCODING 1026
SWIDTH 1000 0
DWIDTH 5 0
BBX 4 7 0 -1
BITMAP
E0
40
60
50
50
10
20
ENDCHAR
STARTCHAR U+0403
ENCODING 1027
SWIDTH 1000 0
DWIDTH 5 0
BBX 4 6 0 0
BITMAP
F0
80
80
80
80
80
ENDCHAR
STARTCHAR U+0404
ENCODING 1028
SWIDTH 1000 0
DWIDTH 5 0
BBX 4 6 0 0
BITMAP
60
90
C0
80
90
60
ENDCHAR
STARTCHAR U+0405
ENCODING 1029
SWIDTH 1000 0
DWIDTH 5 0
BBX 4 6 0 0
BITMAP
60
90
40
20
90
60
ENDCHAR
STARTCHAR U+0406
ENCODING 1030
SWIDTH 1000 0
DWIDTH 5 0
BBX 3 6 1 0
BITMAP
E0
40
40
40
40
E0
ENDCHAR
STARTCHAR U+0407
ENCODING 1031
SWIDTH 1000 0
DWIDTH 5 0
BBX 3 6 1 0
BITMAP
E0
40
40
40
40
E0
ENDCHAR
STARTCHAR U+0408
ENCODING 1032
SWIDTH 1000 0
DWIDTH 5 0
BBX 4 6 0 0
BITMAP
10
10
10
10
90
60
ENDCHAR
STARTCHAR U+0409
ENCODING 1033
SWIDTH 1000 0
DWIDTH 5 0
BBX 5 6 0 0
BITMAP
60
A0
B0
A8
A8
B0
ENDCHAR
STARTCHAR U+040A
ENCODING 1034
SWIDTH 1000 0
DWIDTH 5 0
BBX 5 6 0 0
BITMAP
A0
A0
F0
A8
A8
B0
ENDCHAR
STARTCHAR U+040B
ENCODING 1035
SWIDTH 1000 0
DWIDTH 5 0
BBX 4 6 0 0
BITMAP
E0
40
60
50
50
50
ENDCHAR
STARTCHAR U+040C
ENCODING 1036
SWIDTH 1000 0
DWIDTH 5 0
BBX 4 6 0 0
BITMAP
90
A0
C0
C0
A0
90
ENDCHAR
STARTCHAR U+040D
ENCODING 1037
SWIDTH 1000 0
DWIDTH 5 0
BBX 0 0 0 0
BITMAP
ENDCHAR
STARTCHAR U+040E
ENCODING 1038
SWIDTH 1000 0
DWIDTH 5 0
BBX 3 6 1 0
BITMAP
A0
A0
A0
40
40
80
ENDCHAR
STARTCHAR U+040F
ENCODING 1039
SWIDTH 1000 0
DWIDTH 5 0
BBX 3 7 1 -1
BITMAP
A0
A0
A0
A0
A0
E0
40
ENDCHAR
STARTCHAR U+0410
ENCODING 1040
SWIDTH 1000 0
DWIDTH 5 0
BBX 4 6 0 0
BITMAP
60
90
90
F0
90
90
ENDCHAR
STARTCHAR U+0411
ENCODING 1041
SWIDTH 1000 0
DWIDTH 5 0
BBX 4 6 0 0
BITMAP
E0
80
E0
90
90
E0
ENDCHAR
STARTCHAR U+0412
ENCODING 1042
SWIDTH 1000 0
DWIDTH 5 0
BBX 4 6 0 0
BITMAP
E0
90
E0
90
90
E0
ENDCHAR
STARTCHAR U+0413
ENCODING 1043
SWIDTH 1000 0
DWIDTH 5 0
BBX 4 6 0 0
BITMAP
F0
90
80
80
80
80
ENDCHAR
STARTCHAR U+0414
ENCODING 1044
SWIDTH 1000 0
DWIDTH 5 0
BBX 4 7 0 -1
BITMAP
60
A0
A0
A0
A0
F0
90
ENDCHAR
STARTCHAR U+0415
ENCODING 1045
SWIDTH 1000 0
DWIDTH 5 0
BBX 4 6 0 0
BITMAP
F0
80
E0
80
80
F0
ENDCHAR
STARTCHAR U+0416
ENCODING 1046
SWIDTH 1000 0
DWIDTH 5 0
BBX 5 6 0 0
BITMAP
A8
A8
70
A8
A8
A8
ENDCHAR
STARTCHAR U+0417
ENCODING 1047
SWIDTH 1000 0
DWIDTH 5 0
BBX 4 6 0 0
BITMAP
60
90
20
10
90
60
ENDCHAR
STARTCHAR U+0418
ENCODING 1048
SWIDTH 1000 0
DWIDTH 5 0
BBX 4 6 0 0
BITMAP
90
90
B0
D0
90
90
ENDCHAR
STARTCHAR U+0419
ENCODING 1049
SWIDTH 1000 0
DWIDTH 5 0
BBX 4 7 0 0
BITMAP
90
60
90
B0
D0
90
90
ENDCHAR
STARTCHAR U+041A
ENCODING 1050
SWIDTH 1000 0
DWIDTH 5 0
BBX 4 6 0 0
BITMAP
90
A0
C0
A0
90
90
ENDCHAR
STARTCHAR U+041B
ENCODING 1051
SWIDTH 1000 0
DWIDTH 5 0
BBX 4 6 0 0
BITMAP
30
50
50
50
50
90
ENDCHAR
STARTCHAR U+041C
ENCODING 1052
SWIDTH 1000 0
DWIDTH 5 0
BBX 4 6 0 0
BITMAP
90
F0
F0
90
90
90
ENDCHAR
STARTCHAR U+041D
ENCODING 1053
SWIDTH 1000 0
DWIDTH 5 0
BBX 4 6 0 0
BITMAP
90
90
F0
90
90
90
ENDCHAR
STARTCHAR U+041E
ENCODING 1054
SWIDTH 1000 0
DWIDTH 5 0
BBX 4 6 0 0
BITMAP
60
90
90
90
90
60
ENDCHAR
STARTCHAR U+041F
ENCODING 1055
SWIDTH 1000 0
DWIDTH 5 0
BBX 4 6 0 0
BITMAP
F0
90
90
90
90
90
ENDCHAR
STARTCHAR U+0420
ENCODING 1056
SWIDTH 1000 0
DWIDTH 5 0
BBX 4 6 0 0
BITMAP
E0
90
90
E0
80
80
ENDCHAR
STARTCHAR U+0421
ENCODING 1057
SWIDTH 1000 0
DWIDTH 5 0
BBX 4 6 0 0
BITMAP
60
90
80
80
90
60
ENDCHAR
STARTCHAR U+0422
ENCODING 1058
SWIDTH 1000 0
DWIDTH 5 0
BBX 3 6 1 0
BITMAP
E0
40
40
40
40
40
ENDCHAR
STARTCHAR U+0423
ENCODING 1059
SWIDTH 1000 0
DWIDTH 5 0
BBX 4 6 0 0
BITMAP
90
90
90
70
10
E0
ENDCHAR
STARTCHAR U+0424
ENCODING 1060
SWIDTH 1000 0
DWIDTH 5 0
BBX 5 6 0 0
BITMAP
20
70
A8
A8
70
20
ENDCHAR
STARTCHAR U+0425
ENCODING 1061
SWIDTH 1000 0
DWIDTH 5 0
BBX 3 6 1 0
BITMAP
A0
A0
40
40
A0
A0
ENDCHAR
STARTCHAR U+0426
ENCODING 1062
SWIDTH 1000 0
DWIDTH 5 0
BBX 4 7 0 -1
BITMAP
A0
A0
A0
A0
A0
F0
10
ENDCHAR
STARTCHAR U+0427
ENCODING 1063
SWIDTH 1000 0
DWIDTH 5 0
BBX 3 6 1 0
BITMAP
A0
A0
A0
60
20
20
ENDCHAR
STARTCHAR U+0428
ENCODING 1064
SWIDTH 1000 0
DWIDTH 5 0
BBX 5 6 0 0
BITMAP
A8
A8
A8
A8
A8
F8
ENDCHAR
STARTCHAR U+0429
ENCODING 1065
SWIDTH 1000 0
DWIDTH 5 0
BBX 5 7 0 -1
BITMAP
A8
A8
A8
A8
A8
F8
08
ENDCHAR
STARTCHAR U+042A
ENCODING 1066
SWIDTH 1000 0
DWIDTH 5 0
BBX 5 6 0 0
BITMAP
E0
20
30
28
28
30
ENDCHAR
STARTCHAR U+042B
ENCODING 1067
SWIDTH 1000 0
DWIDTH 5 0
BBX 5 6 0 0
BITMAP
88
88
C8
A8
A8
C8
ENDCHAR
STARTCHAR U+042C
ENCODING 1068
SWIDTH 1000 0
DWIDTH 5 0
BBX 3 6 1 0
BITMAP
80
80
C0
A0
A0
C0
ENDCHAR
STARTCHAR U+042D
ENCODING 1069
SWIDTH 1000 0
DWIDTH 5 0
BBX 4 6 0 0
BITMAP
E0
10
70
10
10
E0
ENDCHAR
STARTCHAR U+042E
ENCODING 1070
SWIDTH 1000 0
DWIDTH 5 0
BBX 5 6 0 0
BITMAP
90
A8
E8
A8
A8
90
ENDCHAR
STARTCHAR U+042F
ENCODING 1071
SWIDTH 1000 0
DWIDTH 5 0
BBX 4 6 0 0
BITMAP
70
90
90
70
90
90
ENDCHAR
STARTCHAR U+0430
ENCODING 1072
SWIDTH 1000 0
DWIDTH 5 0
BBX 4 4 0 0
BITMAP
70
90
90
70
ENDCHAR
STARTCHAR U+0431
ENCODING 1073
SWIDTH 1000 0
DWIDTH 5 0
BBX 4 6 0 0
BITMAP
60
80
E0
90
90
60
ENDCHAR
STARTCHAR U+0432
ENCODING 1074
SWIDTH 1000 0
DWIDTH 5 0
BBX 4 4 0 0
BITMAP
E0
E0
90
E0
ENDCHAR
STARTCHAR U+0433
ENCODING 1075
SWIDTH 1000 0
DWIDTH 5 0
BBX 3 4 1 0
BITMAP
E0
80
80
80
ENDCHAR
STARTCHAR U+0434
ENCODING 1076
SWIDTH 1000 0
DWIDTH 5 0
BBX 4 5 0 -1
BITMAP
70
50
90
F0
90
ENDCHAR
STARTCHAR U+0435
ENCODING 1077
SWIDTH 1000 0
DWIDTH 5 0
BBX 4 4 0 0
BITMAP
60
B0
C0
60
ENDCHAR
STARTCHAR U+0436
ENCODING 1078
SWIDTH 1000 0
DWIDTH 5 0
BBX 5 4 0 0
BITMAP
A8
70
A8
A8
ENDCHAR
STARTCHAR U+0437
ENCODING 1079
SWIDTH 1000 0
DWIDTH 5 0
BBX 3 4 1 0
BITMAP
E0
60
20
C0
ENDCHAR
STARTCHAR U+0438
ENCODING 1080
SWIDTH 1000 0
DWIDTH 5 0
BBX 4 4 0 0
BITMAP
90
B0
D0
90
ENDCHAR
STARTCHAR U+0439
ENCODING 1081
SWIDTH 1000 0
DWIDTH 5 0
BBX 4 6 0 0
BITMAP
90
60
90
B0
D0
90
ENDCHAR
STARTCHAR U+043A
ENCODING 1082
SWIDTH 1000 0
DWIDTH 5 0
BBX 4 4 0 0
BITMAP
90
E0
A0
90
ENDCHAR
STARTCHAR U+043B
ENCODING 1083
SWIDTH 1000 0
DWIDTH 5 0
BBX 4 4 0 0
BITMAP
30
50
50
90
ENDCHAR
STARTCHAR U+043C
ENCODING 1084
SWIDTH 1000 0
DWIDTH 5 0
BBX 5 4 0 0
BITMAP
88
D8
A8
A8
ENDCHAR
STARTCHAR U+043D
ENCODING 1085
SWIDTH 1000 0
DWIDTH 5 0
BBX 4 4 0 0
BITMAP
90
F0
90
90
ENDCHAR
STARTCHAR U+043E
ENCODING 1086
SWIDTH 1000 0
DWIDTH 5 0
BBX 4 4 0 0
BITMAP
60
90
90
60
ENDCHAR
STARTCHAR U+043F
ENCODING 1087
SWIDTH 1000 0
DWIDTH 5 0
BBX 4 4 0 0
BITMAP
F0
90
90
90
ENDCHAR
STARTCHAR U+0440
ENCODING 1088
SWIDTH 1000 0
DWIDTH 5 0
BBX 4 5 0 -1
BITMAP
E0
90
90
E0
80
ENDCHAR
STARTCHAR U+0441
ENCODING 1089
SWIDTH 1000 0
DWIDTH 5 0
BBX 3 4 1 0
BITMAP
60
80
80
60
ENDCHAR
STARTCHAR U+0442
ENCODING 1090
SWIDTH 1000 0
DWIDTH 5 0
BBX 3 4 1 0
BITMAP
E0
40
40
40
ENDCHAR
STARTCHAR U+0443
ENCODING 1091
SWIDTH 1000 0
DWIDTH 5 0
BBX 4 5 0 -1
BITMAP
90
90
50
20
40
ENDCHAR
STARTCHAR U+0444
ENCODING 1092
SWIDTH 1000 0
DWIDTH 5 0
BBX 3 7 1 -1
BITMAP
C0
40
40
E0
A0
E0
40
ENDCHAR
STARTCHAR U+0445
ENCODING 1093
SWIDTH 1000 0
DWIDTH 5 0
BBX 4 4 0 0
BITMAP
90
60
60
90
ENDCHAR
STARTCHAR U+0446
ENCODING 1094
SWIDTH 1000 0
DWIDTH 5 0
BBX 4 5 0 -1
BITMAP
90
90
90
F0
10
ENDCHAR
STARTCHAR U+0447
ENCODING 1095
SWIDTH 1000 0
DWIDTH 5 0
BBX 4 4 0 0
BITMAP
90
90
70
10
ENDCHAR
STARTCHAR U+0448
ENCODING 1096
SWIDTH 1000 0
DWIDTH 5 0
BBX 5 4 0 0
BITMAP
A8
A8
A8
F8
ENDCHAR
STARTCHAR U+0449
ENCODING 1097
SWIDTH 1000 0
DWIDTH 5 0
BBX 5 5 0 -1
BITMAP
A8
A8
A8
F8
08
ENDCHAR
STARTCHAR U+044A
ENCODING 1098
SWIDTH 1000 0
DWIDTH 5 0
BBX 4 4 0 0
BITMAP
C0
60
50
60
ENDCHAR
STARTCHAR U+044B
ENCODING 1099
SWIDTH 1000 0
DWIDTH 5 0
BBX 4 4 0 0
BITMAP
90
D0
B0
D0
ENDCHAR
STARTCHAR U+044C
ENCODING 1100
SWIDTH 1000 0
DWIDTH 5 0
BBX 4 4 0 0
BITMAP
80
E0
90
E0
ENDCHAR
STARTCHAR U+044D
ENCODING 1101
SWIDTH 1000 0
DWIDTH 5 0
BBX 3 4 1 0
BITMAP
C0
60
20
C0
ENDCHAR
STARTCHAR U+044E
ENCODING 1102
SWIDTH 1000 0
DWIDTH 5 0
BBX 4 4 0 0
BITMAP
A0
D0
D0
A0
ENDCHAR
STARTCHAR U+044F
ENCODING 1103
SWIDTH 1000 0
DWIDTH 5 0
BBX 3 4 1 0
BITMAP
60
A0
60
A0
ENDCHAR
STARTCHAR U+0451
ENCODING 1105
SWIDTH 1000 0
DWIDTH 5 0
BBX 4 6 0 0
BITMAP
A0
00
60
B0
C0
60
ENDCHAR
STARTCHAR U+0452
ENCODING 1106
SWIDTH 1000 0
DWIDTH 5 0
BBX 4 7 0 -1
BITMAP
40
E0
40
60
50
10
20
ENDCHAR
STARTCHAR U+0453
ENCODING 1107
SWIDTH 1000 0
DWIDTH 5 0
BBX 4 6 0 0
BITMAP
20
40
F0
80
80
80
ENDCHAR
STARTCHAR U+0454
ENCODING 1108
SWIDTH 1000 0
DWIDTH 5 0
BBX 3 4 1 0
BITMAP
60
C0
80
60
ENDCHAR
STARTCHAR U+0455
ENCODING 1109
SWIDTH 1000 0
DWIDTH 5 0
BBX 4 4 0 0
BITMAP
70
C0
30
E0
ENDCHAR
STARTCHAR U+0456
ENCODING 1110
SWIDTH 1000 0
DWIDTH 5 0
BBX 3 6 1 0
BITMAP
40
00
C0
40
40
E0
ENDCHAR
STARTCHAR U+0457
ENCODING 1111
SWIDTH 1000 0
DWIDTH 5 0
BBX 3 6 1 0
BITMAP
A0
00
C0
40
40
E0
ENDCHAR
STARTCHAR U+0458
ENCODING 1112
SWIDTH 1000 0
DWIDTH 5 0
BBX 3 7 1 -1
BITMAP
20
00
20
20
20
A0
40
ENDCHAR
STARTCHAR U+0459
ENCODING 1113
SWIDTH 1000 0
DWIDTH 5 0
BBX 5 4 0 0
BITMAP
60
B8
A8
B0
ENDCHAR
STARTCHAR U+045A
ENCODING 1114
SWIDTH 1000 0
DWIDTH 5 0
BBX 5 4 0 0
BITMAP
A0
F0
A8
B0
ENDCHAR
STARTCHAR U+045B
ENCODING 1115
SWIDTH 1000 0
DWIDTH 5 0
BBX 4 6 0 0
BITMAP
40
E0
40
60
50
50
ENDCHAR
STARTCHAR U+045C
ENCODING 1116
SWIDTH 1000 0
DWIDTH 5 0
BBX 4 6 0 0
BITMAP
20
40
90
E0
A0
90
ENDCHAR
STARTCHAR U+045D
ENCODING 1117
SWIDTH 1000 0
DWIDTH 5 0
BBX 0 0 0 0
BITMAP
ENDCHAR
STARTCHAR U+045E
ENCODING 1118
SWIDTH 1000 0
DWIDTH 5 0
BBX 4 7 0 -1
BITMAP
90
60
00
90
50
20
40
ENDCHAR
STARTCHAR U+045F
ENCODING 1119
SWIDTH 1000 0
DWIDTH 5 0
BBX 3 5 1 -1
BITMAP
A0
A0
A0
E0
40
ENDCHAR
STARTCHAR U+0490
ENCODING 1168
SWIDTH 1000 0
DWIDTH 5 0
BBX 4 6 0 0
BITMAP
10
F0
80
80
80
80
ENDCHAR
STARTCHAR U+0491
ENCODING 1169
SWIDTH 1000 0
DWIDTH 5 0
BBX 4 5 0 0
BITMAP
10
F0
80
80
80
ENDCHAR
STARTCHAR U+0492
ENCODING 1170
SWIDTH 1000 0
DWIDTH 5 0
BBX 4 6 0 0
BITMAP
70
40
E0
40
40
40
ENDCHAR
STARTCHAR U+0493
ENCODING 1171
SWIDTH 1000 0
DWIDTH 5 0
BBX 4 4 0 0
BITMAP
70
40
E0
40
ENDCHAR
STARTCHAR U+0496
ENCODING 1174
SWIDTH 1000 0
DWIDTH 5 0
BBX 5 7 0 -1
BITMAP
A8
A8
70
A8
A8
A8
08
ENDCHAR
STARTCHAR U+0497
ENCODING 1175
SWIDTH 1000 0
DWIDTH 5 0
BBX 5 5 0 -1
BITMAP
A8
70
A8
A8
08
ENDCHAR
STARTCHAR U+049A
ENCODING 1178
SWIDTH 1000 0
DWIDTH 5 0
BBX 5 7 0 -1
BITMAP
90
A0
C0
A0
90
88
08
ENDCHAR
STARTCHAR U+049B
ENCODING 1179
SWIDTH 1000 0
DWIDTH 5 0
BBX 5 5 0 -1
BITMAP
90
E0
A0
90
08
ENDCHAR
STARTCHAR U+04AE
ENCODING 1198
SWIDTH 1000 0
DWIDTH 5 0
BBX 5 6 0 0
BITMAP
88
88
50
20
20
20
ENDCHAR
STARTCHAR U+04AF
ENCODING 1199
SWIDTH 1000 0
DWIDTH 5 0
BBX 5 5 0 -1
BITMAP
88
50
20
20
20
ENDCHAR
STARTCHAR U+04B0
ENCODING 1200
SWIDTH 1000 0
DWIDTH 5 0
BBX 5 6 0 0
BITMAP
88
88
50
F8
20
20
ENDCHAR
STARTCHAR U+04B1
ENCODING 1201
SWIDTH 1000 0
DWIDTH 5 0
BBX 5 5 0 -1
BITMAP
88
50
F8
20
20
ENDCHAR
STARTCHAR U+04B2
ENCODING 1202
SWIDTH 1000 0
DWIDTH 5 0
BBX 4 7 1 -1
BITMAP
A0
A0
40
40
A0
A0
10
ENDCHAR
STARTCHAR U+04B3
ENCODING 1203
SWIDTH 1000 0
DWIDTH 5 0
BBX 5 5 0 -1
BITMAP
90
60
60
90
08
ENDCHAR
STARTCHAR U+04BA
ENCODING 1210
SWIDTH 1000 0
DWIDTH 5 0
BBX 4 6 0 0
BITMAP
80
80
E0
90
90
90
ENDCHAR
STARTCHAR U+04BB
ENCODING 1211
SWIDTH 1000 0
DWIDTH 5 0
BBX 3 6 1 0
BITMAP
80
80
C0
A0
A0
A0
ENDCHAR
STARTCHAR U+04D8
ENCODING 1240
SWIDTH 1000 0
DWIDTH 5 0
BBX 4 6 0 0
BITMAP
60
90
10
F0
90
60
ENDCHAR
STARTCHAR U+04D9
ENCODING 1241
SWIDTH 1000 0
DWIDTH 5 0
BBX 4 4 0 0
BITMAP
60
30
D0
60
ENDCHAR
STARTCHAR U+04E2
ENCODING 1250
SWIDTH 1000 0
DWIDTH 5 0
BBX 3 7 1 0
BITMAP
E0
00
E0
40
40
40
E0
ENDCHAR
STARTCHAR U+04E3
ENCODING 1251
SWIDTH 1000 0
DWIDTH 5 0
BBX 3 6 1 0
BITMAP
E0
00
C0
40
40
E0
ENDCHAR
STARTCHAR U+04E8
ENCODING 1256
SWIDTH 1000 0
DWIDTH 5 0
BBX 4 6 0 0
BITMAP
60
90
F0
90
90
60
ENDCHAR
STARTCHAR U+04E9
ENCODING 1257
SWIDTH 1000 0
DWIDTH 5 0
BBX 4 4 0 0
BITMAP
60
F0
90
60
ENDCHAR
STARTCHAR U+04EE
ENCODING 1262
SWIDTH 1000 0
DWIDTH 5 0
BBX 4 7 0 0
BITMAP
F0
00
90
90
90
90
60
ENDCHAR
STARTCHAR U+04EF
ENCODING 1263
SWIDTH 1000 0
DWIDTH 5 0
BBX 4 6 0 0
BITMAP
F0
00
90
90
90
70
ENDCHAR
STARTCHAR U+05D0
ENCODING 1488
SWIDTH 1000 0
DWIDTH 5 0
BBX 4 4 0 0
BITMAP
90
50
A0
90
ENDCHAR
STARTCHAR U+05D1
ENCODING 1489
SWIDTH 1000 0
DWIDTH 5 0
BBX 4 4 0 0
BITMAP
E0
20
20
F0
ENDCHAR
STARTCHAR U+05D2
ENCODING 1490
SWIDTH 1000 0
DWIDTH 5 0
BBX 4 5 0 0
BITMAP
40
20
20
20
D0
ENDCHAR
STARTCHAR U+05D3
ENCODING 1491
SWIDTH 1000 0
DWIDTH 5 0
BBX 4 4 0 0
BITMAP
F0
20
20
20
ENDCHAR
STARTCHAR U+05D4
ENCODING 1492
SWIDTH 1000 0
DWIDTH 5 0
BBX 4 4 0 0
BITMAP
F0
10
90
90
ENDCHAR
STARTCHAR U+05D5
ENCODING 1493
SWIDTH 1000 0
DWIDTH 5 0
BBX 2 5 1 0
BITMAP
80
40
40
40
40
ENDCHAR
STARTCHAR U+05D6
ENCODING 1494
SWIDTH 1000 0
DWIDTH 5 0
BBX 3 4 1 0
BITMAP
E0
40
40
40
ENDCHAR
STARTCHAR U+05D7
ENCODING 1495
SWIDTH 1000 0
DWIDTH 5 0
BBX 4 4 0 0
BITMAP
F0
50
50
50
ENDCHAR
STARTCHAR U+05D8
ENCODING 1496
SWIDTH 1000 0
DWIDTH 5 0
BBX 4 4 0 0
BITMAP
90
90
90
F0
ENDCHAR
STARTCHAR U+05D9
ENCODING 1497
SWIDTH 1000 0
DWIDTH 5 0
BBX 2 2 1 3
BITMAP
80
40
ENDCHAR
STARTCHAR U+05DA
ENCODING 1498
SWIDTH 1000 0
DWIDTH 5 0
BBX 4 4 0 0
BITMAP
F0
10
20
20
ENDCHAR
STARTCHAR U+05DB
ENCODING 1499
SWIDTH 1000 0
DWIDTH 5 0
BBX 4 5 0 0
BITMAP
80
70
10
10
E0
ENDCHAR
STARTCHAR U+05DC
ENCODING 1500
SWIDTH 1000 0
DWIDTH 5 0
BBX 4 5 0 0
BITMAP
80
70
10
20
40
ENDCHAR
STARTCHAR U+05DD
ENCODING 1501
SWIDTH 1000 0
DWIDTH 5 0
BBX 4 5 0 0
BITMAP
80
70
90
90
F0
ENDCHAR
STARTCHAR U+05DE
ENCODING 1502
SWIDTH 1000 0
DWIDTH 5 0
BBX 4 5 0 0
BITMAP
80
70
90
90
B0
ENDCHAR
STARTCHAR U+05DF
ENCODING 1503
SWIDTH 1000 0
DWIDTH 5 0
BBX 2 5 1 0
BITMAP
80
40
80
80
80
ENDCHAR
STARTCHAR U+05E0
ENCODING 1504
SWIDTH 1000 0
DWIDTH 5 0
BBX 2 5 1 0
BITMAP
80
40
40
40
C0
ENDCHAR
STARTCHAR U+05E1
ENCODING 1505
SWIDTH 1000 0
DWIDTH 5 0
BBX 5 5 0 0
BITMAP
80
78
48
48
30
ENDCHAR
STARTCHAR U+05E2
ENCODING 1506
SWIDTH 1000 0
DWIDTH 5 0
BBX 4 4 0 0
BITMAP
90
50
50
F0
ENDCHAR
STARTCHAR U+05E3
ENCODING 1507
SWIDTH 1000 0
DWIDTH 5 0
BBX 4 4 0 0
BITMAP
70
90
10
10
ENDCHAR
STARTCHAR U+05E4
ENCODING 1508
SWIDTH 1000 0
DWIDTH 5 0
BBX 4 4 0 0
BITMAP
F0
90
10
F0
ENDCHAR
STARTCHAR U+05E5
ENCODING 1509
SWIDTH 1000 0
DWIDTH 5 0
BBX 3 4 1 0
BITMAP
A0
C0
80
80
ENDCHAR
STARTCHAR U+05E6
ENCODING 1510
SWIDTH 1000 0
DWIDTH 5 0
BBX 4 4 0 0
BITMAP
90
60
20
F0
ENDCHAR
STARTCHAR U+05E7
ENCODING 1511
SWIDTH 1000 0
DWIDTH 5 0
BBX 4 4 0 0
BITMAP
E0
10
A0
80
ENDCHAR
STARTCHAR U+05E8
ENCODING 1512
SWIDTH 1000 0
DWIDTH 5 0
BBX 4 4 0 0
BITMAP
F0
10
10
10
ENDCHAR
STARTCHAR U+05E9
ENCODING 1513
SWIDTH 1000 0
DWIDTH 5 0
BBX 5 4 0 0
BITMAP
A8
C8
88
F0
ENDCHAR
STARTCHAR U+05EA
ENCODING 1514
SWIDTH 1000 0
DWIDTH 5 0
BBX 4 4 0 0
BITMAP
F0
50
50
D0
ENDCHAR
STARTCHAR U+1E02
ENCODING 7682
SWIDTH 1000 0
DWIDTH 5 0
BBX 4 7 0 0
BITMAP
20
00
E0
90
E0
90
E0
ENDCHAR
STARTCHAR U+1E03
ENCODING 7683
SWIDTH 1000 0
DWIDTH 5 0
BBX 4 7 0 0
BITMAP
20
80
80
E0
90
90
E0
ENDCHAR
STARTCHAR U+1E0A
ENCODING 7690
SWIDTH 1000 0
DWIDTH 5 0
BBX 4 7 0 0
BITMAP
20
00
E0
90
90
90
E0
ENDCHAR
STARTCHAR U+1E0B
ENCODING 7691
SWIDTH 1000 0
DWIDTH 5 0
BBX 4 7 0 0
BITMAP
40
10
10
70
90
90
70
ENDCHAR
STARTCHAR U+1E1E
ENCODING 7710
SWIDTH 1000 0
DWIDTH 5 0
BBX 4 7 0 0
BITMAP
20
00
F0
80
E0
80
80
ENDCHAR
STARTCHAR U+1E1F
ENCODING 7711
SWIDTH 1000 0
DWIDTH 5 0
BBX 4 7 0 0
BITMAP
80
20
50
40
E0
40
40
ENDCHAR
STARTCHAR U+1E40
ENCODING 7744
SWIDTH 1000 0
DWIDTH 5 0
BBX 4 7 0 0
BITMAP
20
00
90
F0
F0
90
90
ENDCHAR
STARTCHAR U+1E41
ENCODING 7745
SWIDTH 1000 0
DWIDTH 5 0
BBX 5 6 0 0
BITMAP
20
00
D0
A8
A8
A8
ENDCHAR
STARTCHAR U+1E56
ENCODING 7766
SWIDTH 1000 0
DWIDTH 5 0
BBX 4 7 0 0
BITMAP
40
00
E0
90
E0
80
80
ENDCHAR
STARTCHAR U+1E57
ENCODING 7767
SWIDTH 1000 0
DWIDTH 5 0
BBX 4 7 0 -1
BITMAP
40
00
E0
90
E0
80
80
ENDCHAR
STARTCHAR U+1E60
ENCODING 7776
SWIDTH 1000 0
DWIDTH 5 0
BBX 4 7 0 0
BITMAP
20
00
70
80
60
10
E0
ENDCHAR
STARTCHAR U+1E61
ENCODING 7777
SWIDTH 1000 0
DWIDTH 5 0
BBX 3 6 1 0
BITMAP
40
00
60
C0
20
C0
ENDCHAR
STARTCHAR U+1E6A
ENCODING 7786
SWIDTH 1000 0
DWIDTH 5 0
BBX 3 7 1 0
BITMAP
40
00
E0
40
40
40
40
ENDCHAR
STARTCHAR U+1E6B
ENCODING 7787
SWIDTH 1000 0
DWIDTH 5 0
BBX 4 7 0 0
BITMAP
40
00
40
E0
40
50
20
ENDCHAR
STARTCHAR U+1E80
ENCODING 7808
SWIDTH 1000 0
DWIDTH 5 0
BBX 4 7 0 0
BITMAP
40
20
90
90
F0
F0
90
ENDCHAR
STARTCHAR U+1E81
ENCODING 7809
SWIDTH 1000 0
DWIDTH 5 0
BBX 5 7 0 0
BITMAP
40
20
00
88
A8
A8
50
ENDCHAR
STARTCHAR U+1E82
ENCODING 7810
SWIDTH 1000 0
DWIDTH 5 0
BBX 4 7 0 0
BITMAP
20
40
90
90
F0
F0
90
ENDCHAR
STARTCHAR U+1E83
ENCODING 7811
SWIDTH 1000 0
DWIDTH 5 0
BBX 5 7 0 0
BITMAP
10
20
00
88
A8
A8
50
ENDCHAR
STARTCHAR U+1E84
ENCODING 7812
SWIDTH 1000 0
DWIDTH 5 0
BBX 4 7 0 0
BITMAP
90
00
90
90
F0
F0
90
ENDCHAR
STARTCHAR U+1E85
ENCODING 7813
SWIDTH 1000 0
DWIDTH 5 0
BBX 5 6 0 0
BITMAP
50
00
88
A8
A8
50
ENDCHAR
STARTCHAR U+1EF2
ENCODING 7922
SWIDTH 1000 0
DWIDTH 5 0
BBX 5 7 0 0
BITMAP
40
20
88
50
20
20
20
ENDCHAR
STARTCHAR U+1EF3
ENCODING 7923
SWIDTH 1000 0
DWIDTH 5 0
BBX 4 8 0 -1
BITMAP
40
20
00
90
90
70
90
60
ENDCHAR
STARTCHAR U+2010
ENCODING 8208
SWIDTH 1000 0
DWIDTH 5 0
BBX 3 1 1 2
BITMAP
E0
ENDCHAR
STARTCHAR U+2011
ENCODING 8209
SWIDTH 1000 0
DWIDTH 5 0
BBX 3 1 1 2
BITMAP
E0
ENDCHAR
STARTCHAR U+2012
ENCODING 8210
SWIDTH 1000 0
DWIDTH 5 0
BBX 4 1 0 2
BITMAP
F0
ENDCHAR
STARTCHAR U+2013
ENCODING 8211
SWIDTH 1000 0
DWIDTH 5 0
BBX 4 1 0 2
BITMAP
F0
ENDCHAR
STARTCHAR U+2014
ENCODING 8212
SWIDTH 1000 0
DWIDTH 5 0
BBX 5 1 0 2
BITMAP
F8
ENDCHAR
STARTCHAR U+2015
ENCODING 8213
SWIDTH 1000 0
DWIDTH 5 0
BBX 5 1 0 2
BITMAP
F8
ENDCHAR
STARTCHAR U+2016
ENCODING 8214
SWIDTH 1000 0
DWIDTH 5 0
BBX 3 6 1 0
BITMAP
A0
A0
A0
A0
A0
A0
ENDCHAR
STARTCHAR U+2017
ENCODING 8215
SWIDTH 1000 0
DWIDTH 5 0
BBX 5 3 0 -1
BITMAP
F8
00
F8
ENDCHAR
STARTCHAR U+2018
ENCODING 8216
SWIDTH 1000 0
DWIDTH 5 0
BBX 2 3 1 4
BITMAP
40
80
C0
ENDCHAR
STARTCHAR U+2019
ENCODING 8217
SWIDTH 1000 0
DWIDTH 5 0
BBX 2 3 1 4
BITMAP
C0
40
80
ENDCHAR
STARTCHAR U+201A
ENCODING 8218
SWIDTH 1000 0
DWIDTH 5 0
BBX 2 3 1 -1
BITMAP
C0
40
80
ENDCHAR
STARTCHAR U+201B
ENCODING 8219
SWIDTH 1000 0
DWIDTH 5 0
BBX 2 3 1 4
BITMAP
C0
80
40
ENDCHAR
STARTCHAR U+201C
ENCODING 8220
SWIDTH 1000 0
DWIDTH 5 0
BBX 5 3 0 4
BITMAP
48
90
D8
ENDCHAR
STARTCHAR U+201D
ENCODING 8221
SWIDTH 1000 0
DWIDTH 5 0
BBX 5 3 0 4
BITMAP
D8
48
90
ENDCHAR
STARTCHAR U+201E
ENCODING 8222
SWIDTH 1000 0
DWIDTH 5 0
BBX 5 3 0 -1
BITMAP
D8
48
90
ENDCHAR
STARTCHAR U+201F
ENCODING 8223
SWIDTH 1000 0
DWIDTH 5 0
BBX 5 3 0 4
BITMAP
D8
90
48
ENDCHAR
STARTCHAR U+2020
ENCODING 8224
SWIDTH 1000 0
DWIDTH 5 0
BBX 3 6 1 0
BITMAP
40
E0
40
40
40
40
ENDCHAR
STARTCHAR U+2021
ENCODING 8225
SWIDTH 1000 0
DWIDTH 5 0
BBX 3 6 1 0
BITMAP
40
E0
40
E0
40
40
ENDCHAR
STARTCHAR U+2022
ENCODING 8226
SWIDTH 1000 0
DWIDTH 5 0
BBX 4 4 0 0
BITMAP
60
F0
F0
60
ENDCHAR
STARTCHAR U+2026
ENCODING 8230
SWIDTH 1000 0
DWIDTH 5 0
BBX 5 1 0 0
BITMAP
A8
ENDCHAR
STARTCHAR U+2030
ENCODING 8240
SWIDTH 1000 0
DWIDTH 5 0
BBX 5 5 0 1
BITMAP
80
A0
40
A8
28
ENDCHAR
STARTCHAR U+2032
ENCODING 8242
SWIDTH 1000 0
DWIDTH 5 0
BBX 2 3 1 3
BITMAP
40
40
80
ENDCHAR
STARTCHAR U+2033
ENCODING 8243
SWIDTH 1000 0
DWIDTH 5 0
BBX 4 3 0 3
BITMAP
50
50
A0
ENDCHAR
STARTCHAR U+2034
ENCODING 8244
SWIDTH 1000 0
DWIDTH 5 0
BBX 5 3 0 3
BITMAP
A8
A8
D0
ENDCHAR
STARTCHAR U+2035
ENCODING 8245
SWIDTH 1000 0
DWIDTH 5 0
BBX 2 3 1 3
BITMAP
80
80
40
ENDCHAR
STARTCHAR U+2036
ENCODING 8246
SWIDTH 1000 0
DWIDTH 5 0
BBX 4 3 0 3
BITMAP
A0
A0
50
ENDCHAR
STARTCHAR U+2039
ENCODING 8249
SWIDTH 1000 0
DWIDTH 5 0
BBX 2 3 1 1
BITMAP
40
80
40
ENDCHAR
STARTCHAR U+203A
ENCODING 8250
SWIDTH 1000 0
DWIDTH 5 0
BBX 2 3 1 1
BITMAP
80
40
80
ENDCHAR
STARTCHAR U+203C
ENCODING 8252
SWIDTH 1000 0
DWIDTH 5 0
BBX 3 6 1 0
BITMAP
A0
A0
A0
A0
00
A0
ENDCHAR
STARTCHAR U+203D
ENCODING 8253
SWIDTH 1000 0
DWIDTH 5 0
BBX 3 6 1 0
BITMAP
40
E0
60
40
00
40
ENDCHAR
STARTCHAR U+203E
ENCODING 8254
SWIDTH 1000 0
DWIDTH 5 0
BBX 5 1 0 6
BITMAP
F8
ENDCHAR
STARTCHAR U+2044
ENCODING 8260
SWIDTH 1000 0
DWIDTH 5 0
BBX 4 6 0 0
BITMAP
10
20
20
40
40
80
ENDCHAR
STARTCHAR U+2070
ENCODING 8304
SWIDTH 1000 0
DWIDTH 5 0
BBX 3 5 1 2
BITMAP
40
A0
A0
A0
40
ENDCHAR
STARTCHAR U+2071
ENCODING 8305
SWIDTH 1000 0
DWIDTH 5 0
BBX 3 5 1 2
BITMAP
40
00
C0
40
E0
ENDCHAR
STARTCHAR U+2074
ENCODING 8308
SWIDTH 1000 0
DWIDTH 5 0
BBX 3 5 1 2
BITMAP
80
80
C0
E0
40
ENDCHAR
STARTCHAR U+2075
ENCODING 8309
SWIDTH 1000 0
DWIDTH 5 0
BBX 3 5 1 2
BITMAP
E0
80
C0
20
C0
ENDCHAR
STARTCHAR U+2076
ENCODING 8310
SWIDTH 1000 0
DWIDTH 5 0
BBX 3 5 1 2
BITMAP
60
80
C0
A0
40
ENDCHAR
STARTCHAR U+2077
ENCODING 8311
SWIDTH 1000 0
DWIDTH 5 0
BBX 3 5 1 2
BITMAP
E0
20
40
40
40
ENDCHAR
STARTCHAR U+2078
ENCODING 8312
SWIDTH 1000 0
DWIDTH 5 0
BBX 3 5 1 2
BITMAP
40
A0
40
A0
40
ENDCHAR
STARTCHAR U+2079
ENCODING 8313
SWIDTH 1000 0
DWIDTH 5 0
BBX 3 5 1 2
BITMAP
40
A0
60
20
C0
ENDCHAR
STARTCHAR U+207A
ENCODING 8314
SWIDTH 1000 0
DWIDTH 5 0
BBX 3 3 1 3
BITMAP
40
E0
40
ENDCHAR
STARTCHAR U+207B
ENCODING 8315
SWIDTH 1000 0
DWIDTH 5 0
BBX 3 1 1 4
BITMAP
E0
ENDCHAR
STARTCHAR U+207C
ENCODING 8316
SWIDTH 1000 0
DWIDTH 5 0
BBX 3 3 1 3
BITMAP
E0
00
E0
ENDCHAR
STARTCHAR U+207D
ENCODING 8317
SWIDTH 1000 0
DWIDTH 5 0
BBX 2 5 1 2
BITMAP
40
80
80
80
40
ENDCHAR
STARTCHAR U+207E
ENCODING 8318
SWIDTH 1000 0
DWIDTH 5 0
BBX 2 5 1 2
BITMAP
80
40
40
40
80
ENDCHAR
STARTCHAR U+207F
ENCODING 8319
SWIDTH 1000 0
DWIDTH 5 0
BBX 3 3 1 2
BITMAP
C0
A0
A0
ENDCHAR
STARTCHAR U+2080
ENCODING 8320
SWIDTH 1000 0
DWIDTH 5 0
BBX 3 5 1 -1
BITMAP
40
A0
A0
A0
40
ENDCHAR
STARTCHAR U+2081
ENCODING 8321
SWIDTH 1000 0
DWIDTH 5 0
BBX 3 5 1 -1
BITMAP
40
C0
40
40
E0
ENDCHAR
STARTCHAR U+2082
ENCODING 8322
SWIDTH 1000 0
DWIDTH 5 0
BBX 3 5 1 -1
BITMAP
40
A0
20
40
E0
ENDCHAR
STARTCHAR U+2083
ENCODING 8323
SWIDTH 1000 0
DWIDTH 5 0
BBX 3 5 1 -1
BITMAP
C0
20
C0
20
C0
ENDCHAR
STARTCHAR U+2084
ENCODING 8324
SWIDTH 1000 0
DWIDTH 5 0
BBX 3 5 1 -1
BITMAP
80
80
C0
E0
40
ENDCHAR
STARTCHAR U+2085
ENCODING 8325
SWIDTH 1000 0
DWIDTH 5 0
BBX 3 5 1 -1
BITMAP
E0
80
C0
20
C0
ENDCHAR
STARTCHAR U+2086
ENCODING 8326
SWIDTH 1000 0
DWIDTH 5 0
BBX 3 5 1 -1
BITMAP
60
80
C0
A0
40
ENDCHAR
STARTCHAR U+2087
ENCODING 8327
SWIDTH 1000 0
DWIDTH 5 0
BBX 3 5 1 -1
BITMAP
E0
20
40
40
40
ENDCHAR
STARTCHAR U+2088
ENCODING 8328
SWIDTH 1000 0
DWIDTH 5 0
BBX 3 5 1 -1
BITMAP
40
A0
40
A0
40
ENDCHAR
STARTCHAR U+2089
ENCODING 8329
SWIDTH 1000 0
DWIDTH 5 0
BBX 3 5 1 -1
BITMAP
40
A0
60
20
C0
ENDCHAR
STARTCHAR U+208A
ENCODING 8330
SWIDTH 1000 0
DWIDTH 5 0
BBX 3 3 1 0
BITMAP
40
E0
40
ENDCHAR
STARTCHAR U+208B
ENCODING 8331
SWIDTH 1000 0
DWIDTH 5 0
BBX 3 1 1 1
BITMAP
E0
ENDCHAR
STARTCHAR U+208C
ENCODING 8332
SWIDTH 1000 0
DWIDTH 5 0
BBX 3 3 1 0
BITMAP
E0
00
E0
ENDCHAR
STARTCHAR U+208D
ENCODING 8333
SWIDTH 1000 0
DWIDTH 5 0
BBX 2 5 1 -1
BITMAP
40
80
80
80
40
ENDCHAR
STARTCHAR U+208E
ENCODING 8334
SWIDTH 1000 0
DWIDTH 5 0
BBX 2 5 1 -1
BITMAP
80
40
40
40
80
ENDCHAR
STARTCHAR U+20A3
ENCODING 8355
SWIDTH 1000 0
DWIDTH 5 0
BBX 4 6 0 0
BITMAP
F0
80
F0
A0
A0
A0
ENDCHAR
STARTCHAR U+20A4
ENCODING 8356
SWIDTH 1000 0
DWIDTH 5 0
BBX 4 6 0 0
BITMAP
20
50
E0
E0
50
A0
ENDCHAR
STARTCHAR U+20A7
ENCODING 8359
SWIDTH 1000 0
DWIDTH 5 0
BBX 5 6 0 0
BITMAP
70
48
F8
70
40
40
ENDCHAR
STARTCHAR U+20AB
ENCODING 8363
SWIDTH 1000 0
DWIDTH 5 0
BBX 5 7 0 -1
BITMAP
10
38
70
90
90
70
F0
ENDCHAR
STARTCHAR U+20AC
ENCODING 8364
SWIDTH 1000 0
DWIDTH 5 0
BBX 4 7 0 0
BITMAP
30
40
E0
40
E0
40
30
ENDCHAR
STARTCHAR U+20AF
ENCODING 8367
SWIDTH 1000 0
DWIDTH 5 0
BBX 4 7 0 0
BITMAP
40
E0
50
50
50
D0
E0
ENDCHAR
STARTCHAR U+20D0
ENCODING 8400
SWIDTH 1000 0
DWIDTH 5 0
BBX 4 2 0 5
BITMAP
40
F0
ENDCHAR
STARTCHAR U+20D1
ENCODING 8401
SWIDTH 1000 0
DWIDTH 5 0
BBX 4 2 0 5
BITMAP
20
F0
ENDCHAR
STARTCHAR U+20D2
ENCODING 8402
SWIDTH 1000 0
DWIDTH 5 0
BBX 1 8 2 -1
BITMAP
80
80
80
80
80
80
80
80
ENDCHAR
STARTCHAR U+20D3
ENCODING 8403
SWIDTH 1000 0
DWIDTH 5 0
BBX 1 6 2 -1
BITMAP
80
80
80
80
80
80
ENDCHAR
STARTCHAR U+20D4
ENCODING 8404
SWIDTH 1000 0
DWIDTH 5 0
BBX 4 2 0 5
BITMAP
E0
D0
ENDCHAR
STARTCHAR U+20D5
ENCODING 8405
SWIDTH 1000 0
DWIDTH 5 0
BBX 4 2 0 5
BITMAP
70
B0
ENDCHAR
STARTCHAR U+20D6
ENCODING 8406
SWIDTH 1000 0
DWIDTH 5 0
BBX 4 3 0 4
BITMAP
40
F0
40
ENDCHAR
STARTCHAR U+20D7
ENCODING 8407
SWIDTH 1000 0
DWIDTH 5 0
BBX 4 3 0 4
BITMAP
20
F0
20
ENDCHAR
STARTCHAR U+2102
ENCODING 8450
SWIDTH 1000 0
DWIDTH 5 0
BBX 4 6 0 0
BITMAP
60
B0
A0
A0
B0
60
ENDCHAR
STARTCHAR U+2105
ENCODING 8453
SWIDTH 1000 0
DWIDTH 5 0
BBX 5 7 0 0
BITMAP
40
90
A0
70
28
68
90
ENDCHAR
STARTCHAR U+2113
ENCODING 8467
SWIDTH 1000 0
DWIDTH 5 0
BBX 4 6 0 0
BITMAP
20
50
50
60
40
B0
ENDCHAR
STARTCHAR U+2115
ENCODING 8469
SWIDTH 1000 0
DWIDTH 5 0
BBX 4 6 0 0
BITMAP
D0
D0
F0
F0
D0
D0
ENDCHAR
STARTCHAR U+2116
ENCODING 8470
SWIDTH 1000 0
DWIDTH 5 0
BBX 5 6 0 0
BITMAP
C0
B0
A8
B0
A0
B8
ENDCHAR
STARTCHAR U+211A
ENCODING 8474
SWIDTH 1000 0
DWIDTH 5 0
BBX 4 7 0 -1
BITMAP
60
D0
D0
D0
F0
60
10
ENDCHAR
STARTCHAR U+211D
ENCODING 8477
SWIDTH 1000 0
DWIDTH 5 0
BBX 4 6 0 0
BITMAP
E0
D0
D0
E0
D0
D0
ENDCHAR
STARTCHAR U+2122
ENCODING 8482
SWIDTH 1000 0
DWIDTH 5 0
BBX 3 7 1 0
BITMAP
E0
40
40
00
E0
E0
A0
ENDCHAR
STARTCHAR U+2124
ENCODING 8484
SWIDTH 1000 0
DWIDTH 5 0
BBX 4 6 0 0
BITMAP
F0
50
50
A0
A0
F0
ENDCHAR
STARTCHAR U+2126
ENCODING 8486
SWIDTH 1000 0
DWIDTH 5 0
BBX 5 6 0 0
BITMAP
70
88
88
88
50
D8
ENDCHAR
STARTCHAR U+212E
ENCODING 8494
SWIDTH 1000 0
DWIDTH 5 0
BBX 4 6 0 0
BITMAP
60
D0
F0
C0
D0
60
ENDCHAR
STARTCHAR U+215B
ENCODING 8539
SWIDTH 1000 0
DWIDTH 5 0
BBX 4 7 0 0
BITMAP
80
80
A0
D0
A0
50
20
ENDCHAR
STARTCHAR U+215C
ENCODING 8540
SWIDTH 1000 0
DWIDTH 5 0
BBX 5 7 0 0
BITMAP
80
40
90
68
90
28
10
ENDCHAR
STARTCHAR U+215D
ENCODING 8541
SWIDTH 1000 0
DWIDTH 5 0
BBX 5 7 0 0
BITMAP
C0
80
D0
68
90
28
10
ENDCHAR
STARTCHAR U+215E
ENCODING 8542
SWIDTH 1000 0
DWIDTH 5 0
BBX 5 7 0 0
BITMAP
C0
40
50
A8
90
28
10
ENDCHAR
STARTCHAR U+2190
ENCODING 8592
SWIDTH 1000 0
DWIDTH 5 0
BBX 5 5 0 0
BITMAP
20
40
F8
40
20
ENDCHAR
STARTCHAR U+2191
ENCODING 8593
SWIDTH 1000 0
DWIDTH 5 0
BBX 5 6 0 0
BITMAP
20
70
A8
20
20
20
ENDCHAR
STARTCHAR U+2192
ENCODING 8594
SWIDTH 1000 0
DWIDTH 5 0
BBX 5 5 0 0
BITMAP
20
10
F8
10
20
ENDCHAR
STARTCHAR U+2193
ENCODING 8595
SWIDTH 1000 0
DWIDTH 5 0
BBX 5 6 0 0
BITMAP
20
20
20
A8
70
20
ENDCHAR
STARTCHAR U+2194
ENCODING 8596
SWIDTH 1000 0
DWIDTH 5 0
BBX 5 3 0 1
BITMAP
50
F8
50
ENDCHAR
STARTCHAR U+2195
ENCODING 8597
SWIDTH 1000 0
DWIDTH 5 0
BBX 3 6 1 0
BITMAP
40
E0
40
40
E0
40
ENDCHAR
STARTCHAR U+2196
ENCODING 8598
SWIDTH 1000 0
DWIDTH 5 0
BBX 4 6 0 0
BITMAP
E0
C0
A0
20
10
10
ENDCHAR
STARTCHAR U+2197
ENCODING 8599
SWIDTH 1000 0
DWIDTH 5 0
BBX 4 6 0 0
BITMAP
70
30
50
40
80
80
ENDCHAR
STARTCHAR U+2198
ENCODING 8600
SWIDTH 1000 0
DWIDTH 5 0
BBX 4 6 0 0
BITMAP
80
80
40
50
30
70
ENDCHAR
STARTCHAR U+2199
ENCODING 8601
SWIDTH 1000 0
DWIDTH 5 0
BBX 4 6 0 0
BITMAP
10
10
20
A0
C0
E0
ENDCHAR
STARTCHAR U+21A4
ENCODING 8612
SWIDTH 1000 0
DWIDTH 5 0
BBX 5 5 0 0
BITMAP
20
48
F8
48
20
ENDCHAR
STARTCHAR U+21A5
ENCODING 8613
SWIDTH 1000 0
DWIDTH 5 0
BBX 5 6 0 0
BITMAP
20
70
A8
20
20
70
ENDCHAR
STARTCHAR U+21A6
ENCODING 8614
SWIDTH 1000 0
DWIDTH 5 0
BBX 5 5 0 0
BITMAP
20
90
F8
90
20
ENDCHAR
STARTCHAR U+21A7
ENCODING 8615
SWIDTH 1000 0
DWIDTH 5 0
BBX 5 6 0 0
BITMAP
70
20
20
A8
70
20
ENDCHAR
STARTCHAR U+21A8
ENCODING 8616
SWIDTH 1000 0
DWIDTH 5 0
BBX 3 7 1 -1
BITMAP
40
E0
40
40
E0
40
E0
ENDCHAR
STARTCHAR U+21B0
ENCODING 8624
SWIDTH 1000 0
DWIDTH 5 0
BBX 4 6 0 0
BITMAP
40
F0
50
10
10
10
ENDCHAR
STARTCHAR U+21B1
ENCODING 8625
SWIDTH 1000 0
DWIDTH 5 0
BBX 4 6 0 0
BITMAP
20
F0
A0
80
80
80
ENDCHAR
STARTCHAR U+21B2
ENCODING 8626
SWIDTH 1000 0
DWIDTH 5 0
BBX 4 6 0 0
BITMAP
10
10
10
50
F0
40
ENDCHAR
STARTCHAR U+21B3
ENCODING 8627
SWIDTH 1000 0
DWIDTH 5 0
BBX 4 6 0 0
BITMAP
80
80
80
A0
F0
20
ENDCHAR
STARTCHAR U+21B4
ENCODING 8628
SWIDTH 1000 0
DWIDTH 5 0
BBX 4 5 0 0
BITMAP
E0
20
20
70
20
ENDCHAR
STARTCHAR U+21B5
ENCODING 8629
SWIDTH 1000 0
DWIDTH 5 0
BBX 4 5 0 0
BITMAP
10
10
50
F0
40
ENDCHAR
STARTCHAR U+21BC
ENCODING 8636
SWIDTH 1000 0
DWIDTH 5 0
BBX 5 3 0 2
BITMAP
20
40
F8
ENDCHAR
STARTCHAR U+21BD
ENCODING 8637
SWIDTH 1000 0
DWIDTH 5 0
BBX 5 3 0 0
BITMAP
F8
40
20
ENDCHAR
STARTCHAR U+21BE
ENCODING 8638
SWIDTH 1000 0
DWIDTH 5 0
BBX 3 6 2 0
BITMAP
80
C0
A0
80
80
80
ENDCHAR
STARTCHAR U+21BF
ENCODING 8639
SWIDTH 1000 0
DWIDTH 5 0
BBX 3 6 0 0
BITMAP
20
60
A0
20
20
20
ENDCHAR
STARTCHAR U+21C0
ENCODING 8640
SWIDTH 1000 0
DWIDTH 5 0
BBX 5 3 0 2
BITMAP
20
10
F8
ENDCHAR
STARTCHAR U+21C1
ENCODING 8641
SWIDTH 1000 0
DWIDTH 5 0
BBX 5 3 0 0
BITMAP
F8
10
20
ENDCHAR
STARTCHAR U+21C2
ENCODING 8642
SWIDTH 1000 0
DWIDTH 5 0
BBX 3 6 2 0
BITMAP
80
80
80
A0
C0
80
ENDCHAR
STARTCHAR U+21C3
ENCODING 8643
SWIDTH 1000 0
DWIDTH 5 0
BBX 3 6 0 0
BITMAP
20
20
20
A0
60
20
ENDCHAR
STARTCHAR U+21CB
ENCODING 8651
SWIDTH 1000 0
DWIDTH 5 0
BBX 4 5 0 0
BITMAP
40
F0
00
F0
20
ENDCHAR
STARTCHAR U+21CC
ENCODING 8652
SWIDTH 1000 0
DWIDTH 5 0
BBX 4 5 0 0
BITMAP
20
F0
00
F0
40
ENDCHAR
STARTCHAR U+21D0
ENCODING 8656
SWIDTH 1000 0
DWIDTH 5 0
BBX 5 5 0 1
BITMAP
20
78
80
78
20
ENDCHAR
STARTCHAR U+21D1
ENCODING 8657
SWIDTH 1000 0
DWIDTH 5 0
BBX 5 6 0 0
BITMAP
20
50
D8
50
50
50
ENDCHAR
STARTCHAR U+21D2
ENCODING 8658
SWIDTH 1000 0
DWIDTH 5 0
BBX 5 5 0 1
BITMAP
20
F0
08
F0
20
ENDCHAR
STARTCHAR U+21D3
ENCODING 8659
SWIDTH 1000 0
DWIDTH 5 0
BBX 5 6 0 0
BITMAP
50
50
50
D8
50
20
ENDCHAR
STARTCHAR U+21D4
ENCODING 8660
SWIDTH 1000 0
DWIDTH 5 0
BBX 5 5 0 1
BITMAP
20
70
88
70
20
ENDCHAR
STARTCHAR U+21D5
ENCODING 8661
SWIDTH 1000 0
DWIDTH 5 0
BBX 5 7 0 -1
BITMAP
20
50
D8
50
D8
50
20
ENDCHAR
STARTCHAR U+21D6
ENCODING 8662
SWIDTH 1000 0
DWIDTH 5 0
BBX 5 5 0 0
BITMAP
F0
A0
D0
A8
10
ENDCHAR
STARTCHAR U+21D7
ENCODING 8663
SWIDTH 1000 0
DWIDTH 5 0
BBX 5 5 0 0
BITMAP
78
28
58
A8
40
ENDCHAR
STARTCHAR U+21D8
ENCODING 8664
SWIDTH 1000 0
DWIDTH 5 0
BBX 5 5 0 0
BITMAP
40
A8
58
28
78
ENDCHAR
STARTCHAR U+21D9
ENCODING 8665
SWIDTH 1000 0
DWIDTH 5 0
BBX 5 5 0 0
BITMAP
10
A8
D0
A0
F0
ENDCHAR
STARTCHAR U+21E0
ENCODING 8672
SWIDTH 1000 0
DWIDTH 5 0
BBX 5 5 0 0
BITMAP
20
40
A8
40
20
ENDCHAR
STARTCHAR U+21E1
ENCODING 8673
SWIDTH 1000 0
DWIDTH 5 0
BBX 5 6 0 0
BITMAP
20
70
88
20
00
20
ENDCHAR
STARTCHAR U+21E2
ENCODING 8674
SWIDTH 1000 0
DWIDTH 5 0
BBX 5 5 0 0
BITMAP
20
10
A8
10
20
ENDCHAR
STARTCHAR U+21E3
ENCODING 8675
SWIDTH 1000 0
DWIDTH 5 0
BBX 5 6 0 0
BITMAP
20
00
20
88
70
20
ENDCHAR
STARTCHAR U+21E4
ENCODING 8676
SWIDTH 1000 0
DWIDTH 5 0
BBX 5 5 0 0
BITMAP
A0
C0
F8
C0
A0
ENDCHAR
STARTCHAR U+21E5
ENCODING 8677
SWIDTH 1000 0
DWIDTH 5 0
BBX 5 5 0 0
BITMAP
28
18
F8
18
28
ENDCHAR
STARTCHAR U+21E6
ENCODING 8678
SWIDTH 1000 0
DWIDTH 5 0
BBX 5 5 0 1
BITMAP
20
78
88
78
20
ENDCHAR
STARTCHAR U+21E7
ENCODING 8679
SWIDTH 1000 0
DWIDTH 5 0
BBX 5 6 0 0
BITMAP
20
50
D8
50
50
70
ENDCHAR
STARTCHAR U+21E8
ENCODING 8680
SWIDTH 1000 0
DWIDTH 5 0
BBX 5 5 0 1
BITMAP
20
F0
88
F0
20
ENDCHAR
STARTCHAR U+21E9
ENCODING 8681
SWIDTH 1000 0
DWIDTH 5 0
BBX 5 6 0 0
BITMAP
70
50
50
D8
50
20
ENDCHAR
STARTCHAR U+2200
ENCODING 8704
SWIDTH 1000 0
DWIDTH 5 0
BBX 4 6 0 0
BITMAP
90
90
F0
90
90
60
ENDCHAR
STARTCHAR U+2201
ENCODING 8705
SWIDTH 1000 0
DWIDTH 5 0
BBX 3 6 1 0
BITMAP
40
A0
80
80
A0
40
ENDCHAR
STARTCHAR U+2202
ENCODING 8706
SWIDTH 1000 0
DWIDTH 5 0
BBX 4 6 0 0
BITMAP
60
10
50
B0
90
60
ENDCHAR
STARTCHAR U+2203
ENCODING 8707
SWIDTH 1000 0
DWIDTH 5 0
BBX 4 6 0 0
BITMAP
F0
10
70
10
10
F0
ENDCHAR
STARTCHAR U+2204
ENCODING 8708
SWIDTH 1000 0
DWIDTH 5 0
BBX 4 8 0 -1
BITMAP
20
F0
30
70
50
50
F0
40
ENDCHAR
STARTCHAR U+2205
ENCODING 8709
SWIDTH 1000 0
DWIDTH 5 0
BBX 4 6 0 0
BITMAP
70
B0
B0
D0
D0
E0
ENDCHAR
STARTCHAR U+2206
ENCODING 8710
SWIDTH 1000 0
DWIDTH 5 0
BBX 5 6 0 0
BITMAP
20
20
50
50
88
F8
ENDCHAR
STARTCHAR U+2207
ENCODING 8711
SWIDTH 1000 0
DWIDTH 5 0
BBX 5 6 0 0
BITMAP
F8
88
50
50
20
20
ENDCHAR
STARTCHAR U+2208
ENCODING 8712
SWIDTH 1000 0
DWIDTH 5 0
BBX 4 5 0 0
BITMAP
70
80
E0
80
70
ENDCHAR
STARTCHAR U+2209
ENCODING 8713
SWIDTH 1000 0
DWIDTH 5 0
BBX 4 7 0 -1
BITMAP
20
70
A0
E0
C0
70
40
ENDCHAR
STARTCHAR U+220B
ENCODING 8715
SWIDTH 1000 0
DWIDTH 5 0
BBX 4 5 0 0
BITMAP
E0
10
70
10
E0
ENDCHAR
STARTCHAR U+220C
ENCODING 8716
SWIDTH 1000 0
DWIDTH 5 0
BBX 4 7 0 -1
BITMAP
20
E0
30
70
50
E0
40
ENDCHAR
STARTCHAR U+220E
ENCODING 8718
SWIDTH 1000 0
DWIDTH 5 0
BBX 3 4 1 1
BITMAP
E0
E0
E0
E0
ENDCHAR
STARTCHAR U+220F
ENCODING 8719
SWIDTH 1000 0
DWIDTH 5 0
BBX 5 8 0 -1
BITMAP
F8
50
50
50
50
50
50
D8
ENDCHAR
STARTCHAR U+2210
ENCODING 8720
SWIDTH 1000 0
DWIDTH 5 0
BBX 5 8 0 -1
BITMAP
D8
50
50
50
50
50
50
F8
ENDCHAR
STARTCHAR U+2211
ENCODING 8721
SWIDTH 1000 0
DWIDTH 5 0
BBX 5 8 0 -1
BITMAP
F8
80
40
20
20
40
80
F8
ENDCHAR
STARTCHAR U+2212
ENCODING 8722
SWIDTH 1000 0
DWIDTH 5 0
BBX 4 1 0 2
BITMAP
F0
ENDCHAR
STARTCHAR U+2213
ENCODING 8723
SWIDTH 1000 0
DWIDTH 5 0
BBX 3 5 1 0
BITMAP
E0
00
40
E0
40
ENDCHAR
STARTCHAR U+2214
ENCODING 8724
SWIDTH 1000 0
DWIDTH 5 0
BBX 3 5 1 0
BITMAP
40
00
40
E0
40
ENDCHAR
STARTCHAR U+2215
ENCODING 8725
SWIDTH 1000 0
DWIDTH 5 0
BBX 4 6 0 0
BITMAP
10
20
20
40
40
80
ENDCHAR
STARTCHAR U+2216
ENCODING 8726
SWIDTH 1000 0
DWIDTH 5 0
BBX 4 6 0 0
BITMAP
80
40
40
20
20
10
ENDCHAR
STARTCHAR U+2217
ENCODING 8727
SWIDTH 1000 0
DWIDTH 5 0
BBX 4 5 0 0
BITMAP
90
60
F0
60
90
ENDCHAR
STARTCHAR U+2218
ENCODING 8728
SWIDTH 1000 0
DWIDTH 5 0
BBX 3 3 1 1
BITMAP
40
A0
40
ENDCHAR
STARTCHAR U+2219
ENCODING 8729
SWIDTH 1000 0
DWIDTH 5 0
BBX 3 3 1 1
BITMAP
40
E0
40
ENDCHAR
STARTCHAR U+221A
ENCODING 8730
SWIDTH 1000 0
DWIDTH 5 0
BBX 5 8 0 -1
BITMAP
18
10
10
10
D0
50
20
20
ENDCHAR
STARTCHAR U+221D
ENCODING 8733
SWIDTH 1000 0
DWIDTH 5 0
BBX 4 4 0 1
BITMAP
50
A0
A0
50
ENDCHAR
STARTCHAR U+221E
ENCODING 8734
SWIDTH 1000 0
DWIDTH 5 0
BBX 5 4 0 1
BITMAP
50
A8
A8
50
ENDCHAR
STARTCHAR U+221F
ENCODING 8735
SWIDTH 1000 0
DWIDTH 5 0
BBX 4 4 0 0
BITMAP
80
80
80
F0
ENDCHAR
STARTCHAR U+2220
ENCODING 8736
SWIDTH 1000 0
DWIDTH 5 0
BBX 4 5 0 0
BITMAP
10
20
40
80
F0
ENDCHAR
STARTCHAR U+2221
ENCODING 8737
SWIDTH 1000 0
DWIDTH 5 0
BBX 4 6 0 -1
BITMAP
10
A0
40
A0
F0
20
ENDCHAR
STARTCHAR U+2222
ENCODING 8738
SWIDTH 1000 0
DWIDTH 5 0
BBX 4 6 0 0
BITMAP
90
60
A0
A0
60
90
ENDCHAR
STARTCHAR U+2223
ENCODING 8739
SWIDTH 1000 0
DWIDTH 5 0
BBX 1 6 2 0
BITMAP
80
80
80
80
80
80
ENDCHAR
STARTCHAR U+2224
ENCODING 8740
SWIDTH 1000 0
DWIDTH 5 0
BBX 3 6 1 0
BITMAP
40
40
60
C0
40
40
ENDCHAR
STARTCHAR U+2225
ENCODING 8741
SWIDTH 1000 0
DWIDTH 5 0
BBX 3 6 1 0
BITMAP
A0
A0
A0
A0
A0
A0
ENDCHAR
STARTCHAR U+2226
ENCODING 8742
SWIDTH 1000 0
DWIDTH 5 0
BBX 5 6 0 0
BITMAP
50
58
70
D0
50
50
ENDCHAR
STARTCHAR U+2227
ENCODING 8743
SWIDTH 1000 0
DWIDTH 5 0
BBX 4 4 0 0
BITMAP
60
60
90
90
ENDCHAR
STARTCHAR U+2228
ENCODING 8744
SWIDTH 1000 0
DWIDTH 5 0
BBX 4 4 0 0
BITMAP
90
90
60
60
ENDCHAR
STARTCHAR U+2229
ENCODING 8745
SWIDTH 1000 0
DWIDTH 5 0
BBX 4 4 0 0
BITMAP
60
90
90
90
ENDCHAR
STARTCHAR U+222A
ENCODING 8746
SWIDTH 1000 0
DWIDTH 5 0
BBX 4 4 0 0
BITMAP
90
90
90
60
ENDCHAR
STARTCHAR U+222B
ENCODING 8747
SWIDTH 1000 0
DWIDTH 5 0
BBX 5 8 0 -1
BITMAP
10
28
20
20
20
20
A0
40
ENDCHAR
STARTCHAR U+222E
ENCODING 8750
SWIDTH 1000 0
DWIDTH 5 0
BBX 5 8 0 -1
BITMAP
10
28
20
70
70
20
A0
40
ENDCHAR
STARTCHAR U+2234
ENCODING 8756
SWIDTH 1000 0
DWIDTH 5 0
BBX 3 3 1 1
BITMAP
40
00
A0
ENDCHAR
STARTCHAR U+2235
ENCODING 8757
SWIDTH 1000 0
DWIDTH 5 0
BBX 3 3 1 1
BITMAP
A0
00
40
ENDCHAR
STARTCHAR U+2236
ENCODING 8758
SWIDTH 1000 0
DWIDTH 5 0
BBX 1 3 2 1
BITMAP
80
00
80
ENDCHAR
STARTCHAR U+2237
ENCODING 8759
SWIDTH 1000 0
DWIDTH 5 0
BBX 3 3 1 1
BITMAP
A0
00
A0
ENDCHAR
STARTCHAR U+2238
ENCODING 8760
SWIDTH 1000 0
DWIDTH 5 0
BBX 4 3 0 2
BITMAP
60
00
F0
ENDCHAR
STARTCHAR U+2239
ENCODING 8761
SWIDTH 1000 0
DWIDTH 5 0
BBX 4 3 0 1
BITMAP
10
C0
10
ENDCHAR
STARTCHAR U+223A
ENCODING 8762
SWIDTH 1000 0
DWIDTH 5 0
BBX 4 5 0 0
BITMAP
90
00
F0
00
90
ENDCHAR
STARTCHAR U+223B
ENCODING 8763
SWIDTH 1000 0
DWIDTH 5 0
BBX 4 6 0 0
BITMAP
20
00
50
A0
00
40
ENDCHAR
STARTCHAR U+223C
ENCODING 8764
SWIDTH 1000 0
DWIDTH 5 0
BBX 4 2 0 2
BITMAP
50
A0
ENDCHAR
STARTCHAR U+223D
ENCODING 8765
SWIDTH 1000 0
DWIDTH 5 0
BBX 4 2 0 2
BITMAP
A0
50
ENDCHAR
STARTCHAR U+2240
ENCODING 8768
SWIDTH 1000 0
DWIDTH 5 0
BBX 2 6 1 0
BITMAP
80
40
40
80
80
40
ENDCHAR
STARTCHAR U+2242
ENCODING 8770
SWIDTH 1000 0
DWIDTH 5 0
BBX 4 4 0 0
BITMAP
F0
00
50
A0
ENDCHAR
STARTCHAR U+2243
ENCODING 8771
SWIDTH 1000 0
DWIDTH 5 0
BBX 4 4 0 0
BITMAP
50
A0
00
F0
ENDCHAR
STARTCHAR U+2245
ENCODING 8773
SWIDTH 1000 0
DWIDTH 5 0
BBX 4 6 0 0
BITMAP
50
A0
00
F0
00
F0
ENDCHAR
STARTCHAR U+2248
ENCODING 8776
SWIDTH 1000 0
DWIDTH 5 0
BBX 4 4 0 0
BITMAP
50
A0
50
A0
ENDCHAR
STARTCHAR U+2249
ENCODING 8777
SWIDTH 1000 0
DWIDTH 5 0
BBX 4 6 0 -1
BITMAP
20
70
A0
50
E0
40
ENDCHAR
STARTCHAR U+224A
ENCODING 8778
SWIDTH 1000 0
DWIDTH 5 0
BBX 4 6 0 0
BITMAP
50
A0
50
A0
00
F0
ENDCHAR
STARTCHAR U+224B
ENCODING 8779
SWIDTH 1000 0
DWIDTH 5 0
BBX 4 6 0 0
BITMAP
50
A0
50
A0
50
A0
ENDCHAR
STARTCHAR U+2258
ENCODING 8792
SWIDTH 1000 0
DWIDTH 5 0
BBX 4 6 0 0
BITMAP
60
90
00
F0
00
F0
ENDCHAR
STARTCHAR U+2259
ENCODING 8793
SWIDTH 1000 0
DWIDTH 5 0
BBX 4 6 0 0
BITMAP
20
50
00
F0
00
F0
ENDCHAR
STARTCHAR U+225A
ENCODING 8794
SWIDTH 1000 0
DWIDTH 5 0
BBX 4 6 0 0
BITMAP
50
20
00
F0
00
F0
ENDCHAR
STARTCHAR U+225F
ENCODING 8799
SWIDTH 1000 0
DWIDTH 5 0
BBX 4 8 0 -1
BITMAP
40
20
40
00
40
F0
00
F0
ENDCHAR
STARTCHAR U+2260
ENCODING 8800
SWIDTH 1000 0
DWIDTH 5 0
BBX 4 5 0 0
BITMAP
20
F0
60
F0
40
ENDCHAR
STARTCHAR U+2261
ENCODING 8801
SWIDTH 1000 0
DWIDTH 5 0
BBX 4 5 0 0
BITMAP
F0
00
F0
00
F0
ENDCHAR
STARTCHAR U+2262
ENCODING 8802
SWIDTH 1000 0
DWIDTH 5 0
BBX 4 7 0 -1
BITMAP
10
F0
20
F0
40
F0
80
ENDCHAR
STARTCHAR U+2263
ENCODING 8803
SWIDTH 1000 0
DWIDTH 5 0
BBX 4 7 0 0
BITMAP
F0
00
F0
00
F0
00
F0
ENDCHAR
STARTCHAR U+2264
ENCODING 8804
SWIDTH 1000 0
DWIDTH 5 0
BBX 3 6 1 0
BITMAP
20
40
80
40
20
E0
ENDCHAR
STARTCHAR U+2265
ENCODING 8805
SWIDTH 1000 0
DWIDTH 5 0
BBX 3 6 1 0
BITMAP
80
40
20
40
80
E0
ENDCHAR
STARTCHAR U+226A
ENCODING 8810
SWIDTH 1000 0
DWIDTH 5 0
BBX 5 5 0 0
BITMAP
28
50
A0
50
28
ENDCHAR
STARTCHAR U+226B
ENCODING 8811
SWIDTH 1000 0
DWIDTH 5 0
BBX 5 5 0 0
BITMAP
A0
50
28
50
A0
ENDCHAR
STARTCHAR U+2282
ENCODING 8834
SWIDTH 1000 0
DWIDTH 5 0
BBX 4 3 0 1
BITMAP
70
80
70
ENDCHAR
STARTCHAR U+2283
ENCODING 8835
SWIDTH 1000 0
DWIDTH 5 0
BBX 4 3 0 1
BITMAP
E0
10
E0
ENDCHAR
STARTCHAR U+2284
ENCODING 8836
SWIDTH 1000 0
DWIDTH 5 0
BBX 4 5 0 0
BITMAP
20
70
A0
70
20
ENDCHAR
STARTCHAR U+2285
ENCODING 8837
SWIDTH 1000 0
DWIDTH 5 0
BBX 4 5 0 0
BITMAP
40
E0
50
E0
40
ENDCHAR
STARTCHAR U+2286
ENCODING 8838
SWIDTH 1000 0
DWIDTH 5 0
BBX 4 5 0 0
BITMAP
70
80
70
00
F0
ENDCHAR
STARTCHAR U+2287
ENCODING 8839
SWIDTH 1000 0
DWIDTH 5 0
BBX 4 5 0 0
BITMAP
E0
10
E0
00
F0
ENDCHAR
STARTCHAR U+2288
ENCODING 8840
SWIDTH 1000 0
DWIDTH 5 0
BBX 4 7 0 -1
BITMAP
20
70
A0
70
20
F0
20
ENDCHAR
STARTCHAR U+2289
ENCODING 8841
SWIDTH 1000 0
DWIDTH 5 0
BBX 4 7 0 -1
BITMAP
40
E0
50
E0
40
F0
40
ENDCHAR
STARTCHAR U+228A
ENCODING 8842
SWIDTH 1000 0
DWIDTH 5 0
BBX 4 6 0 -1
BITMAP
70
80
70
20
F0
40
ENDCHAR
STARTCHAR U+228B
ENCODING 8843
SWIDTH 1000 0
DWIDTH 5 0
BBX 4 6 0 -1
BITMAP
E0
10
E0
20
F0
40
ENDCHAR
STARTCHAR U+2295
ENCODING 8853
SWIDTH 1000 0
DWIDTH 5 0
BBX 5 5 0 0
BITMAP
70
A8
F8
A8
70
ENDCHAR
STARTCHAR U+2296
ENCODING 8854
SWIDTH 1000 0
DWIDTH 5 0
BBX 5 5 0 0
BITMAP
70
88
F8
88
70
ENDCHAR
STARTCHAR U+2297
ENCODING 8855
SWIDTH 1000 0
DWIDTH 5 0
BBX 5 5 0 0
BITMAP
70
D8
A8
D8
70
ENDCHAR
STARTCHAR U+2298
ENCODING 8856
SWIDTH 1000 0
DWIDTH 5 0
BBX 5 5 0 0
BITMAP
70
98
A8
C8
70
ENDCHAR
STARTCHAR U+2299
ENCODING 8857
SWIDTH 1000 0
DWIDTH 5 0
BBX 5 5 0 0
BITMAP
70
88
A8
88
70
ENDCHAR
STARTCHAR U+229E
ENCODING 8862
SWIDTH 1000 0
DWIDTH 5 0
BBX 5 5 0 0
BITMAP
F8
A8
F8
A8
F8
ENDCHAR
STARTCHAR U+229F
ENCODING 8863
SWIDTH 1000 0
DWIDTH 5 0
BBX 5 5 0 0
BITMAP
F8
88
F8
88
F8
ENDCHAR
STARTCHAR U+22A0
ENCODING 8864
SWIDTH 1000 0
DWIDTH 5 0
BBX 5 5 0 0
BITMAP
F8
D8
A8
D8
F8
ENDCHAR
STARTCHAR U+22A1
ENCODING 8865
SWIDTH 1000 0
DWIDTH 5 0
BBX 5 5 0 0
BITMAP
F8
88
A8
88
F8
ENDCHAR
STARTCHAR U+22A2
ENCODING 8866
SWIDTH 1000 0
DWIDTH 5 0
BBX 4 5 0 0
BITMAP
80
80
F0
80
80
ENDCHAR
STARTCHAR U+22A3
ENCODING 8867
SWIDTH 1000 0
DWIDTH 5 0
BBX 4 5 0 0
BITMAP
10
10
F0
10
10
ENDCHAR
STARTCHAR U+22A4
ENCODING 8868
SWIDTH 1000 0
DWIDTH 5 0
BBX 5 6 0 0
BITMAP
F8
20
20
20
20
20
ENDCHAR
STARTCHAR U+22A5
ENCODING 8869
SWIDTH 1000 0
DWIDTH 5 0
BBX 5 6 0 0
BITMAP
20
20
20
20
20
F8
ENDCHAR
STARTCHAR U+22A6
ENCODING 8870
SWIDTH 1000 0
DWIDTH 5 0
BBX 3 5 1 0
BITMAP
80
80
E0
80
80
ENDCHAR
STARTCHAR U+22A7
ENCODING 8871
SWIDTH 1000 0
DWIDTH 5 0
BBX 3 5 1 0
BITMAP
80
E0
80
E0
80
ENDCHAR
STARTCHAR U+22A8
ENCODING 8872
SWIDTH 1000 0
DWIDTH 5 0
BBX 4 5 0 0
BITMAP
80
F0
80
F0
80
ENDCHAR
STARTCHAR U+22C0
ENCODING 8896
SWIDTH 1000 0
DWIDTH 5 0
BBX 5 8 0 -1
BITMAP
20
20
50
50
50
88
88
88
ENDCHAR
STARTCHAR U+22C1
ENCODING 8897
SWIDTH 1000 0
DWIDTH 5 0
BBX 5 8 0 -1
BITMAP
88
88
88
50
50
50
20
20
ENDCHAR
STARTCHAR U+22C2
ENCODING 8898
SWIDTH 1000 0
DWIDTH 5 0
BBX 5 8 0 -1
BITMAP
20
50
88
88
88
88
88
88
ENDCHAR
STARTCHAR U+22C3
ENCODING 8899
SWIDTH 1000 0
DWIDTH 5 0
BBX 5 8 0 -1
BITMAP
88
88
88
88
88
88
50
20
ENDCHAR
STARTCHAR U+22C5
ENCODING 8901
SWIDTH 1000 0
DWIDTH 5 0
BBX 1 1 2 2
BITMAP
80
ENDCHAR
STARTCHAR U+2300
ENCODING 8960
SWIDTH 1000 0
DWIDTH 5 0
BBX 4 4 0 0
BITMAP
50
A0
50
A0
ENDCHAR
STARTCHAR U+2302
ENCODING 8962
SWIDTH 1000 0
DWIDTH 5 0
BBX 4 6 0 0
BITMAP
60
90
90
90
90
F0
ENDCHAR
STARTCHAR U+2308
ENCODING 8968
SWIDTH 1000 0
DWIDTH 5 0
BBX 3 6 1 0
BITMAP
E0
80
80
80
80
80
ENDCHAR
STARTCHAR U+2309
ENCODING 8969
SWIDTH 1000 0
DWIDTH 5 0
BBX 3 6 1 0
BITMAP
E0
20
20
20
20
20
ENDCHAR
STARTCHAR U+230A
ENCODING 8970
SWIDTH 1000 0
DWIDTH 5 0
BBX 3 6 1 0
BITMAP
80
80
80
80
80
E0
ENDCHAR
STARTCHAR U+230B
ENCODING 8971
SWIDTH 1000 0
DWIDTH 5 0
BBX 3 6 1 0
BITMAP
20
20
20
20
20
E0
ENDCHAR
STARTCHAR U+2310
ENCODING 8976
SWIDTH 1000 0
DWIDTH 5 0
BBX 3 3 1 0
BITMAP
E0
80
80
ENDCHAR
STARTCHAR U+2315
ENCODING 8981
SWIDTH 1000 0
DWIDTH 5 0
BBX 4 4 0 0
BITMAP
60
90
D0
E0
ENDCHAR
STARTCHAR U+2320
ENCODING 8992
SWIDTH 1000 0
DWIDTH 5 0
BBX 3 7 2 -1
BITMAP
40
A0
80
80
80
80
80
ENDCHAR
STARTCHAR U+2321
ENCODING 8993
SWIDTH 1000 0
DWIDTH 5 0
BBX 3 7 0 0
BITMAP
20
20
20
20
20
A0
40
ENDCHAR
STARTCHAR U+23BA
ENCODING 9146
SWIDTH 1000 0
DWIDTH 5 0
BBX 5 1 0 6
BITMAP
F8
ENDCHAR
STARTCHAR U+23BB
ENCODING 9147
SWIDTH 1000 0
DWIDTH 5 0
BBX 5 1 0 5
BITMAP
F8
ENDCHAR
STARTCHAR U+23BC
ENCODING 9148
SWIDTH 1000 0
DWIDTH 5 0
BBX 5 1 0 0
BITMAP
F8
ENDCHAR
STARTCHAR U+23BD
ENCODING 9149
SWIDTH 1000 0
DWIDTH 5 0
BBX 5 1 0 -1
BITMAP
F8
ENDCHAR
STARTCHAR U+2409
ENCODING 9225
SWIDTH 1000 0
DWIDTH 5 0
BBX 4 8 0 -1
BITMAP
A0
A0
E0
A0
A0
70
20
20
ENDCHAR
STARTCHAR U+240A
ENCODING 9226
SWIDTH 1000 0
DWIDTH 5 0
BBX 5 8 0 -1
BITMAP
80
80
80
E0
38
20
30
20
ENDCHAR
STARTCHAR U+240B
ENCODING 9227
SWIDTH 1000 0
DWIDTH 5 0
BBX 5 8 0 -1
BITMAP
A0
A0
A0
40
38
10
10
10
ENDCHAR
STARTCHAR U+240C
ENCODING 9228
SWIDTH 1000 0
DWIDTH 5 0
BBX 5 8 0 -1
BITMAP
E0
80
C0
B8
A0
30
20
20
ENDCHAR
STARTCHAR U+240D
ENCODING 9229
SWIDTH 1000 0
DWIDTH 5 0
BBX 5 8 0 -1
BITMAP
60
80
80
60
30
28
30
28
ENDCHAR
STARTCHAR U+2424
ENCODING 9252
SWIDTH 1000 0
DWIDTH 5 0
BBX 5 8 0 -1
BITMAP
90
D0
B0
90
20
20
20
38
ENDCHAR
STARTCHAR U+2500
ENCODING 9472
SWIDTH 1000 0
DWIDTH 5 0
BBX 5 1 0 3
BITMAP
F8
ENDCHAR
STARTCHAR U+2501
ENCODING 9473
SWIDTH 1000 0
DWIDTH 5 0
BBX 5 2 0 2
BITMAP
F8
F8
ENDCHAR
STARTCHAR U+2502
ENCODING 9474
SWIDTH 1000 0
DWIDTH 5 0
BBX 1 8 2 -1
BITMAP
80
80
80
80
80
80
80
80
ENDCHAR
STARTCHAR U+2503
ENCODING 9475
SWIDTH 1000 0
DWIDTH 5 0
BBX 2 8 2 -1
BITMAP
C0
C0
C0
C0
C0
C0
C0
C0
ENDCHAR
STARTCHAR U+2504
ENCODING 9476
SWIDTH 1000 0
DWIDTH 5 0
BBX 5 1 0 3
BITMAP
A8
ENDCHAR
STARTCHAR U+2505
ENCODING 9477
SWIDTH 1000 0
DWIDTH 5 0
BBX 5 2 0 2
BITMAP
A8
A8
ENDCHAR
STARTCHAR U+2506
ENCODING 9478
SWIDTH 1000 0
DWIDTH 5 0
BBX 1 8 2 -1
BITMAP
80
80
00
80
80
00
80
80
ENDCHAR
STARTCHAR U+2507
ENCODING 9479
SWIDTH 1000 0
DWIDTH 5 0
BBX 2 8 2 -1
BITMAP
C0
C0
00
C0
C0
00
C0
C0
ENDCHAR
STARTCHAR U+2508
ENCODING 9480
SWIDTH 1000 0
DWIDTH 5 0
BBX 5 1 0 3
BITMAP
A8
ENDCHAR
STARTCHAR U+2509
ENCODING 9481
SWIDTH 1000 0
DWIDTH 5 0
BBX 5 2 0 2
BITMAP
A8
A8
ENDCHAR
STARTCHAR U+250A
ENCODING 9482
SWIDTH 1000 0
DWIDTH 5 0
BBX 1 7 2 0
BITMAP
80
00
80
00
80
00
80
ENDCHAR
STARTCHAR U+250B
ENCODING 9483
SWIDTH 1000 0
DWIDTH 5 0
BBX 2 7 2 0
BITMAP
C0
00
C0
00
C0
00
C0
ENDCHAR
STARTCHAR U+250C
ENCODING 9484
SWIDTH 1000 0
DWIDTH 5 0
BBX 3 5 2 -1
BITMAP
E0
80
80
80
80
ENDCHAR
STARTCHAR U+250D
ENCODING 9485
SWIDTH 1000 0
DWIDTH 5 0
BBX 3 5 2 -1
BITMAP
E0
E0
80
80
80
ENDCHAR
STARTCHAR U+250E
ENCODING 9486
SWIDTH 1000 0
DWIDTH 5 0
BBX 3 5 2 -1
BITMAP
E0
C0
C0
C0
C0
ENDCHAR
STARTCHAR U+250F
ENCODING 9487
SWIDTH 1000 0
DWIDTH 5 0
BBX 3 5 2 -1
BITMAP
E0
E0
C0
C0
C0
ENDCHAR
STARTCHAR U+2510
ENCODING 9488
SWIDTH 1000 0
DWIDTH 5 0
BBX 3 5 0 -1
BITMAP
E0
20
20
20
20
ENDCHAR
STARTCHAR U+2511
ENCODING 9489
SWIDTH 1000 0
DWIDTH 5 0
BBX 3 5 0 -1
BITMAP
E0
E0
20
20
20
ENDCHAR
STARTCHAR U+2512
ENCODING 9490
SWIDTH 1000 0
DWIDTH 5 0
BBX 4 5 0 -1
BITMAP
F0
30
30
30
30
ENDCHAR
STARTCHAR U+2513
ENCODING 9491
SWIDTH 1000 0
DWIDTH 5 0
BBX 4 5 0 -1
BITMAP
F0
F0
30
30
30
ENDCHAR
STARTCHAR U+2514
ENCODING 9492
SWIDTH 1000 0
DWIDTH 5 0
BBX 3 4 2 3
BITMAP
80
80
80
E0
ENDCHAR
STARTCHAR U+2515
ENCODING 9493
SWIDTH 1000 0
DWIDTH 5 0
BBX 3 5 2 2
BITMAP
80
80
80
E0
E0
ENDCHAR
STARTCHAR U+2516
ENCODING 9494
SWIDTH 1000 0
DWIDTH 5 0
BBX 3 4 2 3
BITMAP
C0
C0
C0
E0
ENDCHAR
STARTCHAR U+2517
ENCODING 9495
SWIDTH 1000 0
DWIDTH 5 0
BBX 3 5 2 2
BITMAP
C0
C0
C0
E0
E0
ENDCHAR
STARTCHAR U+2518
ENCODING 9496
SWIDTH 1000 0
DWIDTH 5 0
BBX 3 4 0 3
BITMAP
20
20
20
E0
ENDCHAR
STARTCHAR U+2519
ENCODING 9497
SWIDTH 1000 0
DWIDTH 5 0
BBX 3 5 0 2
BITMAP
20
20
20
E0
E0
ENDCHAR
STARTCHAR U+251A
ENCODING 9498
SWIDTH 1000 0
DWIDTH 5 0
BBX 4 4 0 3
BITMAP
30
30
30
F0
ENDCHAR
STARTCHAR U+251B
ENCODING 9499
SWIDTH 1000 0
DWIDTH 5 0
BBX 4 5 0 2
BITMAP
30
30
30
F0
F0
ENDCHAR
STARTCHAR U+251C
ENCODING 9500
SWIDTH 1000 0
DWIDTH 5 0
BBX 3 8 2 -1
BITMAP
80
80
80
E0
80
80
80
80
ENDCHAR
STARTCHAR U+251D
ENCODING 9501
SWIDTH 1000 0
DWIDTH 5 0
BBX 3 8 2 -1
BITMAP
80
80
80
E0
E0
80
80
80
ENDCHAR
STARTCHAR U+251E
ENCODING 9502
SWIDTH 1000 0
DWIDTH 5 0
BBX 3 8 2 -1
BITMAP
C0
C0
C0
E0
80
80
80
80
ENDCHAR
STARTCHAR U+251F
ENCODING 9503
SWIDTH 1000 0
DWIDTH 5 0
BBX 3 8 2 -1
BITMAP
80
80
80
E0
C0
C0
C0
C0
ENDCHAR
STARTCHAR U+2520
ENCODING 9504
SWIDTH 1000 0
DWIDTH 5 0
BBX 3 8 2 -1
BITMAP
C0
C0
C0
E0
C0
C0
C0
C0
ENDCHAR
STARTCHAR U+2521
ENCODING 9505
SWIDTH 1000 0
DWIDTH 5 0
BBX 3 8 2 -1
BITMAP
C0
C0
C0
E0
E0
80
80
80
ENDCHAR
STARTCHAR U+2522
ENCODING 9506
SWIDTH 1000 0
DWIDTH 5 0
BBX 3 8 2 -1
BITMAP
80
80
80
E0
E0
C0
C0
C0
ENDCHAR
STARTCHAR U+2523
ENCODING 9507
SWIDTH 1000 0
DWIDTH 5 0
BBX 3 8 2 -1
BITMAP
C0
C0
C0
E0
E0
C0
C0
C0
ENDCHAR
STARTCHAR U+2524
ENCODING 9508
SWIDTH 1000 0
DWIDTH 5 0
BBX 3 8 0 -1
BITMAP
20
20
20
E0
20
20
20
20
ENDCHAR
STARTCHAR U+2525
ENCODING 9509
SWIDTH 1000 0
DWIDTH 5 0
BBX 3 8 0 -1
BITMAP
20
20
20
E0
E0
20
20
20
ENDCHAR
STARTCHAR U+2526
ENCODING 9510
SWIDTH 1000 0
DWIDTH 5 0
BBX 4 8 0 -1
BITMAP
30
30
30
F0
20
20
20
20
ENDCHAR
STARTCHAR U+2527
ENCODING 9511
SWIDTH 1000 0
DWIDTH 5 0
BBX 4 8 0 -1
BITMAP
20
20
20
F0
30
30
30
30
ENDCHAR
STARTCHAR U+2528
ENCODING 9512
SWIDTH 1000 0
DWIDTH 5 0
BBX 4 8 0 -1
BITMAP
30
30
30
F0
30
30
30
30
ENDCHAR
STARTCHAR U+2529
ENCODING 9513
SWIDTH 1000 0
DWIDTH 5 0
BBX 4 8 0 -1
BITMAP
30
30
30
F0
F0
20
20
20
ENDCHAR
STARTCHAR U+252A
ENCODING 9514
SWIDTH 1000 0
DWIDTH 5 0
BBX 4 8 0 -1
BITMAP
20
20
20
F0
F0
30
30
30
ENDCHAR
STARTCHAR U+252B
ENCODING 9515
SWIDTH 1000 0
DWIDTH 5 0
BBX 4 8 0 -1
BITMAP
30
30
30
F0
F0
30
30
30
ENDCHAR
STARTCHAR U+252C
ENCODING 9516
SWIDTH 1000 0
DWIDTH 5 0
BBX 5 5 0 -1
BITMAP
F8
20
20
20
20
ENDCHAR
STARTCHAR U+252D
ENCODING 9517
SWIDTH 1000 0
DWIDTH 5 0
BBX 5 5 0 -1
BITMAP
F8
E0
20
20
20
ENDCHAR
STARTCHAR U+252E
ENCODING 9518
SWIDTH 1000 0
DWIDTH 5 0
BBX 5 5 0 -1
BITMAP
F8
38
20
20
20
ENDCHAR
STARTCHAR U+252F
ENCODING 9519
SWIDTH 1000 0
DWIDTH 5 0
BBX 5 5 0 -1
BITMAP
F8
F8
20
20
20
ENDCHAR
STARTCHAR U+2530
ENCODING 9520
SWIDTH 1000 0
DWIDTH 5 0
BBX 5 5 0 -1
BITMAP
F8
30
30
30
30
ENDCHAR
STARTCHAR U+2531
ENCODING 9521
SWIDTH 1000 0
DWIDTH 5 0
BBX 5 5 0 -1
BITMAP
F8
F0
30
30
30
ENDCHAR
STARTCHAR U+2532
ENCODING 9522
SWIDTH 1000 0
DWIDTH 5 0
BBX 5 5 0 -1
BITMAP
F8
38
30
30
30
ENDCHAR
STARTCHAR U+2533
ENCODING 9523
SWIDTH 1000 0
DWIDTH 5 0
BBX 5 5 0 -1
BITMAP
F8
F8
30
30
30
ENDCHAR
STARTCHAR U+2534
ENCODING 9524
SWIDTH 1000 0
DWIDTH 5 0
BBX 5 4 0 3
BITMAP
20
20
20
F8
ENDCHAR
STARTCHAR U+2535
ENCODING 9525
SWIDTH 1000 0
DWIDTH 5 0
BBX 5 5 0 2
BITMAP
20
20
20
F8
E0
ENDCHAR
STARTCHAR U+2536
ENCODING 9526
SWIDTH 1000 0
DWIDTH 5 0
BBX 5 5 0 2
BITMAP
20
20
20
F8
38
ENDCHAR
STARTCHAR U+2537
ENCODING 9527
SWIDTH 1000 0
DWIDTH 5 0
BBX 5 5 0 2
BITMAP
20
20
20
F8
F8
ENDCHAR
STARTCHAR U+2538
ENCODING 9528
SWIDTH 1000 0
DWIDTH 5 0
BBX 5 4 0 3
BITMAP
30
30
30
F8
ENDCHAR
STARTCHAR U+2539
ENCODING 9529
SWIDTH 1000 0
DWIDTH 5 0
BBX 5 5 0 2
BITMAP
30
30
30
F8
F0
ENDCHAR
STARTCHAR U+253A
ENCODING 9530
SWIDTH 1000 0
DWIDTH 5 0
BBX 5 5 0 2
BITMAP
30
30
30
F8
38
ENDCHAR
STARTCHAR U+253B
ENCODING 9531
SWIDTH 1000 0
DWIDTH 5 0
BBX 5 5 0 2
BITMAP
30
30
30
F8
F8
ENDCHAR
STARTCHAR U+253C
ENCODING 9532
SWIDTH 1000 0
DWIDTH 5 0
BBX 5 8 0 -1
BITMAP
20
20
20
F8
20
20
20
20
ENDCHAR
STARTCHAR U+253D
ENCODING 9533
SWIDTH 1000 0
DWIDTH 5 0
BBX 5 8 0 -1
BITMAP
20
20
20
F8
E0
20
20
20
ENDCHAR
STARTCHAR U+253E
ENCODING 9534
SWIDTH 1000 0
DWIDTH 5 0
BBX 5 8 0 -1
BITMAP
20
20
20
F8
38
20
20
20
ENDCHAR
STARTCHAR U+253F
ENCODING 9535
SWIDTH 1000 0
DWIDTH 5 0
BBX 5 8 0 -1
BITMAP
20
20
20
F8
F8
20
20
20
ENDCHAR
STARTCHAR U+2540
ENCODING 9536
SWIDTH 1000 0
DWIDTH 5 0
BBX 5 8 0 -1
BITMAP
30
30
30
F8
20
20
20
20
ENDCHAR
STARTCHAR U+2541
ENCODING 9537
SWIDTH 1000 0
DWIDTH 5 0
BBX 5 8 0 -1
BITMAP
20
20
20
F8
30
30
30
30
ENDCHAR
STARTCHAR U+2542
ENCODING 9538
SWIDTH 1000 0
DWIDTH 5 0
BBX 5 8 0 -1
BITMAP
30
30
30
F8
30
30
30
30
ENDCHAR
STARTCHAR U+2543
ENCODING 9539
SWIDTH 1000 0
DWIDTH 5 0
BBX 5 8 0 -1
BITMAP
30
30
30
F8
F0
20
20
20
ENDCHAR
STARTCHAR U+2544
ENCODING 9540
SWIDTH 1000 0
DWIDTH 5 0
BBX 5 8 0 -1
BITMAP
30
30
30
F8
38
20
20
20
ENDCHAR
STARTCHAR U+2545
ENCODING 9541
SWIDTH 1000 0
DWIDTH 5 0
BBX 5 8 0 -1
BITMAP
20
20
20
F8
F0
30
30
30
ENDCHAR
STARTCHAR U+2546
ENCODING 9542
SWIDTH 1000 0
DWIDTH 5 0
BBX 5 8 0 -1
BITMAP
20
20
20
F8
38
30
30
30
ENDCHAR
STARTCHAR U+2547
ENCODING 9543
SWIDTH 1000 0
DWIDTH 5 0
BBX 5 8 0 -1
BITMAP
30
30
30
F8
F8
20
20
20
ENDCHAR
STARTCHAR U+2548
ENCODING 9544
SWIDTH 1000 0
DWIDTH 5 0
BBX 5 8 0 -1
BITMAP
20
20
20
F8
F8
30
30
30
ENDCHAR
STARTCHAR U+2549
ENCODING 9545
SWIDTH 1000 0
DWIDTH 5 0
BBX 5 8 0 -1
BITMAP
30
30
30
F8
F0
30
30
30
ENDCHAR
STARTCHAR U+254A
ENCODING 9546
SWIDTH 1000 0
DWIDTH 5 0
BBX 5 8 0 -1
BITMAP
30
30
30
F8
38
30
30
30
ENDCHAR
STARTCHAR U+254B
ENCODING 9547
SWIDTH 1000 0
DWIDTH 5 0
BBX 5 8 0 -1
BITMAP
30
30
30
F8
F8
30
30
30
ENDCHAR
STARTCHAR U+254C
ENCODING 9548
SWIDTH 1000 0
DWIDTH 5 0
BBX 4 1 0 3
BITMAP
B0
ENDCHAR
STARTCHAR U+254D
ENCODING 9549
SWIDTH 1000 0
DWIDTH 5 0
BBX 4 2 0 2
BITMAP
B0
B0
ENDCHAR
STARTCHAR U+254E
ENCODING 9550
SWIDTH 1000 0
DWIDTH 5 0
BBX 1 7 2 0
BITMAP
80
80
80
00
80
80
80
ENDCHAR
STARTCHAR U+254F
ENCODING 9551
SWIDTH 1000 0
DWIDTH 5 0
BBX 2 7 2 0
BITMAP
C0
C0
C0
00
C0
C0
C0
ENDCHAR
STARTCHAR U+2550
ENCODING 9552
SWIDTH 1000 0
DWIDTH 5 0
BBX 5 3 0 2
BITMAP
F8
00
F8
ENDCHAR
STARTCHAR U+2551
ENCODING 9553
SWIDTH 1000 0
DWIDTH 5 0
BBX 3 8 1 -1
BITMAP
A0
A0
A0
A0
A0
A0
A0
A0
ENDCHAR
STARTCHAR U+2552
ENCODING 9554
SWIDTH 1000 0
DWIDTH 5 0
BBX 3 6 2 -1
BITMAP
E0
80
E0
80
80
80
ENDCHAR
STARTCHAR U+2553
ENCODING 9555
SWIDTH 1000 0
DWIDTH 5 0
BBX 4 5 1 -1
BITMAP
F0
A0
A0
A0
A0
ENDCHAR
STARTCHAR U+2554
ENCODING 9556
SWIDTH 1000 0
DWIDTH 5 0
BBX 4 6 1 -1
BITMAP
F0
80
B0
A0
A0
A0
ENDCHAR
STARTCHAR U+2555
ENCODING 9557
SWIDTH 1000 0
DWIDTH 5 0
BBX 3 6 0 -1
BITMAP
E0
20
E0
20
20
20
ENDCHAR
STARTCHAR U+2556
ENCODING 9558
SWIDTH 1000 0
DWIDTH 5 0
BBX 4 5 0 -1
BITMAP
F0
50
50
50
50
ENDCHAR
STARTCHAR U+2557
ENCODING 9559
SWIDTH 1000 0
DWIDTH 5 0
BBX 4 6 0 -1
BITMAP
F0
10
D0
50
50
50
ENDCHAR
STARTCHAR U+2558
ENCODING 9560
SWIDTH 1000 0
DWIDTH 5 0
BBX 3 5 2 2
BITMAP
80
80
E0
80
E0
ENDCHAR
STARTCHAR U+2559
ENCODING 9561
SWIDTH 1000 0
DWIDTH 5 0
BBX 4 4 1 3
BITMAP
A0
A0
A0
F0
ENDCHAR
STARTCHAR U+255A
ENCODING 9562
SWIDTH 1000 0
DWIDTH 5 0
BBX 4 5 1 2
BITMAP
A0
A0
B0
80
F0
ENDCHAR
STARTCHAR U+255B
ENCODING 9563
SWIDTH 1000 0
DWIDTH 5 0
BBX 3 5 0 2
BITMAP
20
20
E0
20
E0
ENDCHAR
STARTCHAR U+255C
ENCODING 9564
SWIDTH 1000 0
DWIDTH 5 0
BBX 4 4 0 3
BITMAP
50
50
50
F0
ENDCHAR
STARTCHAR U+255D
ENCODING 9565
SWIDTH 1000 0
DWIDTH 5 0
BBX 4 5 0 2
BITMAP
50
50
D0
10
F0
ENDCHAR
STARTCHAR U+255E
ENCODING 9566
SWIDTH 1000 0
DWIDTH 5 0
BBX 3 8 2 -1
BITMAP
80
80
E0
80
E0
80
80
80
ENDCHAR
STARTCHAR U+255F
ENCODING 9567
SWIDTH 1000 0
DWIDTH 5 0
BBX 4 8 1 -1
BITMAP
A0
A0
A0
B0
A0
A0
A0
A0
ENDCHAR
STARTCHAR U+2560
ENCODING 9568
SWIDTH 1000 0
DWIDTH 5 0
BBX 4 8 1 -1
BITMAP
A0
A0
B0
80
B0
A0
A0
A0
ENDCHAR
STARTCHAR U+2561
ENCODING 9569
SWIDTH 1000 0
DWIDTH 5 0
BBX 3 8 0 -1
BITMAP
20
20
E0
20
E0
20
20
20
ENDCHAR
STARTCHAR U+2562
ENCODING 9570
SWIDTH 1000 0
DWIDTH 5 0
BBX 4 8 0 -1
BITMAP
50
50
50
D0
50
50
50
50
ENDCHAR
STARTCHAR U+2563
ENCODING 9571
SWIDTH 1000 0
DWIDTH 5 0
BBX 4 8 0 -1
BITMAP
50
50
D0
10
D0
50
50
50
ENDCHAR
STARTCHAR U+2564
ENCODING 9572
SWIDTH 1000 0
DWIDTH 5 0
BBX 5 6 0 -1
BITMAP
F8
00
F8
20
20
20
ENDCHAR
STARTCHAR U+2565
ENCODING 9573
SWIDTH 1000 0
DWIDTH 5 0
BBX 5 5 0 -1
BITMAP
F8
50
50
50
50
ENDCHAR
STARTCHAR U+2566
ENCODING 9574
SWIDTH 1000 0
DWIDTH 5 0
BBX 5 6 0 -1
BITMAP
F8
00
D8
50
50
50
ENDCHAR
STARTCHAR U+2567
ENCODING 9575
SWIDTH 1000 0
DWIDTH 5 0
BBX 5 5 0 2
BITMAP
20
20
F8
00
F8
ENDCHAR
STARTCHAR U+2568
ENCODING 9576
SWIDTH 1000 0
DWIDTH 5 0
BBX 5 4 0 3
BITMAP
50
50
50
F8
ENDCHAR
STARTCHAR U+2569
ENCODING 9577
SWIDTH 1000 0
DWIDTH 5 0
BBX 5 5 0 2
BITMAP
50
50
D8
00
F8
ENDCHAR
STARTCHAR U+256A
ENCODING 9578
SWIDTH 1000 0
DWIDTH 5 0
BBX 5 8 0 -1
BITMAP
20
20
F8
20
F8
20
20
20
ENDCHAR
STARTCHAR U+256B
ENCODING 9579
SWIDTH 1000 0
DWIDTH 5 0
BBX 5 8 0 -1
BITMAP
50
50
50
F8
50
50
50
50
ENDCHAR
STARTCHAR U+256C
ENCODING 9580
SWIDTH 1000 0
DWIDTH 5 0
BBX 5 8 0 -1
BITMAP
50
50
D8
00
D8
50
50
50
ENDCHAR
STARTCHAR U+256D
ENCODING 9581
SWIDTH 1000 0
DWIDTH 5 0
BBX 3 5 2 -1
BITMAP
60
80
80
80
80
ENDCHAR
STARTCHAR U+256E
ENCODING 9582
SWIDTH 1000 0
DWIDTH 5 0
BBX 3 5 0 -1
BITMAP
C0
20
20
20
20
ENDCHAR
STARTCHAR U+256F
ENCODING 9583
SWIDTH 1000 0
DWIDTH 5 0
BBX 3 4 0 3
BITMAP
20
20
20
C0
ENDCHAR
STARTCHAR U+2570
ENCODING 9584
SWIDTH 1000 0
DWIDTH 5 0
BBX 3 4 2 3
BITMAP
80
80
80
60
ENDCHAR
STARTCHAR U+2571
ENCODING 9585
SWIDTH 1000 0
DWIDTH 5 0
BBX 5 8 0 -1
BITMAP
08
10
10
20
20
40
40
80
ENDCHAR
STARTCHAR U+2572
ENCODING 9586
SWIDTH 1000 0
DWIDTH 5 0
BBX 5 8 0 -1
BITMAP
80
40
40
20
20
10
10
08
ENDCHAR
STARTCHAR U+2573
ENCODING 9587
SWIDTH 1000 0
DWIDTH 5 0
BBX 5 8 0 -1
BITMAP
88
50
50
20
20
50
50
88
ENDCHAR
STARTCHAR U+2574
ENCODING 9588
SWIDTH 1000 0
DWIDTH 5 0
BBX 3 1 0 3
BITMAP
E0
ENDCHAR
STARTCHAR U+2575
ENCODING 9589
SWIDTH 1000 0
DWIDTH 5 0
BBX 1 4 2 3
BITMAP
80
80
80
80
ENDCHAR
STARTCHAR U+2576
ENCODING 9590
SWIDTH 1000 0
DWIDTH 5 0
BBX 3 1 2 3
BITMAP
E0
ENDCHAR
STARTCHAR U+2577
ENCODING 9591
SWIDTH 1000 0
DWIDTH 5 0
BBX 1 5 2 -1
BITMAP
80
80
80
80
80
ENDCHAR
STARTCHAR U+2578
ENCODING 9592
SWIDTH 1000 0
DWIDTH 5 0
BBX 3 2 0 2
BITMAP
E0
E0
ENDCHAR
STARTCHAR U+2579
ENCODING 9593
SWIDTH 1000 0
DWIDTH 5 0
BBX 2 4 2 3
BITMAP
C0
C0
C0
C0
ENDCHAR
STARTCHAR U+257A
ENCODING 9594
SWIDTH 1000 0
DWIDTH 5 0
BBX 3 2 2 2
BITMAP
E0
E0
ENDCHAR
STARTCHAR U+257B
ENCODING 9595
SWIDTH 1000 0
DWIDTH 5 0
BBX 2 5 2 -1
BITMAP
C0
C0
C0
C0
C0
ENDCHAR
STARTCHAR U+257C
ENCODING 9596
SWIDTH 1000 0
DWIDTH 5 0
BBX 5 2 0 2
BITMAP
F8
38
ENDCHAR
STARTCHAR U+257D
ENCODING 9597
SWIDTH 1000 0
DWIDTH 5 0
BBX 2 8 2 -1
BITMAP
80
80
80
C0
C0
C0
C0
C0
ENDCHAR
STARTCHAR U+257E
ENCODING 9598
SWIDTH 1000 0
DWIDTH 5 0
BBX 5 2 0 2
BITMAP
F8
E0
ENDCHAR
STARTCHAR U+257F
ENCODING 9599
SWIDTH 1000 0
DWIDTH 5 0
BBX 2 8 2 -1
BITMAP
C0
C0
C0
C0
C0
80
80
80
ENDCHAR
STARTCHAR U+2580
ENCODING 9600
SWIDTH 1000 0
DWIDTH 5 0
BBX 5 4 0 3
BITMAP
F8
F8
F8
F8
ENDCHAR
STARTCHAR U+2581
ENCODING 9601
SWIDTH 1000 0
DWIDTH 5 0
BBX 5 1 0 -1
BITMAP
F8
ENDCHAR
STARTCHAR U+2582
ENCODING 9602
SWIDTH 1000 0
DWIDTH 5 0
BBX 5 2 0 -1
BITMAP
F8
F8
ENDCHAR
STARTCHAR U+2583
ENCODING 9603
SWIDTH 1000 0
DWIDTH 5 0
BBX 5 3 0 -1
BITMAP
F8
F8
F8
ENDCHAR
STARTCHAR U+2584
ENCODING 9604
SWIDTH 1000 0
DWIDTH 5 0
BBX 5 4 0 -1
BITMAP
F8
F8
F8
F8
ENDCHAR
STARTCHAR U+2585
ENCODING 9605
SWIDTH 1000 0
DWIDTH 5 0
BBX 5 5 0 -1
BITMAP
F8
F8
F8
F8
F8
ENDCHAR
STARTCHAR U+2586
ENCODING 9606
SWIDTH 1000 0
DWIDTH 5 0
BBX 5 6 0 -1
BITMAP
F8
F8
F8
F8
F8
F8
ENDCHAR
STARTCHAR U+2587
ENCODING 9607
SWIDTH 1000 0
DWIDTH 5 0
BBX 5 7 0 -1
BITMAP
F8
F8
F8
F8
F8
F8
F8
ENDCHAR
STARTCHAR U+2588
ENCODING 9608
SWIDTH 1000 0
DWIDTH 5 0
BBX 5 8 0 -1
BITMAP
F8
F8
F8
F8
F8
F8
F8
F8
ENDCHAR
STARTCHAR U+2589
ENCODING 9609
SWIDTH 1000 0
DWIDTH 5 0
BBX 4 8 0 -1
BITMAP
F0
F0
F0
F0
F0
F0
F0
F0
ENDCHAR
STARTCHAR U+258A
ENCODING 9610
SWIDTH 1000 0
DWIDTH 5 0
BBX 4 8 0 -1
BITMAP
F0
F0
F0
F0
F0
F0
F0
F0
ENDCHAR
STARTCHAR U+258B
ENCODING 9611
SWIDTH 1000 0
DWIDTH 5 0
BBX 3 8 0 -1
BITMAP
E0
E0
E0
E0
E0
E0
E0
E0
ENDCHAR
STARTCHAR U+258C
ENCODING 9612
SWIDTH 1000 0
DWIDTH 5 0
BBX 3 8 0 -1
BITMAP
E0
E0
E0
E0
E0
E0
E0
E0
ENDCHAR
STARTCHAR U+258D
ENCODING 9613
SWIDTH 1000 0
DWIDTH 5 0
BBX 2 8 0 -1
BITMAP
C0
C0
C0
C0
C0
C0
C0
C0
ENDCHAR
STARTCHAR U+258E
ENCODING 9614
SWIDTH 1000 0
DWIDTH 5 0
BBX 2 8 0 -1
BITMAP
C0
C0
C0
C0
C0
C0
C0
C0
ENDCHAR
STARTCHAR U+258F
ENCODING 9615
SWIDTH 1000 0
DWIDTH 5 0
BBX 1 8 0 -1
BITMAP
80
80
80
80
80
80
80
80
ENDCHAR
STARTCHAR U+2590
ENCODING 9616
SWIDTH 1000 0
DWIDTH 5 0
BBX 2 8 3 -1
BITMAP
C0
C0
C0
C0
C0
C0
C0
C0
ENDCHAR
STARTCHAR U+2591
ENCODING 9617
SWIDTH 1000 0
DWIDTH 5 0
BBX 5 7 0 0
BITMAP
A8
00
50
00
A8
00
50
ENDCHAR
STARTCHAR U+2592
ENCODING 9618
SWIDTH 1000 0
DWIDTH 5 0
BBX 5 8 0 -1
BITMAP
50
A8
50
A8
50
A8
50
A8
ENDCHAR
STARTCHAR U+2593
ENCODING 9619
SWIDTH 1000 0
DWIDTH 5 0
BBX 5 8 0 -1
BITMAP
50
F8
A8
F8
50
F8
A8
F8
ENDCHAR
STARTCHAR U+2594
ENCODING 9620
SWIDTH 1000 0
DWIDTH 5 0
BBX 5 1 0 6
BITMAP
F8
ENDCHAR
STARTCHAR U+2595
ENCODING 9621
SWIDTH 1000 0
DWIDTH 5 0
BBX 1 8 4 -1
BITMAP
80
80
80
80
80
80
80
80
ENDCHAR
STARTCHAR U+2596
ENCODING 9622
SWIDTH 1000 0
DWIDTH 5 0
BBX 3 4 0 -1
BITMAP
E0
E0
E0
E0
ENDCHAR
STARTCHAR U+2597
ENCODING 9623
SWIDTH 1000 0
DWIDTH 5 0
BBX 2 4 3 -1
BITMAP
C0
C0
C0
C0
ENDCHAR
STARTCHAR U+2598
ENCODING 9624
SWIDTH 1000 0
DWIDTH 5 0
BBX 3 4 0 3
BITMAP
E0
E0
E0
E0
ENDCHAR
STARTCHAR U+2599
ENCODING 9625
SWIDTH 1000 0
DWIDTH 5 0
BBX 5 8 0 -1
BITMAP
E0
E0
E0
E0
F8
F8
F8
F8
ENDCHAR
STARTCHAR U+259A
ENCODING 9626
SWIDTH 1000 0
DWIDTH 5 0
BBX 5 8 0 -1
BITMAP
E0
E0
E0
E0
18
18
18
18
ENDCHAR
STARTCHAR U+259B
ENCODING 9627
SWIDTH 1000 0
DWIDTH 5 0
BBX 5 8 0 -1
BITMAP
F8
F8
F8
F8
E0
E0
E0
E0
ENDCHAR
STARTCHAR U+259C
ENCODING 9628
SWIDTH 1000 0
DWIDTH 5 0
BBX 5 8 0 -1
BITMAP
F8
F8
F8
F8
18
18
18
18
ENDCHAR
STARTCHAR U+259D
ENCODING 9629
SWIDTH 1000 0
DWIDTH 5 0
BBX 2 4 3 3
BITMAP
C0
C0
C0
C0
ENDCHAR
STARTCHAR U+259E
ENCODING 9630
SWIDTH 1000 0
DWIDTH 5 0
BBX 5 8 0 -1
BITMAP
18
18
18
18
E0
E0
E0
E0
ENDCHAR
STARTCHAR U+259F
ENCODING 9631
SWIDTH 1000 0
DWIDTH 5 0
BBX 5 8 0 -1
BITMAP
18
18
18
18
F8
F8
F8
F8
ENDCHAR
STARTCHAR U+25A0
ENCODING 9632
SWIDTH 1000 0
DWIDTH 5 0
BBX 4 4 0 0
BITMAP
F0
F0
F0
F0
ENDCHAR
STARTCHAR U+25A1
ENCODING 9633
SWIDTH 1000 0
DWIDTH 5 0
BBX 4 4 0 0
BITMAP
F0
90
90
F0
ENDCHAR
STARTCHAR U+25A2
ENCODING 9634
SWIDTH 1000 0
DWIDTH 5 0
BBX 4 4 0 0
BITMAP
60
90
90
60
ENDCHAR
STARTCHAR U+25A7
ENCODING 9639
SWIDTH 1000 0
DWIDTH 5 0
BBX 4 4 0 0
BITMAP
F0
D0
B0
F0
ENDCHAR
STARTCHAR U+25A8
ENCODING 9640
SWIDTH 1000 0
DWIDTH 5 0
BBX 4 4 0 0
BITMAP
F0
B0
D0
F0
ENDCHAR
STARTCHAR U+25AA
ENCODING 9642
SWIDTH 1000 0
DWIDTH 5 0
BBX 3 3 1 1
BITMAP
E0
E0
E0
ENDCHAR
STARTCHAR U+25AB
ENCODING 9643
SWIDTH 1000 0
DWIDTH 5 0
BBX 3 3 1 1
BITMAP
E0
A0
E0
ENDCHAR
STARTCHAR U+25AC
ENCODING 9644
SWIDTH 1000 0
DWIDTH 5 0
BBX 4 3 0 1
BITMAP
F0
F0
F0
ENDCHAR
STARTCHAR U+25AD
ENCODING 9645
SWIDTH 1000 0
DWIDTH 5 0
BBX 4 3 0 1
BITMAP
F0
90
F0
ENDCHAR
STARTCHAR U+25AE
ENCODING 9646
SWIDTH 1000 0
DWIDTH 5 0
BBX 3 6 1 0
BITMAP
E0
E0
E0
E0
E0
E0
ENDCHAR
STARTCHAR U+25AF
ENCODING 9647
SWIDTH 1000 0
DWIDTH 5 0
BBX 3 6 1 0
BITMAP
E0
A0
A0
A0
A0
E0
ENDCHAR
STARTCHAR U+25B0
ENCODING 9648
SWIDTH 1000 0
DWIDTH 5 0
BBX 5 3 0 1
BITMAP
38
70
E0
ENDCHAR
STARTCHAR U+25B1
ENCODING 9649
SWIDTH 1000 0
DWIDTH 5 0
BBX 5 3 0 1
BITMAP
38
50
E0
ENDCHAR
STARTCHAR U+25B2
ENCODING 9650
SWIDTH 1000 0
DWIDTH 5 0
BBX 5 6 0 0
BITMAP
20
20
70
70
F8
F8
ENDCHAR
STARTCHAR U+25B3
ENCODING 9651
SWIDTH 1000 0
DWIDTH 5 0
BBX 5 6 0 0
BITMAP
20
20
50
50
88
F8
ENDCHAR
STARTCHAR U+25B4
ENCODING 9652
SWIDTH 1000 0
DWIDTH 5 0
BBX 3 4 1 1
BITMAP
40
40
E0
E0
ENDCHAR
STARTCHAR U+25B5
ENCODING 9653
SWIDTH 1000 0
DWIDTH 5 0
BBX 3 4 1 1
BITMAP
40
40
A0
E0
ENDCHAR
STARTCHAR U+25B6
ENCODING 9654
SWIDTH 1000 0
DWIDTH 5 0
BBX 3 6 1 0
BITMAP
80
C0
E0
E0
C0
80
ENDCHAR
STARTCHAR U+25B7
ENCODING 9655
SWIDTH 1000 0
DWIDTH 5 0
BBX 3 6 1 0
BITMAP
80
C0
A0
A0
C0
80
ENDCHAR
STARTCHAR U+25B8
ENCODING 9656
SWIDTH 1000 0
DWIDTH 5 0
BBX 3 5 1 0
BITMAP
80
C0
E0
C0
80
ENDCHAR
STARTCHAR U+25B9
ENCODING 9657
SWIDTH 1000 0
DWIDTH 5 0
BBX 3 5 1 0
BITMAP
80
C0
A0
C0
80
ENDCHAR
STARTCHAR U+25BA
ENCODING 9658
SWIDTH 1000 0
DWIDTH 5 0
BBX 5 5 0 0
BITMAP
80
E0
F8
E0
80
ENDCHAR
STARTCHAR U+25BB
ENCODING 9659
SWIDTH 1000 0
DWIDTH 5 0
BBX 5 5 0 0
BITMAP
80
E0
98
E0
80
ENDCHAR
STARTCHAR U+25BC
ENCODING 9660
SWIDTH 1000 0
DWIDTH 5 0
BBX 5 6 0 0
BITMAP
F8
F8
70
70
20
20
ENDCHAR
STARTCHAR U+25BD
ENCODING 9661
SWIDTH 1000 0
DWIDTH 5 0
BBX 5 6 0 0
BITMAP
F8
88
50
50
20
20
ENDCHAR
STARTCHAR U+25BE
ENCODING 9662
SWIDTH 1000 0
DWIDTH 5 0
BBX 3 4 1 1
BITMAP
E0
E0
40
40
ENDCHAR
STARTCHAR U+25BF
ENCODING 9663
SWIDTH 1000 0
DWIDTH 5 0
BBX 3 4 1 1
BITMAP
E0
A0
40
40
ENDCHAR
STARTCHAR U+25C0
ENCODING 9664
SWIDTH 1000 0
DWIDTH 5 0
BBX 3 6 1 0
BITMAP
20
60
E0
E0
60
20
ENDCHAR
STARTCHAR U+25C1
ENCODING 9665
SWIDTH 1000 0
DWIDTH 5 0
BBX 3 6 1 0
BITMAP
20
60
A0
A0
60
20
ENDCHAR
STARTCHAR U+25C2
ENCODING 9666
SWIDTH 1000 0
DWIDTH 5 0
BBX 3 5 1 0
BITMAP
20
60
E0
60
20
ENDCHAR
STARTCHAR U+25C3
ENCODING 9667
SWIDTH 1000 0
DWIDTH 5 0
BBX 3 5 1 0
BITMAP
20
60
A0
60
20
ENDCHAR
STARTCHAR U+25C4
ENCODING 9668
SWIDTH 1000 0
DWIDTH 5 0
BBX 5 5 0 0
BITMAP
08
38
F8
38
08
ENDCHAR
STARTCHAR U+25C5
ENCODING 9669
SWIDTH 1000 0
DWIDTH 5 0
BBX 5 5 0 0
BITMAP
08
38
C8
38
08
ENDCHAR
STARTCHAR U+25C6
ENCODING 9670
SWIDTH 1000 0
DWIDTH 5 0
BBX 5 5 0 0
BITMAP
20
70
F8
70
20
ENDCHAR
STARTCHAR U+25C7
ENCODING 9671
SWIDTH 1000 0
DWIDTH 5 0
BBX 5 5 0 0
BITMAP
20
50
88
50
20
ENDCHAR
STARTCHAR U+25CA
ENCODING 9674
SWIDTH 1000 0
DWIDTH 5 0
BBX 5 7 0 0
BITMAP
20
50
50
88
50
50
20
ENDCHAR
STARTCHAR U+25CB
ENCODING 9675
SWIDTH 1000 0
DWIDTH 5 0
BBX 5 5 0 0
BITMAP
70
88
88
88
70
ENDCHAR
STARTCHAR U+25CC
ENCODING 9676
SWIDTH 1000 0
DWIDTH 5 0
BBX 5 5 0 0
BITMAP
50
00
88
00
50
ENDCHAR
STARTCHAR U+25CD
ENCODING 9677
SWIDTH 1000 0
DWIDTH 5 0
BBX 5 5 0 0
BITMAP
70
A8
A8
A8
70
ENDCHAR
STARTCHAR U+25CE
ENCODING 9678
SWIDTH 1000 0
DWIDTH 5 0
BBX 5 5 0 0
BITMAP
70
A8
D8
A8
70
ENDCHAR
STARTCHAR U+25CF
ENCODING 9679
SWIDTH 1000 0
DWIDTH 5 0
BBX 5 5 0 0
BITMAP
70
F8
F8
F8
70
ENDCHAR
STARTCHAR U+25D0
ENCODING 9680
SWIDTH 1000 0
DWIDTH 5 0
BBX 5 5 0 0
BITMAP
70
E8
E8
E8
70
ENDCHAR
STARTCHAR U+25D1
ENCODING 9681
SWIDTH 1000 0
DWIDTH 5 0
BBX 5 5 0 0
BITMAP
70
B8
B8
B8
70
ENDCHAR
STARTCHAR U+25D2
ENCODING 9682
SWIDTH 1000 0
DWIDTH 5 0
BBX 5 5 0 0
BITMAP
70
88
F8
F8
70
ENDCHAR
STARTCHAR U+25D3
ENCODING 9683
SWIDTH 1000 0
DWIDTH 5 0
BBX 5 5 0 0
BITMAP
70
F8
F8
88
70
ENDCHAR
STARTCHAR U+25D4
ENCODING 9684
SWIDTH 1000 0
DWIDTH 5 0
BBX 5 5 0 0
BITMAP
70
B8
B8
88
70
ENDCHAR
STARTCHAR U+25D5
ENCODING 9685
SWIDTH 1000 0
DWIDTH 5 0
BBX 5 5 0 0
BITMAP
70
98
98
F8
70
ENDCHAR
STARTCHAR U+25D8
ENCODING 9688
SWIDTH 1000 0
DWIDTH 5 0
BBX 5 8 0 -1
BITMAP
F8
F8
D8
88
88
D8
F8
F8
ENDCHAR
STARTCHAR U+25D9
ENCODING 9689
SWIDTH 1000 0
DWIDTH 5 0
BBX 5 8 0 -1
BITMAP
F8
D8
A8
70
70
A8
D8
F8
ENDCHAR
STARTCHAR U+25DA
ENCODING 9690
SWIDTH 1000 0
DWIDTH 5 0
BBX 5 4 0 3
BITMAP
F8
D8
A8
70
ENDCHAR
STARTCHAR U+25DB
ENCODING 9691
SWIDTH 1000 0
DWIDTH 5 0
BBX 5 4 0 -1
BITMAP
70
A8
D8
F8
ENDCHAR
STARTCHAR U+25E2
ENCODING 9698
SWIDTH 1000 0
DWIDTH 5 0
BBX 4 4 0 0
BITMAP
10
30
70
F0
ENDCHAR
STARTCHAR U+25E3
ENCODING 9699
SWIDTH 1000 0
DWIDTH 5 0
BBX 4 4 0 0
BITMAP
80
C0
E0
F0
ENDCHAR
STARTCHAR U+25E4
ENCODING 9700
SWIDTH 1000 0
DWIDTH 5 0
BBX 4 4 0 0
BITMAP
F0
E0
C0
80
ENDCHAR
STARTCHAR U+25E5
ENCODING 9701
SWIDTH 1000 0
DWIDTH 5 0
BBX 4 4 0 0
BITMAP
F0
70
30
10
ENDCHAR
STARTCHAR U+25E6
ENCODING 9702
SWIDTH 1000 0
DWIDTH 5 0
BBX 4 4 0 0
BITMAP
60
90
90
60
ENDCHAR
STARTCHAR U+25E7
ENCODING 9703
SWIDTH 1000 0
DWIDTH 5 0
BBX 4 4 0 0
BITMAP
F0
D0
D0
F0
ENDCHAR
STARTCHAR U+25E8
ENCODING 9704
SWIDTH 1000 0
DWIDTH 5 0
BBX 4 4 0 0
BITMAP
F0
B0
B0
F0
ENDCHAR
STARTCHAR U+25E9
ENCODING 9705
SWIDTH 1000 0
DWIDTH 5 0
BBX 4 4 0 0
BITMAP
F0
F0
D0
F0
ENDCHAR
STARTCHAR U+25EA
ENCODING 9706
SWIDTH 1000 0
DWIDTH 5 0
BBX 4 4 0 0
BITMAP
F0
B0
F0
F0
ENDCHAR
STARTCHAR U+2625
ENCODING 9765
SWIDTH 1000 0
DWIDTH 5 0
BBX 5 8 0 -1
BITMAP
20
50
20
F8
20
20
20
20
ENDCHAR
STARTCHAR U+2626
ENCODING 9766
SWIDTH 1000 0
DWIDTH 5 0
BBX 5 8 0 -1
BITMAP
20
70
20
F8
20
30
60
20
ENDCHAR
STARTCHAR U+2627
ENCODING 9767
SWIDTH 1000 0
DWIDTH 5 0
BBX 5 7 0 0
BITMAP
30
28
30
20
A8
70
A8
ENDCHAR
STARTCHAR U+2628
ENCODING 9768
SWIDTH 1000 0
DWIDTH 5 0
BBX 5 8 0 -1
BITMAP
20
70
20
F8
20
20
20
20
ENDCHAR
STARTCHAR U+2629
ENCODING 9769
SWIDTH 1000 0
DWIDTH 5 0
BBX 5 7 0 0
BITMAP
70
20
A8
F8
A8
20
70
ENDCHAR
STARTCHAR U+2630
ENCODING 9776
SWIDTH 1000 0
DWIDTH 5 0
BBX 3 5 1 0
BITMAP
E0
00
E0
00
E0
ENDCHAR
STARTCHAR U+2631
ENCODING 9777
SWIDTH 1000 0
DWIDTH 5 0
BBX 3 5 1 0
BITMAP
A0
00
E0
00
E0
ENDCHAR
STARTCHAR U+2632
ENCODING 9778
SWIDTH 1000 0
DWIDTH 5 0
BBX 3 5 1 0
BITMAP
E0
00
A0
00
E0
ENDCHAR
STARTCHAR U+2633
ENCODING 9779
SWIDTH 1000 0
DWIDTH 5 0
BBX 3 5 1 0
BITMAP
A0
00
A0
00
E0
ENDCHAR
STARTCHAR U+2634
ENCODING 9780
SWIDTH 1000 0
DWIDTH 5 0
BBX 3 5 1 0
BITMAP
E0
00
E0
00
A0
ENDCHAR
STARTCHAR U+2635
ENCODING 9781
SWIDTH 1000 0
DWIDTH 5 0
BBX 3 5 1 0
BITMAP
A0
00
E0
00
A0
ENDCHAR
STARTCHAR U+2636
ENCODING 9782
SWIDTH 1000 0
DWIDTH 5 0
BBX 3 5 1 0
BITMAP
E0
00
A0
00
A0
ENDCHAR
STARTCHAR U+2637
ENCODING 9783
SWIDTH 1000 0
DWIDTH 5 0
BBX 3 5 1 0
BITMAP
A0
00
A0
00
A0
ENDCHAR
STARTCHAR U+2638
ENCODING 9784
SWIDTH 1000 0
DWIDTH 5 0
BBX 5 7 0 -1
BITMAP
20
A8
70
50
70
A8
20
ENDCHAR
STARTCHAR U+263A
ENCODING 9786
SWIDTH 1000 0
DWIDTH 5 0
BBX 5 7 0 -1
BITMAP
70
88
D8
88
A8
88
70
ENDCHAR
STARTCHAR U+263B
ENCODING 9787
SWIDTH 1000 0
DWIDTH 5 0
BBX 5 6 0 0
BITMAP
70
A8
F8
A8
D8
70
ENDCHAR
STARTCHAR U+263C
ENCODING 9788
SWIDTH 1000 0
DWIDTH 5 0
BBX 5 7 0 -1
BITMAP
20
88
20
50
20
88
20
ENDCHAR
STARTCHAR U+263D
ENCODING 9789
SWIDTH 1000 0
DWIDTH 5 0
BBX 5 6 0 0
BITMAP
70
C8
28
28
C8
70
ENDCHAR
STARTCHAR U+263E
ENCODING 9790
SWIDTH 1000 0
DWIDTH 5 0
BBX 5 6 0 0
BITMAP
70
98
A0
A0
98
70
ENDCHAR
STARTCHAR U+2640
ENCODING 9792
SWIDTH 1000 0
DWIDTH 5 0
BBX 5 7 0 -1
BITMAP
70
88
88
70
20
70
20
ENDCHAR
STARTCHAR U+2641
ENCODING 9793
SWIDTH 1000 0
DWIDTH 5 0
BBX 5 7 0 -1
BITMAP
20
70
20
70
88
88
70
ENDCHAR
STARTCHAR U+2642
ENCODING 9794
SWIDTH 1000 0
DWIDTH 5 0
BBX 5 6 0 -1
BITMAP
38
18
68
90
90
60
ENDCHAR
STARTCHAR U+2660
ENCODING 9824
SWIDTH 1000 0
DWIDTH 5 0
BBX 5 6 0 0
BITMAP
20
20
70
F8
20
70
ENDCHAR
STARTCHAR U+2661
ENCODING 9825
SWIDTH 1000 0
DWIDTH 5 0
BBX 5 6 0 0
BITMAP
50
A8
88
50
20
20
ENDCHAR
STARTCHAR U+2662
ENCODING 9826
SWIDTH 1000 0
DWIDTH 5 0
BBX 5 5 0 1
BITMAP
20
50
88
50
20
ENDCHAR
STARTCHAR U+2663
ENCODING 9827
SWIDTH 1000 0
DWIDTH 5 0
BBX 5 6 0 0
BITMAP
20
70
A8
F8
A8
70
ENDCHAR
STARTCHAR U+2664
ENCODING 9828
SWIDTH 1000 0
DWIDTH 5 0
BBX 5 6 0 0
BITMAP
20
50
50
F8
20
70
ENDCHAR
STARTCHAR U+2665
ENCODING 9829
SWIDTH 1000 0
DWIDTH 5 0
BBX 5 6 0 0
BITMAP
50
F8
F8
70
20
20
ENDCHAR
STARTCHAR U+2666
ENCODING 9830
SWIDTH 1000 0
DWIDTH 5 0
BBX 5 5 0 1
BITMAP
20
70
F8
70
20
ENDCHAR
STARTCHAR U+2667
ENCODING 9831
SWIDTH 1000 0
DWIDTH 5 0
BBX 5 6 0 0
BITMAP
20
70
A8
70
20
70
ENDCHAR
STARTCHAR U+2669
ENCODING 9833
SWIDTH 1000 0
DWIDTH 5 0
BBX 3 6 1 0
BITMAP
20
20
20
60
E0
60
ENDCHAR
STARTCHAR U+266A
ENCODING 9834
SWIDTH 1000 0
DWIDTH 5 0
BBX 5 6 0 0
BITMAP
30
28
20
60
E0
60
ENDCHAR
STARTCHAR U+266B
ENCODING 9835
SWIDTH 1000 0
DWIDTH 5 0
BBX 4 7 0 0
BITMAP
40
60
50
D0
D0
30
30
ENDCHAR
STARTCHAR U+266C
ENCODING 9836
SWIDTH 1000 0
DWIDTH 5 0
BBX 4 7 0 0
BITMAP
40
60
50
F0
D0
30
30
ENDCHAR
STARTCHAR U+266D
ENCODING 9837
SWIDTH 1000 0
DWIDTH 5 0
BBX 4 6 0 0
BITMAP
80
A0
D0
90
A0
C0
ENDCHAR
STARTCHAR U+266E
ENCODING 9838
SWIDTH 1000 0
DWIDTH 5 0
BBX 4 8 0 -1
BITMAP
80
80
B0
D0
B0
D0
10
10
ENDCHAR
STARTCHAR U+266F
ENCODING 9839
SWIDTH 1000 0
DWIDTH 5 0
BBX 5 7 0 0
BITMAP
10
58
70
D0
78
D0
40
ENDCHAR
STARTCHAR U+27E8
ENCODING 10216
SWIDTH 1000 0
DWIDTH 5 0
BBX 2 6 1 0
BITMAP
40
40
80
80
40
40
ENDCHAR
STARTCHAR U+27E9
ENCODING 10217
SWIDTH 1000 0
DWIDTH 5 0
BBX 2 6 1 0
BITMAP
80
80
40
40
80
80
ENDCHAR
STARTCHAR U+2800
ENCODING 10240
SWIDTH 1000 0
DWIDTH 5 0
BBX 0 0 0 0
BITMAP
ENDCHAR
STARTCHAR U+2801
ENCODING 10241
SWIDTH 1000 0
DWIDTH 5 0
BBX 1 1 1 5
BITMAP
80
ENDCHAR
STARTCHAR U+2802
ENCODING 10242
SWIDTH 1000 0
DWIDTH 5 0
BBX 1 1 1 3
BITMAP
80
ENDCHAR
STARTCHAR U+2803
ENCODING 10243
SWIDTH 1000 0
DWIDTH 5 0
BBX 1 3 1 3
BITMAP
80
00
80
ENDCHAR
STARTCHAR U+2804
ENCODING 10244
SWIDTH 1000 0
DWIDTH 5 0
BBX 1 1 1 1
BITMAP
80
ENDCHAR
STARTCHAR U+2805
ENCODING 10245
SWIDTH 1000 0
DWIDTH 5 0
BBX 1 5 1 1
BITMAP
80
00
00
00
80
ENDCHAR
STARTCHAR U+2806
ENCODING 10246
SWIDTH 1000 0
DWIDTH 5 0
BBX 1 3 1 1
BITMAP
80
00
80
ENDCHAR
STARTCHAR U+2807
ENCODING 10247
SWIDTH 1000 0
DWIDTH 5 0
BBX 1 5 1 1
BITMAP
80
00
80
00
80
ENDCHAR
STARTCHAR U+2808
ENCODING 10248
SWIDTH 1000 0
DWIDTH 5 0
BBX 1 1 3 5
BITMAP
80
ENDCHAR
STARTCHAR U+2809
ENCODING 10249
SWIDTH 1000 0
DWIDTH 5 0
BBX 3 1 1 5
BITMAP
A0
ENDCHAR
STARTCHAR U+280A
ENCODING 10250
SWIDTH 1000 0
DWIDTH 5 0
BBX 3 3 1 3
BITMAP
20
00
80
ENDCHAR
STARTCHAR U+280B
ENCODING 10251
SWIDTH 1000 0
DWIDTH 5 0
BBX 3 3 1 3
BITMAP
A0
00
80
ENDCHAR
STARTCHAR U+280C
ENCODING 10252
SWIDTH 1000 0
DWIDTH 5 0
BBX 3 5 1 1
BITMAP
20
00
00
00
80
ENDCHAR
STARTCHAR U+280D
ENCODING 10253
SWIDTH 1000 0
DWIDTH 5 0
BBX 3 5 1 1
BITMAP
A0
00
00
00
80
ENDCHAR
STARTCHAR U+280E
ENCODING 10254
SWIDTH 1000 0
DWIDTH 5 0
BBX 3 5 1 1
BITMAP
20
00
80
00
80
ENDCHAR
STARTCHAR U+280F
ENCODING 10255
SWIDTH 1000 0
DWIDTH 5 0
BBX 3 5 1 1
BITMAP
A0
00
80
00
80
ENDCHAR
STARTCHAR U+2810
ENCODING 10256
SWIDTH 1000 0
DWIDTH 5 0
BBX 1 1 3 3
BITMAP
80
ENDCHAR
STARTCHAR U+2811
ENCODING 10257
SWIDTH 1000 0
DWIDTH 5 0
BBX 3 3 1 3
BITMAP
80
00
20
ENDCHAR
STARTCHAR U+2812
ENCODING 10258
SWIDTH 1000 0
DWIDTH 5 0
BBX 3 1 1 3
BITMAP
A0
ENDCHAR
STARTCHAR U+2813
ENCODING 10259
SWIDTH 1000 0
DWIDTH 5 0
BBX 3 3 1 3
BITMAP
80
00
A0
ENDCHAR
STARTCHAR U+2814
ENCODING 10260
SWIDTH 1000 0
DWIDTH 5 0
BBX 3 3 1 1
BITMAP
20
00
80
ENDCHAR
STARTCHAR U+2815
ENCODING 10261
SWIDTH 1000 0
DWIDTH 5 0
BBX 3 5 1 1
BITMAP
80
00
20
00
80
ENDCHAR
STARTCHAR U+2816
ENCODING 10262
SWIDTH 1000 0
DWIDTH 5 0
BBX 3 3 1 1
BITMAP
A0
00
80
ENDCHAR
STARTCHAR U+2817
ENCODING 10263
SWIDTH 1000 0
DWIDTH 5 0
BBX 3 5 1 1
BITMAP
80
00
A0
00
80
ENDCHAR
STARTCHAR U+2818
ENCODING 10264
SWIDTH 1000 0
DWIDTH 5 0
BBX 1 3 3 3
BITMAP
80
00
80
ENDCHAR
STARTCHAR U+2819
ENCODING 10265
SWIDTH 1000 0
DWIDTH 5 0
BBX 3 3 1 3
BITMAP
A0
00
20
ENDCHAR
STARTCHAR U+281A
ENCODING 10266
SWIDTH 1000 0
DWIDTH 5 0
BBX 3 3 1 3
BITMAP
20
00
A0
ENDCHAR
STARTCHAR U+281B
ENCODING 10267
SWIDTH 1000 0
DWIDTH 5 0
BBX 3 3 1 3
BITMAP
A0
00
A0
ENDCHAR
STARTCHAR U+281C
ENCODING 10268
SWIDTH 1000 0
DWIDTH 5 0
BBX 3 5 1 1
BITMAP
20
00
20
00
80
ENDCHAR
STARTCHAR U+281D
ENCODING 10269
SWIDTH 1000 0
DWIDTH 5 0
BBX 3 5 1 1
BITMAP
A0
00
20
00
80
ENDCHAR
STARTCHAR U+281E
ENCODING 10270
SWIDTH 1000 0
DWIDTH 5 0
BBX 3 5 1 1
BITMAP
20
00
A0
00
80
ENDCHAR
STARTCHAR U+281F
ENCODING 10271
SWIDTH 1000 0
DWIDTH 5 0
BBX 3 5 1 1
BITMAP
A0
00
A0
00
80
ENDCHAR
STARTCHAR U+2820
ENCODING 10272
SWIDTH 1000 0
DWIDTH 5 0
BBX 1 1 3 1
BITMAP
80
ENDCHAR
STARTCHAR U+2821
ENCODING 10273
SWIDTH 1000 0
DWIDTH 5 0
BBX 3 5 1 1
BITMAP
80
00
00
00
20
ENDCHAR
STARTCHAR U+2822
ENCODING 10274
SWIDTH 1000 0
DWIDTH 5 0
BBX 3 3 1 1
BITMAP
80
00
20
ENDCHAR
STARTCHAR U+2823
ENCODING 10275
SWIDTH 1000 0
DWIDTH 5 0
BBX 3 5 1 1
BITMAP
80
00
80
00
20
ENDCHAR
STARTCHAR U+2824
ENCODING 10276
SWIDTH 1000 0
DWIDTH 5 0
BBX 3 1 1 1
BITMAP
A0
ENDCHAR
STARTCHAR U+2825
ENCODING 10277
SWIDTH 1000 0
DWIDTH 5 0
BBX 3 5 1 1
BITMAP
80
00
00
00
A0
ENDCHAR
STARTCHAR U+2826
ENCODING 10278
SWIDTH 1000 0
DWIDTH 5 0
BBX 3 3 1 1
BITMAP
80
00
A0
ENDCHAR
STARTCHAR U+2827
ENCODING 10279
SWIDTH 1000 0
DWIDTH 5 0
BBX 3 5 1 1
BITMAP
80
00
80
00
A0
ENDCHAR
STARTCHAR U+2828
ENCODING 10280
SWIDTH 1000 0
DWIDTH 5 0
BBX 1 5 3 1
BITMAP
80
00
00
00
80
ENDCHAR
STARTCHAR U+2829
ENCODING 10281
SWIDTH 1000 0
DWIDTH 5 0
BBX 3 5 1 1
BITMAP
A0
00
00
00
20
ENDCHAR
STARTCHAR U+282A
ENCODING 10282
SWIDTH 1000 0
DWIDTH 5 0
BBX 3 5 1 1
BITMAP
20
00
80
00
20
ENDCHAR
STARTCHAR U+282B
ENCODING 10283
SWIDTH 1000 0
DWIDTH 5 0
BBX 3 5 1 1
BITMAP
A0
00
80
00
20
ENDCHAR
STARTCHAR U+282C
ENCODING 10284
SWIDTH 1000 0
DWIDTH 5 0
BBX 3 5 1 1
BITMAP
20
00
00
00
A0
ENDCHAR
STARTCHAR U+282D
ENCODING 10285
SWIDTH 1000 0
DWIDTH 5 0
BBX 3 5 1 1
BITMAP
A0
00
00
00
A0
ENDCHAR
STARTCHAR U+282E
ENCODING 10286
SWIDTH 1000 0
DWIDTH 5 0
BBX 3 5 1 1
BITMAP
20
00
80
00
A0
ENDCHAR
STARTCHAR U+282F
ENCODING 10287
SWIDTH 1000 0
DWIDTH 5 0
BBX 3 5 1 1
BITMAP
A0
00
80
00
A0
ENDCHAR
STARTCHAR U+2830
ENCODING 10288
SWIDTH 1000 0
DWIDTH 5 0
BBX 1 3 3 1
BITMAP
80
00
80
ENDCHAR
STARTCHAR U+2831
ENCODING 10289
SWIDTH 1000 0
DWIDTH 5 0
BBX 3 5 1 1
BITMAP
80
00
20
00
20
ENDCHAR
STARTCHAR U+2832
ENCODING 10290
SWIDTH 1000 0
DWIDTH 5 0
BBX 3 3 1 1
BITMAP
A0
00
20
ENDCHAR
STARTCHAR U+2833
ENCODING 10291
SWIDTH 1000 0
DWIDTH 5 0
BBX 3 5 1 1
BITMAP
80
00
A0
00
20
ENDCHAR
STARTCHAR U+2834
ENCODING 10292
SWIDTH 1000 0
DWIDTH 5 0
BBX 3 3 1 1
BITMAP
20
00
A0
ENDCHAR
STARTCHAR U+2835
ENCODING 10293
SWIDTH 1000 0
DWIDTH 5 0
BBX 3 5 1 1
BITMAP
80
00
20
00
A0
ENDCHAR
STARTCHAR U+2836
ENCODING 10294
SWIDTH 1000 0
DWIDTH 5 0
BBX 3 3 1 1
BITMAP
A0
00
A0
ENDCHAR
STARTCHAR U+2837
ENCODING 10295
SWIDTH 1000 0
DWIDTH 5 0
BBX 3 5 1 1
BITMAP
80
00
A0
00
A0
ENDCHAR
STARTCHAR U+2838
ENCODING 10296
SWIDTH 1000 0
DWIDTH 5 0
BBX 1 5 3 1
BITMAP
80
00
80
00
80
ENDCHAR
STARTCHAR U+2839
ENCODING 10297
SWIDTH 1000 0
DWIDTH 5 0
BBX 3 5 1 1
BITMAP
A0
00
20
00
20
ENDCHAR
STARTCHAR U+283A
ENCODING 10298
SWIDTH 1000 0
DWIDTH 5 0
BBX 3 5 1 1
BITMAP
20
00
A0
00
20
ENDCHAR
STARTCHAR U+283B
ENCODING 10299
SWIDTH 1000 0
DWIDTH 5 0
BBX 3 5 1 1
BITMAP
A0
00
A0
00
20
ENDCHAR
STARTCHAR U+283C
ENCODING 10300
SWIDTH 1000 0
DWIDTH 5 0
BBX 3 5 1 1
BITMAP
20
00
20
00
A0
ENDCHAR
STARTCHAR U+283D
ENCODING 10301
SWIDTH 1000 0
DWIDTH 5 0
BBX 3 5 1 1
BITMAP
A0
00
20
00
A0
ENDCHAR
STARTCHAR U+283E
ENCODING 10302
SWIDTH 1000 0
DWIDTH 5 0
BBX 3 5 1 1
BITMAP
20
00
A0
00
A0
ENDCHAR
STARTCHAR U+283F
ENCODING 10303
SWIDTH 1000 0
DWIDTH 5 0
BBX 3 5 1 1
BITMAP
A0
00
A0
00
A0
ENDCHAR
STARTCHAR U+2840
ENCODING 10304
SWIDTH 1000 0
DWIDTH 5 0
BBX 1 1 1 -1
BITMAP
80
ENDCHAR
STARTCHAR U+2841
ENCODING 10305
SWIDTH 1000 0
DWIDTH 5 0
BBX 1 7 1 -1
BITMAP
80
00
00
00
00
00
80
ENDCHAR
STARTCHAR U+2842
ENCODING 10306
SWIDTH 1000 0
DWIDTH 5 0
BBX 1 5 1 -1
BITMAP
80
00
00
00
80
ENDCHAR
STARTCHAR U+2843
ENCODING 10307
SWIDTH 1000 0
DWIDTH 5 0
BBX 1 7 1 -1
BITMAP
80
00
80
00
00
00
80
ENDCHAR
STARTCHAR U+2844
ENCODING 10308
SWIDTH 1000 0
DWIDTH 5 0
BBX 1 3 1 -1
BITMAP
80
00
80
ENDCHAR
STARTCHAR U+2845
ENCODING 10309
SWIDTH 1000 0
DWIDTH 5 0
BBX 1 7 1 -1
BITMAP
80
00
00
00
80
00
80
ENDCHAR
STARTCHAR U+2846
ENCODING 10310
SWIDTH 1000 0
DWIDTH 5 0
BBX 1 5 1 -1
BITMAP
80
00
80
00
80
ENDCHAR
STARTCHAR U+2847
ENCODING 10311
SWIDTH 1000 0
DWIDTH 5 0
BBX 1 7 1 -1
BITMAP
80
00
80
00
80
00
80
ENDCHAR
STARTCHAR U+2848
ENCODING 10312
SWIDTH 1000 0
DWIDTH 5 0
BBX 3 7 1 -1
BITMAP
20
00
00
00
00
00
80
ENDCHAR
STARTCHAR U+2849
ENCODING 10313
SWIDTH 1000 0
DWIDTH 5 0
BBX 3 7 1 -1
BITMAP
A0
00
00
00
00
00
80
ENDCHAR
STARTCHAR U+284A
ENCODING 10314
SWIDTH 1000 0
DWIDTH 5 0
BBX 3 7 1 -1
BITMAP
20
00
80
00
00
00
80
ENDCHAR
STARTCHAR U+284B
ENCODING 10315
SWIDTH 1000 0
DWIDTH 5 0
BBX 3 7 1 -1
BITMAP
A0
00
80
00
00
00
80
ENDCHAR
STARTCHAR U+284C
ENCODING 10316
SWIDTH 1000 0
DWIDTH 5 0
BBX 3 7 1 -1
BITMAP
20
00
00
00
80
00
80
ENDCHAR
STARTCHAR U+284D
ENCODING 10317
SWIDTH 1000 0
DWIDTH 5 0
BBX 3 7 1 -1
BITMAP
A0
00
00
00
80
00
80
ENDCHAR
STARTCHAR U+284E
ENCODING 10318
SWIDTH 1000 0
DWIDTH 5 0
BBX 3 7 1 -1
BITMAP
20
00
80
00
80
00
80
ENDCHAR
STARTCHAR U+284F
ENCODING 10319
SWIDTH 1000 0
DWIDTH 5 0
BBX 3 7 1 -1
BITMAP
A0
00
80
00
80
00
80
ENDCHAR
STARTCHAR U+2850
ENCODING 10320
SWIDTH 1000 0
DWIDTH 5 0
BBX 3 5 1 -1
BITMAP
20
00
00
00
80
ENDCHAR
STARTCHAR U+2851
ENCODING 10321
SWIDTH 1000 0
DWIDTH 5 0
BBX 3 7 1 -1
BITMAP
80
00
20
00
00
00
80
ENDCHAR
STARTCHAR U+2852
ENCODING 10322
SWIDTH 1000 0
DWIDTH 5 0
BBX 3 5 1 -1
BITMAP
A0
00
00
00
80
ENDCHAR
STARTCHAR U+2853
ENCODING 10323
SWIDTH 1000 0
DWIDTH 5 0
BBX 3 7 1 -1
BITMAP
80
00
A0
00
00
00
80
ENDCHAR
STARTCHAR U+2854
ENCODING 10324
SWIDTH 1000 0
DWIDTH 5 0
BBX 3 5 1 -1
BITMAP
20
00
80
00
80
ENDCHAR
STARTCHAR U+2855
ENCODING 10325
SWIDTH 1000 0
DWIDTH 5 0
BBX 3 7 1 -1
BITMAP
80
00
20
00
80
00
80
ENDCHAR
STARTCHAR U+2856
ENCODING 10326
SWIDTH 1000 0
DWIDTH 5 0
BBX 3 5 1 -1
BITMAP
A0
00
80
00
80
ENDCHAR
STARTCHAR U+2857
ENCODING 10327
SWIDTH 1000 0
DWIDTH 5 0
BBX 3 7 1 -1
BITMAP
80
00
A0
00
80
00
80
ENDCHAR
STARTCHAR U+2858
ENCODING 10328
SWIDTH 1000 0
DWIDTH 5 0
BBX 3 7 1 -1
BITMAP
20
00
20
00
00
00
80
ENDCHAR
STARTCHAR U+2859
ENCODING 10329
SWIDTH 1000 0
DWIDTH 5 0
BBX 3 7 1 -1
BITMAP
A0
00
20
00
00
00
80
ENDCHAR
STARTCHAR U+285A
ENCODING 10330
SWIDTH 1000 0
DWIDTH 5 0
BBX 3 7 1 -1
BITMAP
20
00
A0
00
00
00
80
ENDCHAR
STARTCHAR U+285B
ENCODING 10331
SWIDTH 1000 0
DWIDTH 5 0
BBX 3 7 1 -1
BITMAP
A0
00
A0
00
00
00
80
ENDCHAR
STARTCHAR U+285C
ENCODING 10332
SWIDTH 1000 0
DWIDTH 5 0
BBX 3 7 1 -1
BITMAP
20
00
20
00
80
00
80
ENDCHAR
STARTCHAR U+285D
ENCODING 10333
SWIDTH 1000 0
DWIDTH 5 0
BBX 3 7 1 -1
BITMAP
A0
00
20
00
80
00
80
ENDCHAR
STARTCHAR U+285E
ENCODING 10334
SWIDTH 1000 0
DWIDTH 5 0
BBX 3 7 1 -1
BITMAP
20
00
A0
00
80
00
80
ENDCHAR
STARTCHAR U+285F
ENCODING 10335
SWIDTH 1000 0
DWIDTH 5 0
BBX 3 7 1 -1
BITMAP
A0
00
A0
00
80
00
80
ENDCHAR
STARTCHAR U+2860
ENCODING 10336
SWIDTH 1000 0
DWIDTH 5 0
BBX 3 3 1 -1
BITMAP
20
00
80
ENDCHAR
STARTCHAR U+2861
ENCODING 10337
SWIDTH 1000 0
DWIDTH 5 0
BBX 3 7 1 -1
BITMAP
80
00
00
00
20
00
80
ENDCHAR
STARTCHAR U+2862
ENCODING 10338
SWIDTH 1000 0
DWIDTH 5 0
BBX 3 5 1 -1
BITMAP
80
00
20
00
80
ENDCHAR
STARTCHAR U+2863
ENCODING 10339
SWIDTH 1000 0
DWIDTH 5 0
BBX 3 7 1 -1
BITMAP
80
00
80
00
20
00
80
ENDCHAR
STARTCHAR U+2864
ENCODING 10340
SWIDTH 1000 0
DWIDTH 5 0
BBX 3 3 1 -1
BITMAP
A0
00
80
ENDCHAR
STARTCHAR U+2865
ENCODING 10341
SWIDTH 1000 0
DWIDTH 5 0
BBX 3 7 1 -1
BITMAP
80
00
00
00
A0
00
80
ENDCHAR
STARTCHAR U+2866
ENCODING 10342
SWIDTH 1000 0
DWIDTH 5 0
BBX 3 5 1 -1
BITMAP
80
00
A0
00
80
ENDCHAR
STARTCHAR U+2867
ENCODING 10343
SWIDTH 1000 0
DWIDTH 5 0
BBX 3 7 1 -1
BITMAP
80
00
80
00
A0
00
80
ENDCHAR
STARTCHAR U+2868
ENCODING 10344
SWIDTH 1000 0
DWIDTH 5 0
BBX 3 7 1 -1
BITMAP
20
00
00
00
20
00
80
ENDCHAR
STARTCHAR U+2869
ENCODING 10345
SWIDTH 1000 0
DWIDTH 5 0
BBX 3 7 1 -1
BITMAP
A0
00
00
00
20
00
80
ENDCHAR
STARTCHAR U+286A
ENCODING 10346
SWIDTH 1000 0
DWIDTH 5 0
BBX 3 7 1 -1
BITMAP
20
00
80
00
20
00
80
ENDCHAR
STARTCHAR U+286B
ENCODING 10347
SWIDTH 1000 0
DWIDTH 5 0
BBX 3 7 1 -1
BITMAP
A0
00
80
00
20
00
80
ENDCHAR
STARTCHAR U+286C
ENCODING 10348
SWIDTH 1000 0
DWIDTH 5 0
BBX 3 7 1 -1
BITMAP
20
00
00
00
A0
00
80
ENDCHAR
STARTCHAR U+286D
ENCODING 10349
SWIDTH 1000 0
DWIDTH 5 0
BBX 3 7 1 -1
BITMAP
A0
00
00
00
A0
00
80
ENDCHAR
STARTCHAR U+286E
ENCODING 10350
SWIDTH 1000 0
DWIDTH 5 0
BBX 3 7 1 -1
BITMAP
20
00
80
00
A0
00
80
ENDCHAR
STARTCHAR U+286F
ENCODING 10351
SWIDTH 1000 0
DWIDTH 5 0
BBX 3 7 1 -1
BITMAP
A0
00
80
00
A0
00
80
ENDCHAR
STARTCHAR U+2870
ENCODING 10352
SWIDTH 1000 0
DWIDTH 5 0
BBX 3 5 1 -1
BITMAP
20
00
20
00
80
ENDCHAR
STARTCHAR U+2871
ENCODING 10353
SWIDTH 1000 0
DWIDTH 5 0
BBX 3 7 1 -1
BITMAP
80
00
20
00
20
00
80
ENDCHAR
STARTCHAR U+2872
ENCODING 10354
SWIDTH 1000 0
DWIDTH 5 0
BBX 3 5 1 -1
BITMAP
A0
00
20
00
80
ENDCHAR
STARTCHAR U+2873
ENCODING 10355
SWIDTH 1000 0
DWIDTH 5 0
BBX 3 7 1 -1
BITMAP
80
00
A0
00
20
00
80
ENDCHAR
STARTCHAR U+2874
ENCODING 10356
SWIDTH 1000 0
DWIDTH 5 0
BBX 3 5 1 -1
BITMAP
20
00
A0
00
80
ENDCHAR
STARTCHAR U+2875
ENCODING 10357
SWIDTH 1000 0
DWIDTH 5 0
BBX 3 7 1 -1
BITMAP
80
00
20
00
A0
00
80
ENDCHAR
STARTCHAR U+2876
ENCODING 10358
SWIDTH 1000 0
DWIDTH 5 0
BBX 3 5 1 -1
BITMAP
A0
00
A0
00
80
ENDCHAR
STARTCHAR U+2877
ENCODING 10359
SWIDTH 1000 0
DWIDTH 5 0
BBX 3 7 1 -1
BITMAP
80
00
A0
00
A0
00
80
ENDCHAR
STARTCHAR U+2878
ENCODING 10360
SWIDTH 1000 0
DWIDTH 5 0
BBX 3 7 1 -1
BITMAP
20
00
20
00
20
00
80
ENDCHAR
STARTCHAR U+2879
ENCODING 10361
SWIDTH 1000 0
DWIDTH 5 0
BBX 3 7 1 -1
BITMAP
A0
00
20
00
20
00
80
ENDCHAR
STARTCHAR U+287A
ENCODING 10362
SWIDTH 1000 0
DWIDTH 5 0
BBX 3 7 1 -1
BITMAP
20
00
A0
00
20
00
80
ENDCHAR
STARTCHAR U+287B
ENCODING 10363
SWIDTH 1000 0
DWIDTH 5 0
BBX 3 7 1 -1
BITMAP
A0
00
A0
00
20
00
80
ENDCHAR
STARTCHAR U+287C
ENCODING 10364
SWIDTH 1000 0
DWIDTH 5 0
BBX 3 7 1 -1
BITMAP
20
00
20
00
A0
00
80
ENDCHAR
STARTCHAR U+287D
ENCODING 10365
SWIDTH 1000 0
DWIDTH 5 0
BBX 3 7 1 -1
BITMAP
A0
00
20
00
A0
00
80
ENDCHAR
STARTCHAR U+287E
ENCODING 10366
SWIDTH 1000 0
DWIDTH 5 0
BBX 3 7 1 -1
BITMAP
20
00
A0
00
A0
00
80
ENDCHAR
STARTCHAR U+287F
ENCODING 10367
SWIDTH 1000 0
DWIDTH 5 0
BBX 3 7 1 -1
BITMAP
A0
00
A0
00
A0
00
80
ENDCHAR
STARTCHAR U+2880
ENCODING 10368
SWIDTH 1000 0
DWIDTH 5 0
BBX 1 1 3 -1
BITMAP
80
ENDCHAR
STARTCHAR U+2881
ENCODING 10369
SWIDTH 1000 0
DWIDTH 5 0
BBX 3 7 1 -1
BITMAP
80
00
00
00
00
00
20
ENDCHAR
STARTCHAR U+2882
ENCODING 10370
SWIDTH 1000 0
DWIDTH 5 0
BBX 3 5 1 -1
BITMAP
80
00
00
00
20
ENDCHAR
STARTCHAR U+2883
ENCODING 10371
SWIDTH 1000 0
DWIDTH 5 0
BBX 3 7 1 -1
BITMAP
80
00
80
00
00
00
20
ENDCHAR
STARTCHAR U+2884
ENCODING 10372
SWIDTH 1000 0
DWIDTH 5 0
BBX 3 3 1 -1
BITMAP
80
00
20
ENDCHAR
STARTCHAR U+2885
ENCODING 10373
SWIDTH 1000 0
DWIDTH 5 0
BBX 3 7 1 -1
BITMAP
80
00
00
00
80
00
20
ENDCHAR
STARTCHAR U+2886
ENCODING 10374
SWIDTH 1000 0
DWIDTH 5 0
BBX 3 5 1 -1
BITMAP
80
00
80
00
20
ENDCHAR
STARTCHAR U+2887
ENCODING 10375
SWIDTH 1000 0
DWIDTH 5 0
BBX 3 7 1 -1
BITMAP
80
00
80
00
80
00
20
ENDCHAR
STARTCHAR U+2888
ENCODING 10376
SWIDTH 1000 0
DWIDTH 5 0
BBX 1 7 3 -1
BITMAP
80
00
00
00
00
00
80
ENDCHAR
STARTCHAR U+2889
ENCODING 10377
SWIDTH 1000 0
DWIDTH 5 0
BBX 3 7 1 -1
BITMAP
A0
00
00
00
00
00
20
ENDCHAR
STARTCHAR U+288A
ENCODING 10378
SWIDTH 1000 0
DWIDTH 5 0
BBX 3 7 1 -1
BITMAP
20
00
80
00
00
00
20
ENDCHAR
STARTCHAR U+288B
ENCODING 10379
SWIDTH 1000 0
DWIDTH 5 0
BBX 3 7 1 -1
BITMAP
A0
00
80
00
00
00
20
ENDCHAR
STARTCHAR U+288C
ENCODING 10380
SWIDTH 1000 0
DWIDTH 5 0
BBX 3 7 1 -1
BITMAP
20
00
00
00
80
00
20
ENDCHAR
STARTCHAR U+288D
ENCODING 10381
SWIDTH 1000 0
DWIDTH 5 0
BBX 3 7 1 -1
BITMAP
A0
00
00
00
80
00
20
ENDCHAR
STARTCHAR U+288E
ENCODING 10382
SWIDTH 1000 0
DWIDTH 5 0
BBX 3 7 1 -1
BITMAP
20
00
80
00
80
00
20
ENDCHAR
STARTCHAR U+288F
ENCODING 10383
SWIDTH 1000 0
DWIDTH 5 0
BBX 3 7 1 -1
BITMAP
A0
00
80
00
80
00
20
ENDCHAR
STARTCHAR U+2890
ENCODING 10384
SWIDTH 1000 0
DWIDTH 5 0
BBX 1 5 3 -1
BITMAP
80
00
00
00
80
ENDCHAR
STARTCHAR U+2891
ENCODING 10385
SWIDTH 1000 0
DWIDTH 5 0
BBX 3 7 1 -1
BITMAP
80
00
20
00
00
00
20
ENDCHAR
STARTCHAR U+2892
ENCODING 10386
SWIDTH 1000 0
DWIDTH 5 0
BBX 3 5 1 -1
BITMAP
A0
00
00
00
20
ENDCHAR
STARTCHAR U+2893
ENCODING 10387
SWIDTH 1000 0
DWIDTH 5 0
BBX 3 7 1 -1
BITMAP
80
00
A0
00
00
00
20
ENDCHAR
STARTCHAR U+2894
ENCODING 10388
SWIDTH 1000 0
DWIDTH 5 0
BBX 3 5 1 -1
BITMAP
20
00
80
00
20
ENDCHAR
STARTCHAR U+2895
ENCODING 10389
SWIDTH 1000 0
DWIDTH 5 0
BBX 3 7 1 -1
BITMAP
80
00
20
00
80
00
20
ENDCHAR
STARTCHAR U+2896
ENCODING 10390
SWIDTH 1000 0
DWIDTH 5 0
BBX 3 5 1 -1
BITMAP
A0
00
80
00
20
ENDCHAR
STARTCHAR U+2897
ENCODING 10391
SWIDTH 1000 0
DWIDTH 5 0
BBX 3 7 1 -1
BITMAP
80
00
A0
00
80
00
20
ENDCHAR
STARTCHAR U+2898
ENCODING 10392
SWIDTH 1000 0
DWIDTH 5 0
BBX 1 7 3 -1
BITMAP
80
00
80
00
00
00
80
ENDCHAR
STARTCHAR U+2899
ENCODING 10393
SWIDTH 1000 0
DWIDTH 5 0
BBX 3 7 1 -1
BITMAP
A0
00
20
00
00
00
20
ENDCHAR
STARTCHAR U+289A
ENCODING 10394
SWIDTH 1000 0
DWIDTH 5 0
BBX 3 7 1 -1
BITMAP
20
00
A0
00
00
00
20
ENDCHAR
STARTCHAR U+289B
ENCODING 10395
SWIDTH 1000 0
DWIDTH 5 0
BBX 3 7 1 -1
BITMAP
A0
00
A0
00
00
00
20
ENDCHAR
STARTCHAR U+289C
ENCODING 10396
SWIDTH 1000 0
DWIDTH 5 0
BBX 3 7 1 -1
BITMAP
20
00
20
00
80
00
20
ENDCHAR
STARTCHAR U+289D
ENCODING 10397
SWIDTH 1000 0
DWIDTH 5 0
BBX 3 7 1 -1
BITMAP
A0
00
20
00
80
00
20
ENDCHAR
STARTCHAR U+289E
ENCODING 10398
SWIDTH 1000 0
DWIDTH 5 0
BBX 3 7 1 -1
BITMAP
20
00
A0
00
80
00
20
ENDCHAR
STARTCHAR U+289F
ENCODING 10399
SWIDTH 1000 0
DWIDTH 5 0
BBX 3 7 1 -1
BITMAP
A0
00
A0
00
80
00
20
ENDCHAR
STARTCHAR U+28A0
ENCODING 10400
SWIDTH 1000 0
DWIDTH 5 0
BBX 1 3 3 -1
BITMAP
80
00
80
ENDCHAR
STARTCHAR U+28A1
ENCODING 10401
SWIDTH 1000 0
DWIDTH 5 0
BBX 3 7 1 -1
BITMAP
80
00
00
00
20
00
20
ENDCHAR
STARTCHAR U+28A2
ENCODING 10402
SWIDTH 1000 0
DWIDTH 5 0
BBX 3 5 1 -1
BITMAP
80
00
20
00
20
ENDCHAR
STARTCHAR U+28A3
ENCODING 10403
SWIDTH 1000 0
DWIDTH 5 0
BBX 3 7 1 -1
BITMAP
80
00
80
00
20
00
20
ENDCHAR
STARTCHAR U+28A4
ENCODING 10404
SWIDTH 1000 0
DWIDTH 5 0
BBX 3 3 1 -1
BITMAP
A0
00
20
ENDCHAR
STARTCHAR U+28A5
ENCODING 10405
SWIDTH 1000 0
DWIDTH 5 0
BBX 3 7 1 -1
BITMAP
80
00
00
00
A0
00
20
ENDCHAR
STARTCHAR U+28A6
ENCODING 10406
SWIDTH 1000 0
DWIDTH 5 0
BBX 3 5 1 -1
BITMAP
80
00
A0
00
20
ENDCHAR
STARTCHAR U+28A7
ENCODING 10407
SWIDTH 1000 0
DWIDTH 5 0
BBX 3 7 1 -1
BITMAP
80
00
80
00
A0
00
20
ENDCHAR
STARTCHAR U+28A8
ENCODING 10408
SWIDTH 1000 0
DWIDTH 5 0
BBX 1 7 3 -1
BITMAP
80
00
00
00
80
00
80
ENDCHAR
STARTCHAR U+28A9
ENCODING 10409
SWIDTH 1000 0
DWIDTH 5 0
BBX 3 7 1 -1
BITMAP
A0
00
00
00
20
00
20
ENDCHAR
STARTCHAR U+28AA
ENCODING 10410
SWIDTH 1000 0
DWIDTH 5 0
BBX 3 7 1 -1
BITMAP
20
00
80
00
20
00
20
ENDCHAR
STARTCHAR U+28AB
ENCODING 10411
SWIDTH 1000 0
DWIDTH 5 0
BBX 3 7 1 -1
BITMAP
A0
00
80
00
20
00
20
ENDCHAR
STARTCHAR U+28AC
ENCODING 10412
SWIDTH 1000 0
DWIDTH 5 0
BBX 3 7 1 -1
BITMAP
20
00
00
00
A0
00
20
ENDCHAR
STARTCHAR U+28AD
ENCODING 10413
SWIDTH 1000 0
DWIDTH 5 0
BBX 3 7 1 -1
BITMAP
A0
00
00
00
A0
00
20
ENDCHAR
STARTCHAR U+28AE
ENCODING 10414
SWIDTH 1000 0
DWIDTH 5 0
BBX 3 7 1 -1
BITMAP
20
00
80
00
A0
00
20
ENDCHAR
STARTCHAR U+28AF
ENCODING 10415
SWIDTH 1000 0
DWIDTH 5 0
BBX 3 7 1 -1
BITMAP
A0
00
80
00
A0
00
20
ENDCHAR
STARTCHAR U+28B0
ENCODING 10416
SWIDTH 1000 0
DWIDTH 5 0
BBX 1 5 3 -1
BITMAP
80
00
80
00
80
ENDCHAR
STARTCHAR U+28B1
ENCODING 10417
SWIDTH 1000 0
DWIDTH 5 0
BBX 3 7 1 -1
BITMAP
80
00
20
00
20
00
20
ENDCHAR
STARTCHAR U+28B2
ENCODING 10418
SWIDTH 1000 0
DWIDTH 5 0
BBX 3 5 1 -1
BITMAP
A0
00
20
00
20
ENDCHAR
STARTCHAR U+28B3
ENCODING 10419
SWIDTH 1000 0
DWIDTH 5 0
BBX 3 7 1 -1
BITMAP
80
00
A0
00
20
00
20
ENDCHAR
STARTCHAR U+28B4
ENCODING 10420
SWIDTH 1000 0
DWIDTH 5 0
BBX 3 5 1 -1
BITMAP
20
00
A0
00
20
ENDCHAR
STARTCHAR U+28B5
ENCODING 10421
SWIDTH 1000 0
DWIDTH 5 0
BBX 3 7 1 -1
BITMAP
80
00
20
00
A0
00
20
ENDCHAR
STARTCHAR U+28B6
ENCODING 10422
SWIDTH 1000 0
DWIDTH 5 0
BBX 3 5 1 -1
BITMAP
A0
00
A0
00
20
ENDCHAR
STARTCHAR U+28B7
ENCODING 10423
SWIDTH 1000 0
DWIDTH 5 0
BBX 3 7 1 -1
BITMAP
80
00
A0
00
A0
00
20
ENDCHAR
STARTCHAR U+28B8
ENCODING 10424
SWIDTH 1000 0
DWIDTH 5 0
BBX 1 7 3 -1
BITMAP
80
00
80
00
80
00
80
ENDCHAR
STARTCHAR U+28B9
ENCODING 10425
SWIDTH 1000 0
DWIDTH 5 0
BBX 3 7 1 -1
BITMAP
A0
00
20
00
20
00
20
ENDCHAR
STARTCHAR U+28BA
ENCODING 10426
SWIDTH 1000 0
DWIDTH 5 0
BBX 3 7 1 -1
BITMAP
20
00
A0
00
20
00
20
ENDCHAR
STARTCHAR U+28BB
ENCODING 10427
SWIDTH 1000 0
DWIDTH 5 0
BBX 3 7 1 -1
BITMAP
A0
00
A0
00
20
00
20
ENDCHAR
STARTCHAR U+28BC
ENCODING 10428
SWIDTH 1000 0
DWIDTH 5 0
BBX 3 7 1 -1
BITMAP
20
00
20
00
A0
00
20
ENDCHAR
STARTCHAR U+28BD
ENCODING 10429
SWIDTH 1000 0
DWIDTH 5 0
BBX 3 7 1 -1
BITMAP
A0
00
20
00
A0
00
20
ENDCHAR
STARTCHAR U+28BE
ENCODING 10430
SWIDTH 1000 0
DWIDTH 5 0
BBX 3 7 1 -1
BITMAP
20
00
A0
00
A0
00
20
ENDCHAR
STARTCHAR U+28BF
ENCODING 10431
SWIDTH 1000 0
DWIDTH 5 0
BBX 3 7 1 -1
BITMAP
A0
00
A0
00
A0
00
20
ENDCHAR
STARTCHAR U+28C0
ENCODING 10432
SWIDTH 1000 0
DWIDTH 5 0
BBX 3 1 1 -1
BITMAP
A0
ENDCHAR
STARTCHAR U+28C1
ENCODING 10433
SWIDTH 1000 0
DWIDTH 5 0
BBX 3 7 1 -1
BITMAP
80
00
00
00
00
00
A0
ENDCHAR
STARTCHAR U+28C2
ENCODING 10434
SWIDTH 1000 0
DWIDTH 5 0
BBX 3 5 1 -1
BITMAP
80
00
00
00
A0
ENDCHAR
STARTCHAR U+28C3
ENCODING 10435
SWIDTH 1000 0
DWIDTH 5 0
BBX 3 7 1 -1
BITMAP
80
00
80
00
00
00
A0
ENDCHAR
STARTCHAR U+28C4
ENCODING 10436
SWIDTH 1000 0
DWIDTH 5 0
BBX 3 3 1 -1
BITMAP
80
00
A0
ENDCHAR
STARTCHAR U+28C5
ENCODING 10437
SWIDTH 1000 0
DWIDTH 5 0
BBX 3 7 1 -1
BITMAP
80
00
00
00
80
00
A0
ENDCHAR
STARTCHAR U+28C6
ENCODING 10438
SWIDTH 1000 0
DWIDTH 5 0
BBX 3 5 1 -1
BITMAP
80
00
80
00
A0
ENDCHAR
STARTCHAR U+28C7
ENCODING 10439
SWIDTH 1000 0
DWIDTH 5 0
BBX 3 7 1 -1
BITMAP
80
00
80
00
80
00
A0
ENDCHAR
STARTCHAR U+28C8
ENCODING 10440
SWIDTH 1000 0
DWIDTH 5 0
BBX 3 7 1 -1
BITMAP
20
00
00
00
00
00
A0
ENDCHAR
STARTCHAR U+28C9
ENCODING 10441
SWIDTH 1000 0
DWIDTH 5 0
BBX 3 7 1 -1
BITMAP
A0
00
00
00
00
00
A0
ENDCHAR
STARTCHAR U+28CA
ENCODING 10442
SWIDTH 1000 0
DWIDTH 5 0
BBX 3 7 1 -1
BITMAP
20
00
80
00
00
00
A0
ENDCHAR
STARTCHAR U+28CB
ENCODING 10443
SWIDTH 1000 0
DWIDTH 5 0
BBX 3 7 1 -1
BITMAP
A0
00
80
00
00
00
A0
ENDCHAR
STARTCHAR U+28CC
ENCODING 10444
SWIDTH 1000 0
DWIDTH 5 0
BBX 3 7 1 -1
BITMAP
20
00
00
00
80
00
A0
ENDCHAR
STARTCHAR U+28CD
ENCODING 10445
SWIDTH 1000 0
DWIDTH 5 0
BBX 3 7 1 -1
BITMAP
A0
00
00
00
80
00
A0
ENDCHAR
STARTCHAR U+28CE
ENCODING 10446
SWIDTH 1000 0
DWIDTH 5 0
BBX 3 7 1 -1
BITMAP
20
00
80
00
80
00
A0
ENDCHAR
STARTCHAR U+28CF
ENCODING 10447
SWIDTH 1000 0
DWIDTH 5 0
BBX 3 7 1 -1
BITMAP
A0
00
80
00
80
00
A0
ENDCHAR
STARTCHAR U+28D0
ENCODING 10448
SWIDTH 1000 0
DWIDTH 5 0
BBX 3 5 1 -1
BITMAP
20
00
00
00
A0
ENDCHAR
STARTCHAR U+28D1
ENCODING 10449
SWIDTH 1000 0
DWIDTH 5 0
BBX 3 7 1 -1
BITMAP
80
00
20
00
00
00
A0
ENDCHAR
STARTCHAR U+28D2
ENCODING 10450
SWIDTH 1000 0
DWIDTH 5 0
BBX 3 5 1 -1
BITMAP
A0
00
00
00
A0
ENDCHAR
STARTCHAR U+28D3
ENCODING 10451
SWIDTH 1000 0
DWIDTH 5 0
BBX 3 7 1 -1
BITMAP
80
00
A0
00
00
00
A0
ENDCHAR
STARTCHAR U+28D4
ENCODING 10452
SWIDTH 1000 0
DWIDTH 5 0
BBX 3 5 1 -1
BITMAP
20
00
80
00
A0
ENDCHAR
STARTCHAR U+28D5
ENCODING 10453
SWIDTH 1000 0
DWIDTH 5 0
BBX 3 7 1 -1
BITMAP
80
00
20
00
80
00
A0
ENDCHAR
STARTCHAR U+28D6
ENCODING 10454
SWIDTH 1000 0
DWIDTH 5 0
BBX 3 5 1 -1
BITMAP
A0
00
80
00
A0
ENDCHAR
STARTCHAR U+28D7
ENCODING 10455
SWIDTH 1000 0
DWIDTH 5 0
BBX 3 7 1 -1
BITMAP
80
00
A0
00
80
00
A0
ENDCHAR
STARTCHAR U+28D8
ENCODING 10456
SWIDTH 1000 0
DWIDTH 5 0
BBX 3 7 1 -1
BITMAP
20
00
20
00
00
00
A0
ENDCHAR
STARTCHAR U+28D9
ENCODING 10457
SWIDTH 1000 0
DWIDTH 5 0
BBX 3 7 1 -1
BITMAP
A0
00
20
00
00
00
A0
ENDCHAR
STARTCHAR U+28DA
ENCODING 10458
SWIDTH 1000 0
DWIDTH 5 0
BBX 3 7 1 -1
BITMAP
20
00
A0
00
00
00
A0
ENDCHAR
STARTCHAR U+28DB
ENCODING 10459
SWIDTH 1000 0
DWIDTH 5 0
BBX 3 7 1 -1
BITMAP
A0
00
A0
00
00
00
A0
ENDCHAR
STARTCHAR U+28DC
ENCODING 10460
SWIDTH 1000 0
DWIDTH 5 0
BBX 3 7 1 -1
BITMAP
20
00
20
00
80
00
A0
ENDCHAR
STARTCHAR U+28DD
ENCODING 10461
SWIDTH 1000 0
DWIDTH 5 0
BBX 3 7 1 -1
BITMAP
A0
00
20
00
80
00
A0
ENDCHAR
STARTCHAR U+28DE
ENCODING 10462
SWIDTH 1000 0
DWIDTH 5 0
BBX 3 7 1 -1
BITMAP
20
00
A0
00
80
00
A0
ENDCHAR
STARTCHAR U+28DF
ENCODING 10463
SWIDTH 1000 0
DWIDTH 5 0
BBX 3 7 1 -1
BITMAP
A0
00
A0
00
80
00
A0
ENDCHAR
STARTCHAR U+28E0
ENCODING 10464
SWIDTH 1000 0
DWIDTH 5 0
BBX 3 3 1 -1
BITMAP
20
00
A0
ENDCHAR
STARTCHAR U+28E1
ENCODING 10465
SWIDTH 1000 0
DWIDTH 5 0
BBX 3 7 1 -1
BITMAP
80
00
00
00
20
00
A0
ENDCHAR
STARTCHAR U+28E2
ENCODING 10466
SWIDTH 1000 0
DWIDTH 5 0
BBX 3 5 1 -1
BITMAP
80
00
20
00
A0
ENDCHAR
STARTCHAR U+28E3
ENCODING 10467
SWIDTH 1000 0
DWIDTH 5 0
BBX 3 7 1 -1
BITMAP
80
00
80
00
20
00
A0
ENDCHAR
STARTCHAR U+28E4
ENCODING 10468
SWIDTH 1000 0
DWIDTH 5 0
BBX 3 3 1 -1
BITMAP
A0
00
A0
ENDCHAR
STARTCHAR U+28E5
ENCODING 10469
SWIDTH 1000 0
DWIDTH 5 0
BBX 3 7 1 -1
BITMAP
80
00
00
00
A0
00
A0
ENDCHAR
STARTCHAR U+28E6
ENCODING 10470
SWIDTH 1000 0
DWIDTH 5 0
BBX 3 5 1 -1
BITMAP
80
00
A0
00
A0
ENDCHAR
STARTCHAR U+28E7
ENCODING 10471
SWIDTH 1000 0
DWIDTH 5 0
BBX 3 7 1 -1
BITMAP
80
00
80
00
A0
00
A0
ENDCHAR
STARTCHAR U+28E8
ENCODING 10472
SWIDTH 1000 0
DWIDTH 5 0
BBX 3 7 1 -1
BITMAP
20
00
00
00
20
00
A0
ENDCHAR
STARTCHAR U+28E9
ENCODING 10473
SWIDTH 1000 0
DWIDTH 5 0
BBX 3 7 1 -1
BITMAP
A0
00
00
00
20
00
A0
ENDCHAR
STARTCHAR U+28EA
ENCODING 10474
SWIDTH 1000 0
DWIDTH 5 0
BBX 3 7 1 -1
BITMAP
20
00
80
00
20
00
A0
ENDCHAR
STARTCHAR U+28EB
ENCODING 10475
SWIDTH 1000 0
DWIDTH 5 0
BBX 3 7 1 -1
BITMAP
A0
00
80
00
20
00
A0
ENDCHAR
STARTCHAR U+28EC
ENCODING 10476
SWIDTH 1000 0
DWIDTH 5 0
BBX 3 7 1 -1
BITMAP
20
00
00
00
A0
00
A0
ENDCHAR
STARTCHAR U+28ED
ENCODING 10477
SWIDTH 1000 0
DWIDTH 5 0
BBX 3 7 1 -1
BITMAP
A0
00
00
00
A0
00
A0
ENDCHAR
STARTCHAR U+28EE
ENCODING 10478
SWIDTH 1000 0
DWIDTH 5 0
BBX 3 7 1 -1
BITMAP
20
00
80
00
A0
00
A0
ENDCHAR
STARTCHAR U+28EF
ENCODING 10479
SWIDTH 1000 0
DWIDTH 5 0
BBX 3 7 1 -1
BITMAP
A0
00
80
00
A0
00
A0
ENDCHAR
STARTCHAR U+28F0
ENCODING 10480
SWIDTH 1000 0
DWIDTH 5 0
BBX 3 5 1 -1
BITMAP
20
00
20
00
A0
ENDCHAR
STARTCHAR U+28F1
ENCODING 10481
SWIDTH 1000 0
DWIDTH 5 0
BBX 3 7 1 -1
BITMAP
80
00
20
00
20
00
A0
ENDCHAR
STARTCHAR U+28F2
ENCODING 10482
SWIDTH 1000 0
DWIDTH 5 0
BBX 3 5 1 -1
BITMAP
A0
00
20
00
A0
ENDCHAR
STARTCHAR U+28F3
ENCODING 10483
SWIDTH 1000 0
DWIDTH 5 0
BBX 3 7 1 -1
BITMAP
80
00
A0
00
20
00
A0
ENDCHAR
STARTCHAR U+28F4
ENCODING 10484
SWIDTH 1000 0
DWIDTH 5 0
BBX 3 5 1 -1
BITMAP
20
00
A0
00
A0
ENDCHAR
STARTCHAR U+28F5
ENCODING 10485
SWIDTH 1000 0
DWIDTH 5 0
BBX 3 7 1 -1
BITMAP
80
00
20
00
A0
00
A0
ENDCHAR
STARTCHAR U+28F6
ENCODING 10486
SWIDTH 1000 0
DWIDTH 5 0
BBX 3 5 1 -1
BITMAP
A0
00
A0
00
A0
ENDCHAR
STARTCHAR U+28F7
ENCODING 10487
SWIDTH 1000 0
DWIDTH 5 0
BBX 3 7 1 -1
BITMAP
80
00
A0
00
A0
00
A0
ENDCHAR
STARTCHAR U+28F8
ENCODING 10488
SWIDTH 1000 0
DWIDTH 5 0
BBX 3 7 1 -1
BITMAP
20
00
20
00
20
00
A0
ENDCHAR
STARTCHAR U+28F9
ENCODING 10489
SWIDTH 1000 0
DWIDTH 5 0
BBX 3 7 1 -1
BITMAP
A0
00
20
00
20
00
A0
ENDCHAR
STARTCHAR U+28FA
ENCODING 10490
SWIDTH 1000 0
DWIDTH 5 0
BBX 3 7 1 -1
BITMAP
20
00
A0
00
20
00
A0
ENDCHAR
STARTCHAR U+28FB
ENCODING 10491
SWIDTH 1000 0
DWIDTH 5 0
BBX 3 7 1 -1
BITMAP
A0
00
A0
00
20
00
A0
ENDCHAR
STARTCHAR U+28FC
ENCODING 10492
SWIDTH 1000 0
DWIDTH 5 0
BBX 3 7 1 -1
BITMAP
20
00
20
00
A0
00
A0
ENDCHAR
STARTCHAR U+28FD
ENCODING 10493
SWIDTH 1000 0
DWIDTH 5 0
BBX 3 7 1 -1
BITMAP
A0
00
20
00
A0
00
A0
ENDCHAR
STARTCHAR U+28FE
ENCODING 10494
SWIDTH 1000 0
DWIDTH 5 0
BBX 3 7 1 -1
BITMAP
20
00
A0
00
A0
00
A0
ENDCHAR
STARTCHAR U+28FF
ENCODING 10495
SWIDTH 1000 0
DWIDTH 5 0
BBX 3 7 1 -1
BITMAP
A0
00
A0
00
A0
00
A0
ENDCHAR
STARTCHAR U+FB00
ENCODING 64256
SWIDTH 1000 0
DWIDTH 5 0
BBX 5 6 0 0
BITMAP
50
A8
A0
F0
A0
A0
ENDCHAR
STARTCHAR U+FB01
ENCODING 64257
SWIDTH 1000 0
DWIDTH 5 0
BBX 4 6 0 0
BITMAP
20
50
40
F0
50
50
ENDCHAR
STARTCHAR U+FB02
ENCODING 64258
SWIDTH 1000 0
DWIDTH 5 0
BBX 4 6 0 0
BITMAP
30
50
50
F0
50
50
ENDCHAR
STARTCHAR U+FFFD
ENCODING 65533
SWIDTH 1000 0
DWIDTH 5 0
BBX 5 8 0 -1
BITMAP
70
D8
A8
E8
D8
F8
D8
70
ENDCHAR
ENDFONT
